<svg width="16" height="12" viewBox="0 0 16 12" fill="none" xmlns="http://www.w3.org/2000/svg">
<path d="M15.9345 1.75014L6.01419 11.6704C5.99345 11.6912 5.96882 11.7077 5.9417 11.7189C5.91459 11.7302 5.88553 11.7359 5.85617 11.7359C5.82682 11.7359 5.79776 11.7302 5.77065 11.7189C5.74353 11.7077 5.7189 11.6912 5.69816 11.6704L0.0654025 6.03749C0.0235255 5.9956 0 5.9388 0 5.87957C0 5.82034 0.0235255 5.76354 0.0654025 5.72165L1.43409 4.35297C1.47601 4.31108 1.53284 4.28755 1.59211 4.28755C1.65137 4.28755 1.7082 4.31108 1.75012 4.35297L5.85638 8.45902L14.25 0.0654199C14.2919 0.0235305 14.3487 0 14.408 0C14.4673 0 14.5241 0.0235305 14.566 0.0654199L15.9345 1.4341C15.9553 1.45485 15.9717 1.47948 15.983 1.50659C15.9942 1.53371 16 1.56277 16 1.59212C16 1.62147 15.9942 1.65054 15.983 1.67765C15.9717 1.70477 15.9553 1.7294 15.9345 1.75014Z" fill="#2263AF"/>
</svg>
