<svg width="25" height="26" viewBox="0 0 25 26" fill="none" xmlns="http://www.w3.org/2000/svg">
<path d="M0.259647 24.7404C0.342573 24.8234 0.441049 24.8892 0.549444 24.9342C0.65784 24.9791 0.774029 25.0022 0.891369 25.0022C1.00871 25.0022 1.1249 24.9791 1.23329 24.9342C1.34169 24.8892 1.44017 24.8234 1.52309 24.7404L12.4968 13.7667L23.4749 24.7404C23.6424 24.9079 23.8697 25.002 24.1066 25.002C24.3436 25.002 24.5708 24.9079 24.7383 24.7404C24.9059 24.5728 25 24.3456 25 24.1086C25 23.8717 24.9059 23.6445 24.7383 23.4769L13.7602 12.5032L24.7339 1.52511C24.9014 1.35757 24.9955 1.13033 24.9955 0.89339C24.9955 0.656449 24.9014 0.429211 24.7339 0.261668C24.5663 0.0941247 24.3391 0 24.1021 0C23.8652 0 23.638 0.0941247 23.4704 0.261668L12.4968 11.2398L1.51863 0.266133C1.34782 0.119853 1.1281 0.0434158 0.903376 0.0520958C0.678656 0.0607757 0.465487 0.153933 0.306467 0.312953C0.147448 0.471972 0.0542902 0.685141 0.0456103 0.909861C0.0369303 1.13458 0.113367 1.3543 0.259647 1.52511L11.2333 12.5032L0.259647 23.4814C0.0933447 23.6487 0 23.875 0 24.1109C0 24.3468 0.0933447 24.5731 0.259647 24.7404Z" fill="white"/>
</svg>
