<svg width="406" height="434" viewBox="0 0 406 434" fill="none" xmlns="http://www.w3.org/2000/svg">
<rect width="406" height="434" fill="#00439D"/>
<mask id="path-2-inside-1_9_493" fill="white">
<path d="M160.359 255.34C159.314 255.34 158.312 255.755 157.573 256.494C156.834 257.233 156.419 258.235 156.419 259.28V291.097C156.419 292.142 156.834 293.144 157.573 293.883C158.312 294.622 159.314 295.038 160.359 295.038H171.51C173.686 295.038 175.45 293.274 175.45 291.097C175.45 288.92 173.686 287.157 171.51 287.157H164.3V259.28C164.3 258.235 163.884 257.233 163.145 256.494C162.406 255.755 161.404 255.34 160.359 255.34ZM183.492 259.266V291.11C183.492 293.286 185.256 295.05 187.432 295.05C189.608 295.05 191.372 293.286 191.372 291.11V259.266C191.372 258.221 190.957 257.219 190.218 256.48C189.479 255.741 188.477 255.326 187.432 255.326C186.387 255.326 185.385 255.741 184.646 256.48C183.907 257.219 183.492 258.221 183.492 259.266ZM134.406 295.051C138.782 295.051 142.71 293.613 145.764 290.892C146.369 290.353 146.935 289.77 147.456 289.149C148.127 288.348 148.453 287.314 148.362 286.273C148.271 285.232 147.77 284.269 146.97 283.598C146.573 283.265 146.115 283.014 145.622 282.858C145.128 282.702 144.609 282.645 144.093 282.69C143.578 282.735 143.076 282.882 142.617 283.121C142.158 283.36 141.751 283.687 141.418 284.083C141.143 284.412 140.844 284.721 140.524 285.007C138.912 286.442 136.854 287.17 134.406 287.17C127.799 287.17 122.424 281.796 122.424 275.189C122.424 268.582 127.799 263.207 134.406 263.207C136.807 263.207 139.123 263.914 141.102 265.252C141.968 265.837 143.031 266.054 144.057 265.855C145.083 265.656 145.988 265.058 146.573 264.192C146.863 263.763 147.065 263.281 147.169 262.775C147.272 262.268 147.275 261.745 147.177 261.237C147.078 260.729 146.881 260.245 146.595 259.814C146.31 259.382 145.943 259.011 145.514 258.721C142.234 256.502 138.365 255.32 134.405 255.326C123.453 255.326 114.543 264.237 114.543 275.189C114.543 286.141 123.455 295.051 134.406 295.051ZM279.687 295.051C281.864 295.051 283.627 293.287 283.627 291.11V263.207H288.516C290.692 263.207 292.456 261.444 292.456 259.267C292.456 257.09 290.692 255.326 288.516 255.326H270.93C268.753 255.326 266.989 257.09 266.989 259.267C266.989 261.444 268.753 263.207 270.93 263.207H275.746V291.11C275.746 292.155 276.162 293.158 276.901 293.897C277.64 294.636 278.642 295.051 279.687 295.051ZM232.693 295.049C234.87 295.049 236.633 293.285 236.633 291.108V271.796L251.782 293.376C252.263 294.062 252.95 294.576 253.744 294.845C254.537 295.114 255.396 295.122 256.194 294.87C256.993 294.618 257.691 294.117 258.186 293.442C258.681 292.766 258.948 291.95 258.948 291.112V259.264C258.948 257.087 257.184 255.323 255.007 255.323C252.831 255.323 251.067 257.087 251.067 259.264V278.64L235.918 257.06C235.437 256.374 234.75 255.859 233.957 255.591C233.163 255.322 232.305 255.313 231.506 255.565C230.707 255.818 230.01 256.318 229.515 256.994C229.02 257.67 228.753 258.485 228.753 259.323V291.108C228.753 291.625 228.855 292.138 229.053 292.616C229.25 293.094 229.541 293.528 229.907 293.894C230.272 294.26 230.707 294.551 231.185 294.749C231.663 294.947 232.175 295.049 232.693 295.049ZM216.771 263.207C218.948 263.207 220.712 261.443 220.712 259.266C220.712 257.09 218.948 255.326 216.771 255.326H203.353C202.308 255.326 201.306 255.741 200.567 256.48C199.828 257.219 199.413 258.221 199.413 259.266V291.11C199.413 292.155 199.828 293.157 200.567 293.896C201.306 294.635 202.308 295.05 203.353 295.05H216.771C218.948 295.05 220.712 293.286 220.712 291.11C220.712 288.933 218.948 287.169 216.771 287.169H207.294V279.128H215.782C217.959 279.128 219.723 277.364 219.723 275.188C219.723 273.011 217.959 271.247 215.782 271.247H207.294V263.206L216.771 263.207ZM255.204 237.731V199.514C255.204 181.97 241.27 167.627 223.888 166.952C230.078 161.369 233.977 153.293 233.977 144.321C233.977 127.516 220.305 113.844 203.5 113.844C186.695 113.844 173.023 127.516 173.023 144.321C173.023 153.293 176.922 161.37 183.112 166.952C165.73 167.627 151.796 181.97 151.796 199.514V237.731C151.796 238.776 152.211 239.778 152.95 240.517C153.689 241.256 154.692 241.672 155.737 241.672H194.159C196.335 241.672 198.099 239.908 198.099 237.731C198.099 235.554 196.335 233.791 194.159 233.791H180.903V209.601C180.903 208.556 180.488 207.554 179.75 206.814L175.879 202.943C175.137 202.217 174.139 201.813 173.101 201.819C172.064 201.824 171.07 202.239 170.336 202.972C169.602 203.706 169.187 204.7 169.182 205.738C169.176 206.775 169.58 207.774 170.306 208.515L173.023 211.232V233.791H159.677V199.514C159.677 185.887 170.764 174.8 184.392 174.8H222.608C236.236 174.8 247.323 185.887 247.323 199.514V233.791H233.977V211.232L236.694 208.516C237.433 207.777 237.848 206.774 237.848 205.729C237.848 204.684 237.433 203.682 236.694 202.943C235.955 202.204 234.953 201.789 233.908 201.789C232.863 201.789 231.86 202.204 231.121 202.943L227.25 206.814C226.511 207.553 226.096 208.556 226.097 209.601V233.791H212.547C210.371 233.791 208.607 235.554 208.607 237.731C208.607 239.908 210.371 241.672 212.547 241.672H251.263C253.44 241.672 255.204 239.908 255.204 237.731ZM180.904 144.321C180.904 131.861 191.04 121.724 203.5 121.724C215.96 121.724 226.096 131.861 226.096 144.321C226.096 156.78 215.96 166.917 203.5 166.917C191.04 166.917 180.904 156.78 180.904 144.321Z"/>
</mask>
<path d="M160.359 255.34C159.314 255.34 158.312 255.755 157.573 256.494C156.834 257.233 156.419 258.235 156.419 259.28V291.097C156.419 292.142 156.834 293.144 157.573 293.883C158.312 294.622 159.314 295.038 160.359 295.038H171.51C173.686 295.038 175.45 293.274 175.45 291.097C175.45 288.92 173.686 287.157 171.51 287.157H164.3V259.28C164.3 258.235 163.884 257.233 163.145 256.494C162.406 255.755 161.404 255.34 160.359 255.34ZM183.492 259.266V291.11C183.492 293.286 185.256 295.05 187.432 295.05C189.608 295.05 191.372 293.286 191.372 291.11V259.266C191.372 258.221 190.957 257.219 190.218 256.48C189.479 255.741 188.477 255.326 187.432 255.326C186.387 255.326 185.385 255.741 184.646 256.48C183.907 257.219 183.492 258.221 183.492 259.266ZM134.406 295.051C138.782 295.051 142.71 293.613 145.764 290.892C146.369 290.353 146.935 289.77 147.456 289.149C148.127 288.348 148.453 287.314 148.362 286.273C148.271 285.232 147.77 284.269 146.97 283.598C146.573 283.265 146.115 283.014 145.622 282.858C145.128 282.702 144.609 282.645 144.093 282.69C143.578 282.735 143.076 282.882 142.617 283.121C142.158 283.36 141.751 283.687 141.418 284.083C141.143 284.412 140.844 284.721 140.524 285.007C138.912 286.442 136.854 287.17 134.406 287.17C127.799 287.17 122.424 281.796 122.424 275.189C122.424 268.582 127.799 263.207 134.406 263.207C136.807 263.207 139.123 263.914 141.102 265.252C141.968 265.837 143.031 266.054 144.057 265.855C145.083 265.656 145.988 265.058 146.573 264.192C146.863 263.763 147.065 263.281 147.169 262.775C147.272 262.268 147.275 261.745 147.177 261.237C147.078 260.729 146.881 260.245 146.595 259.814C146.31 259.382 145.943 259.011 145.514 258.721C142.234 256.502 138.365 255.32 134.405 255.326C123.453 255.326 114.543 264.237 114.543 275.189C114.543 286.141 123.455 295.051 134.406 295.051ZM279.687 295.051C281.864 295.051 283.627 293.287 283.627 291.11V263.207H288.516C290.692 263.207 292.456 261.444 292.456 259.267C292.456 257.09 290.692 255.326 288.516 255.326H270.93C268.753 255.326 266.989 257.09 266.989 259.267C266.989 261.444 268.753 263.207 270.93 263.207H275.746V291.11C275.746 292.155 276.162 293.158 276.901 293.897C277.64 294.636 278.642 295.051 279.687 295.051ZM232.693 295.049C234.87 295.049 236.633 293.285 236.633 291.108V271.796L251.782 293.376C252.263 294.062 252.95 294.576 253.744 294.845C254.537 295.114 255.396 295.122 256.194 294.87C256.993 294.618 257.691 294.117 258.186 293.442C258.681 292.766 258.948 291.95 258.948 291.112V259.264C258.948 257.087 257.184 255.323 255.007 255.323C252.831 255.323 251.067 257.087 251.067 259.264V278.64L235.918 257.06C235.437 256.374 234.75 255.859 233.957 255.591C233.163 255.322 232.305 255.313 231.506 255.565C230.707 255.818 230.01 256.318 229.515 256.994C229.02 257.67 228.753 258.485 228.753 259.323V291.108C228.753 291.625 228.855 292.138 229.053 292.616C229.25 293.094 229.541 293.528 229.907 293.894C230.272 294.26 230.707 294.551 231.185 294.749C231.663 294.947 232.175 295.049 232.693 295.049ZM216.771 263.207C218.948 263.207 220.712 261.443 220.712 259.266C220.712 257.09 218.948 255.326 216.771 255.326H203.353C202.308 255.326 201.306 255.741 200.567 256.48C199.828 257.219 199.413 258.221 199.413 259.266V291.11C199.413 292.155 199.828 293.157 200.567 293.896C201.306 294.635 202.308 295.05 203.353 295.05H216.771C218.948 295.05 220.712 293.286 220.712 291.11C220.712 288.933 218.948 287.169 216.771 287.169H207.294V279.128H215.782C217.959 279.128 219.723 277.364 219.723 275.188C219.723 273.011 217.959 271.247 215.782 271.247H207.294V263.206L216.771 263.207ZM255.204 237.731V199.514C255.204 181.97 241.27 167.627 223.888 166.952C230.078 161.369 233.977 153.293 233.977 144.321C233.977 127.516 220.305 113.844 203.5 113.844C186.695 113.844 173.023 127.516 173.023 144.321C173.023 153.293 176.922 161.37 183.112 166.952C165.73 167.627 151.796 181.97 151.796 199.514V237.731C151.796 238.776 152.211 239.778 152.95 240.517C153.689 241.256 154.692 241.672 155.737 241.672H194.159C196.335 241.672 198.099 239.908 198.099 237.731C198.099 235.554 196.335 233.791 194.159 233.791H180.903V209.601C180.903 208.556 180.488 207.554 179.75 206.814L175.879 202.943C175.137 202.217 174.139 201.813 173.101 201.819C172.064 201.824 171.07 202.239 170.336 202.972C169.602 203.706 169.187 204.7 169.182 205.738C169.176 206.775 169.58 207.774 170.306 208.515L173.023 211.232V233.791H159.677V199.514C159.677 185.887 170.764 174.8 184.392 174.8H222.608C236.236 174.8 247.323 185.887 247.323 199.514V233.791H233.977V211.232L236.694 208.516C237.433 207.777 237.848 206.774 237.848 205.729C237.848 204.684 237.433 203.682 236.694 202.943C235.955 202.204 234.953 201.789 233.908 201.789C232.863 201.789 231.86 202.204 231.121 202.943L227.25 206.814C226.511 207.553 226.096 208.556 226.097 209.601V233.791H212.547C210.371 233.791 208.607 235.554 208.607 237.731C208.607 239.908 210.371 241.672 212.547 241.672H251.263C253.44 241.672 255.204 239.908 255.204 237.731ZM180.904 144.321C180.904 131.861 191.04 121.724 203.5 121.724C215.96 121.724 226.096 131.861 226.096 144.321C226.096 156.78 215.96 166.917 203.5 166.917C191.04 166.917 180.904 156.78 180.904 144.321Z" fill="white" stroke="white" stroke-width="44" mask="url(#path-2-inside-1_9_493)"/>
<mask id="path-3-inside-2_9_493" fill="white">
<path d="M203.5 89.8809C234.906 89.8809 265.033 101.466 288.332 122.5C289.107 123.201 290.129 123.564 291.173 123.511C292.217 123.458 293.197 122.992 293.897 122.217C294.598 121.441 294.961 120.419 294.908 119.375C294.855 118.331 294.389 117.351 293.613 116.651C268.864 94.3062 236.861 82 203.5 82C167.574 82 133.799 95.9906 108.394 121.394C82.9906 146.799 69 180.574 69 216.5C69 249.861 81.3062 281.864 103.651 306.613C104.02 307.023 104.472 307.351 104.976 307.575C105.48 307.799 106.025 307.914 106.577 307.913C107.552 307.914 108.493 307.552 109.216 306.897C109.6 306.55 109.912 306.131 110.134 305.664C110.356 305.197 110.484 304.69 110.511 304.173C110.537 303.656 110.462 303.14 110.288 302.652C110.115 302.164 109.847 301.716 109.5 301.332C88.4652 278.034 76.8809 247.906 76.8809 216.5C76.8809 182.68 90.0519 150.882 113.967 126.967C137.882 103.052 169.68 89.8809 203.5 89.8809ZM306.736 130.288C306.404 129.891 305.998 129.563 305.539 129.323C305.08 129.083 304.579 128.936 304.064 128.89C303.548 128.844 303.029 128.9 302.535 129.055C302.041 129.21 301.583 129.461 301.186 129.793C300.789 130.125 300.461 130.531 300.221 130.99C299.981 131.448 299.834 131.95 299.788 132.465C299.742 132.981 299.798 133.5 299.953 133.994C300.108 134.488 300.358 134.946 300.69 135.343C319.668 158.041 330.119 186.864 330.119 216.5C330.119 250.32 316.949 282.118 293.033 306.033C269.117 329.948 237.32 343.119 203.5 343.119C173.864 343.119 145.042 332.668 122.343 313.69C121.54 313.033 120.51 312.719 119.477 312.817C118.444 312.914 117.491 313.416 116.825 314.212C116.159 315.008 115.835 316.035 115.921 317.069C116.008 318.103 116.5 319.061 117.289 319.736C141.402 339.897 172.02 351 203.5 351C239.426 351 273.201 337.009 298.606 311.606C324.01 286.202 338 252.426 338 216.5C338 185.019 326.897 154.402 306.736 130.288Z"/>
</mask>
<path d="M203.5 89.8809C234.906 89.8809 265.033 101.466 288.332 122.5C289.107 123.201 290.129 123.564 291.173 123.511C292.217 123.458 293.197 122.992 293.897 122.217C294.598 121.441 294.961 120.419 294.908 119.375C294.855 118.331 294.389 117.351 293.613 116.651C268.864 94.3062 236.861 82 203.5 82C167.574 82 133.799 95.9906 108.394 121.394C82.9906 146.799 69 180.574 69 216.5C69 249.861 81.3062 281.864 103.651 306.613C104.02 307.023 104.472 307.351 104.976 307.575C105.48 307.799 106.025 307.914 106.577 307.913C107.552 307.914 108.493 307.552 109.216 306.897C109.6 306.55 109.912 306.131 110.134 305.664C110.356 305.197 110.484 304.69 110.511 304.173C110.537 303.656 110.462 303.14 110.288 302.652C110.115 302.164 109.847 301.716 109.5 301.332C88.4652 278.034 76.8809 247.906 76.8809 216.5C76.8809 182.68 90.0519 150.882 113.967 126.967C137.882 103.052 169.68 89.8809 203.5 89.8809ZM306.736 130.288C306.404 129.891 305.998 129.563 305.539 129.323C305.08 129.083 304.579 128.936 304.064 128.89C303.548 128.844 303.029 128.9 302.535 129.055C302.041 129.21 301.583 129.461 301.186 129.793C300.789 130.125 300.461 130.531 300.221 130.99C299.981 131.448 299.834 131.95 299.788 132.465C299.742 132.981 299.798 133.5 299.953 133.994C300.108 134.488 300.358 134.946 300.69 135.343C319.668 158.041 330.119 186.864 330.119 216.5C330.119 250.32 316.949 282.118 293.033 306.033C269.117 329.948 237.32 343.119 203.5 343.119C173.864 343.119 145.042 332.668 122.343 313.69C121.54 313.033 120.51 312.719 119.477 312.817C118.444 312.914 117.491 313.416 116.825 314.212C116.159 315.008 115.835 316.035 115.921 317.069C116.008 318.103 116.5 319.061 117.289 319.736C141.402 339.897 172.02 351 203.5 351C239.426 351 273.201 337.009 298.606 311.606C324.01 286.202 338 252.426 338 216.5C338 185.019 326.897 154.402 306.736 130.288Z" fill="white"/>
<path d="M288.332 122.5L303.076 106.172L303.074 106.171L288.332 122.5ZM293.613 116.651L308.358 100.323L308.356 100.322L293.613 116.651ZM108.394 121.394L92.8381 105.838L92.8378 105.838L108.394 121.394ZM103.651 306.613L119.997 291.889L119.989 291.88L119.98 291.871L103.651 306.613ZM106.577 307.913L106.604 285.913L106.575 285.913L106.546 285.913L106.577 307.913ZM109.216 306.897L94.4737 290.567L94.4578 290.582L94.4419 290.596L109.216 306.897ZM109.5 301.332L125.83 286.589L125.829 286.589L109.5 301.332ZM306.736 130.288L289.853 144.394L289.858 144.399L306.736 130.288ZM301.186 129.793L315.294 146.674L315.303 146.666L301.186 129.793ZM300.69 135.343L317.569 121.232L317.565 121.228L300.69 135.343ZM122.343 313.69L136.455 296.812L136.365 296.737L136.275 296.663L122.343 313.69ZM117.289 319.736L102.999 336.463L103.088 336.539L103.177 336.613L117.289 319.736ZM203.5 111.881C229.462 111.881 254.336 121.447 273.589 138.83L303.074 106.171C275.731 81.4842 240.35 67.8809 203.5 67.8809V111.881ZM273.587 138.828C278.694 143.439 285.422 145.833 292.293 145.483L290.053 101.54C294.837 101.296 299.521 102.962 303.076 106.172L273.587 138.828ZM292.293 145.483C299.164 145.132 305.615 142.067 310.225 136.961L277.569 107.472C280.779 103.918 285.27 101.783 290.053 101.54L292.293 145.483ZM310.225 136.961C314.836 131.855 317.23 125.126 316.879 118.255L272.936 120.495C272.693 115.712 274.359 111.027 277.569 107.472L310.225 136.961ZM316.879 118.255C316.529 111.384 313.464 104.934 308.358 100.323L278.869 132.979C275.314 129.769 273.18 125.279 272.936 120.495L316.879 118.255ZM308.356 100.322C279.562 74.3248 242.305 60 203.5 60V104C231.417 104 258.166 114.288 278.871 132.98L308.356 100.322ZM203.5 60C161.739 60 122.368 76.3086 92.8381 105.838L123.951 136.951C145.229 115.673 173.409 104 203.5 104V60ZM92.8378 105.838C63.3086 135.368 47 174.739 47 216.5H91C91 186.409 102.673 158.229 123.951 136.951L92.8378 105.838ZM47 216.5C47 255.305 61.3249 292.562 87.3217 321.356L119.98 291.871C101.288 271.166 91 244.417 91 216.5H47ZM87.3052 321.338C89.7408 324.042 92.7182 326.203 96.044 327.68L113.907 287.469C116.225 288.499 118.3 290.005 119.997 291.889L87.3052 321.338ZM96.044 327.68C99.3698 329.158 102.969 329.918 106.608 329.913L106.546 285.913C109.082 285.91 111.59 286.44 113.907 287.469L96.044 327.68ZM106.55 329.913C112.996 329.921 119.214 327.527 123.99 323.198L94.4419 290.596C97.7728 287.577 102.109 285.908 106.604 285.913L106.55 329.913ZM123.958 323.227C126.487 320.944 128.541 318.186 130.004 315.109L90.2649 296.219C91.2831 294.077 92.7132 292.157 94.4737 290.567L123.958 323.227ZM130.004 315.109C131.466 312.032 132.308 308.698 132.482 305.295L88.5395 303.051C88.6604 300.682 89.2468 298.361 90.2649 296.219L130.004 315.109ZM132.482 305.295C132.656 301.893 132.158 298.49 131.016 295.28L89.5599 310.024C88.7652 307.789 88.4185 305.42 88.5395 303.051L132.482 305.295ZM131.016 295.28C129.875 292.071 128.112 289.117 125.83 286.589L93.171 316.075C91.5817 314.314 90.3546 312.258 89.5599 310.024L131.016 295.28ZM125.829 286.589C108.447 267.336 98.8809 242.463 98.8809 216.5H54.8809C54.8809 253.35 68.4835 288.731 93.1711 316.075L125.829 286.589ZM98.8809 216.5C98.8809 188.514 109.734 162.313 129.523 142.523L98.4108 111.411C70.3698 139.452 54.8809 176.845 54.8809 216.5H98.8809ZM129.523 142.523C149.313 122.734 175.514 111.881 203.5 111.881V67.8809C163.845 67.8809 126.452 83.3698 98.4108 111.411L129.523 142.523ZM323.619 116.182C321.434 113.567 318.755 111.408 315.735 109.829L295.343 148.818C293.24 147.718 291.375 146.215 289.853 144.394L323.619 116.182ZM315.735 109.829C312.715 108.249 309.414 107.28 306.02 106.977L302.108 150.803C299.744 150.592 297.445 149.918 295.343 148.818L315.735 109.829ZM306.02 106.977C302.625 106.674 299.205 107.043 295.953 108.063L309.117 150.047C306.853 150.757 304.471 151.014 302.108 150.803L306.02 106.977ZM295.953 108.063C292.701 109.083 289.682 110.733 287.068 112.92L315.303 146.666C313.483 148.188 311.381 149.337 309.117 150.047L295.953 108.063ZM287.078 112.912C284.463 115.097 282.305 117.776 280.726 120.795L319.716 141.185C318.617 143.287 317.114 145.152 315.294 146.674L287.078 112.912ZM280.726 120.795C279.147 123.814 278.178 127.115 277.875 130.509L321.701 134.421C321.49 136.785 320.816 139.083 319.716 141.185L280.726 120.795ZM277.875 130.509C277.572 133.903 277.941 137.324 278.96 140.575L320.946 127.413C321.655 129.676 321.912 132.058 321.701 134.421L277.875 130.509ZM278.96 140.575C279.98 143.826 281.629 146.844 283.816 149.458L317.565 121.228C319.088 123.048 320.236 125.149 320.946 127.413L278.96 140.575ZM283.812 149.454C299.474 168.188 308.119 192.013 308.119 216.5H352.119C352.119 181.714 339.861 147.895 317.569 121.232L283.812 149.454ZM308.119 216.5C308.119 244.486 297.266 270.687 277.477 290.476L308.589 321.589C336.631 293.548 352.119 256.155 352.119 216.5H308.119ZM277.477 290.476C257.686 310.266 231.485 321.119 203.5 321.119V365.119C243.156 365.119 280.548 349.63 308.589 321.589L277.477 290.476ZM203.5 321.119C179.013 321.119 155.188 312.474 136.455 296.812L108.232 330.568C134.896 352.861 168.714 365.119 203.5 365.119V321.119ZM136.275 296.663C130.987 292.337 124.206 290.271 117.405 290.914L121.549 334.719C116.814 335.167 112.093 333.729 108.412 330.717L136.275 296.663ZM117.405 290.914C110.603 291.558 104.33 294.859 99.9472 300.1L133.703 328.324C130.652 331.973 126.285 334.271 121.549 334.719L117.405 290.914ZM99.9472 300.1C95.5648 305.342 93.4272 312.101 93.9985 318.909L137.844 315.229C138.242 319.969 136.754 324.675 133.703 328.324L99.9472 300.1ZM93.9985 318.909C94.5699 325.717 97.8041 332.025 102.999 336.463L131.578 303.008C135.195 306.098 137.447 310.489 137.844 315.229L93.9985 318.909ZM103.177 336.613C131.255 360.09 166.87 373 203.5 373V329C177.17 329 151.549 319.704 131.4 302.858L103.177 336.613ZM203.5 373C245.261 373 284.632 356.691 314.162 327.162L283.049 296.049C261.771 317.327 233.591 329 203.5 329V373ZM314.162 327.162C343.692 297.633 360 258.26 360 216.5H316C316 246.591 304.328 274.771 283.049 296.049L314.162 327.162ZM360 216.5C360 179.869 347.09 144.255 323.614 116.177L289.858 144.399C306.704 164.549 316 190.169 316 216.5H360Z" fill="white" mask="url(#path-3-inside-2_9_493)"/>
</svg>
