<svg width="19" height="12" viewBox="0 0 19 12" fill="none" xmlns="http://www.w3.org/2000/svg">
<path d="M10.2414 10.8593L18.6965 2.40402C18.8922 2.20846 19 1.94741 19 1.66905C19 1.3907 18.8922 1.12964 18.6965 0.934082L18.074 0.311412C17.6683 -0.0937633 17.009 -0.0937633 16.604 0.311412L9.50394 7.41148L2.39599 0.303534C2.20027 0.107975 1.93937 0 1.66117 0C1.38266 0 1.12176 0.107975 0.925894 0.303534L0.303533 0.926204C0.107819 1.12192 -6.3526e-07 1.38282 -6.3526e-07 1.66117C-6.3526e-07 1.93953 0.107819 2.20058 0.303533 2.39614L8.76634 10.8593C8.96267 11.0553 9.22481 11.1629 9.50348 11.1623C9.78322 11.1629 10.0452 11.0553 10.2414 10.8593Z" fill="white"/>
</svg>
