<svg width="136" height="55" viewBox="0 0 136 55" fill="none" xmlns="http://www.w3.org/2000/svg">
<g filter="url(#filter0_d_1_8)">
<rect width="127" height="30" fill="#232323"/>
</g>
<path d="M14.8418 8.78125V23H11.9121L6.19922 13.4688V23H3.26953V8.78125H6.19922L11.9219 18.3223V8.78125H14.8418ZM23.3477 11.2129L19.4805 23H16.3652L21.6484 8.78125H23.6309L23.3477 11.2129ZM26.5605 23L22.6836 11.2129L22.3711 8.78125H24.373L29.6855 23H26.5605ZM26.3848 17.707V20.002H18.875V17.707H26.3848ZM34.1191 8.78125V23H31.1992V8.78125H34.1191ZM36.8633 8.78125H42.166C43.2533 8.78125 44.1875 8.94401 44.9688 9.26953C45.7565 9.59505 46.362 10.0768 46.7852 10.7148C47.2083 11.3529 47.4199 12.1374 47.4199 13.0684C47.4199 13.8301 47.2897 14.4844 47.0293 15.0312C46.7754 15.5716 46.4141 16.0241 45.9453 16.3887C45.4831 16.7467 44.9395 17.0332 44.3145 17.248L43.3867 17.7363H38.7773L38.7578 15.4512H42.1855C42.6999 15.4512 43.1263 15.36 43.4648 15.1777C43.8034 14.9954 44.0573 14.7415 44.2266 14.416C44.4023 14.0905 44.4902 13.7129 44.4902 13.2832C44.4902 12.8275 44.4056 12.4336 44.2363 12.1016C44.0671 11.7695 43.8099 11.5156 43.4648 11.3398C43.1198 11.1641 42.6868 11.0762 42.166 11.0762H39.793V23H36.8633V8.78125ZM44.8125 23L41.5703 16.6621L44.666 16.6426L47.9473 22.8633V23H44.8125ZM52.791 8.78125V23H49.8711V8.78125H52.791ZM63.1426 23V25.1387H54.2754V23H63.1426ZM76.1211 15.5586V16.2324C76.1211 17.3132 75.9746 18.2832 75.6816 19.1426C75.3887 20.002 74.9753 20.7344 74.4414 21.3398C73.9076 21.9388 73.2695 22.3978 72.5273 22.7168C71.7917 23.0358 70.9746 23.1953 70.0762 23.1953C69.1842 23.1953 68.3672 23.0358 67.625 22.7168C66.8893 22.3978 66.2513 21.9388 65.7109 21.3398C65.1706 20.7344 64.7507 20.002 64.4512 19.1426C64.1582 18.2832 64.0117 17.3132 64.0117 16.2324V15.5586C64.0117 14.4714 64.1582 13.5013 64.4512 12.6484C64.7441 11.7891 65.1576 11.0566 65.6914 10.4512C66.2318 9.8457 66.8698 9.38346 67.6055 9.06445C68.3477 8.74544 69.1647 8.58594 70.0566 8.58594C70.9551 8.58594 71.7721 8.74544 72.5078 9.06445C73.25 9.38346 73.888 9.8457 74.4219 10.4512C74.9622 11.0566 75.3789 11.7891 75.6719 12.6484C75.9714 13.5013 76.1211 14.4714 76.1211 15.5586ZM73.1621 16.2324V15.5391C73.1621 14.7839 73.0938 14.1198 72.957 13.5469C72.8203 12.974 72.6185 12.4922 72.3516 12.1016C72.0846 11.7109 71.7591 11.418 71.375 11.2227C70.9909 11.0208 70.5514 10.9199 70.0566 10.9199C69.5618 10.9199 69.1224 11.0208 68.7383 11.2227C68.3607 11.418 68.0384 11.7109 67.7715 12.1016C67.5111 12.4922 67.3125 12.974 67.1758 13.5469C67.0391 14.1198 66.9707 14.7839 66.9707 15.5391V16.2324C66.9707 16.9811 67.0391 17.6452 67.1758 18.2246C67.3125 18.7975 67.5143 19.2826 67.7812 19.6797C68.0482 20.0703 68.3737 20.3665 68.7578 20.5684C69.1419 20.7702 69.5814 20.8711 70.0762 20.8711C70.571 20.8711 71.0104 20.7702 71.3945 20.5684C71.7786 20.3665 72.1009 20.0703 72.3613 19.6797C72.6217 19.2826 72.8203 18.7975 72.957 18.2246C73.0938 17.6452 73.1621 16.9811 73.1621 16.2324ZM89.5 15.5684V21.2031C89.2786 21.4701 88.9368 21.7598 88.4746 22.0723C88.0124 22.3783 87.4167 22.6419 86.6875 22.8633C85.9583 23.0846 85.0762 23.1953 84.041 23.1953C83.123 23.1953 82.2865 23.0456 81.5312 22.7461C80.776 22.4401 80.125 21.9941 79.5781 21.4082C79.0378 20.8223 78.6211 20.1061 78.3281 19.2598C78.0352 18.4069 77.8887 17.4336 77.8887 16.3398V15.4512C77.8887 14.3574 78.0286 13.3841 78.3086 12.5312C78.5951 11.6784 79.002 10.959 79.5293 10.373C80.0566 9.78711 80.6849 9.34115 81.4141 9.03516C82.1432 8.72917 82.9538 8.57617 83.8457 8.57617C85.0827 8.57617 86.0983 8.77799 86.8926 9.18164C87.6868 9.57878 88.2923 10.1322 88.709 10.8418C89.1322 11.5449 89.3926 12.3522 89.4902 13.2637H86.6484C86.5768 12.7819 86.4401 12.362 86.2383 12.0039C86.0365 11.6458 85.7467 11.3659 85.3691 11.1641C84.998 10.9622 84.5163 10.8613 83.9238 10.8613C83.4355 10.8613 82.9993 10.9622 82.6152 11.1641C82.2376 11.3594 81.9186 11.6491 81.6582 12.0332C81.3978 12.4173 81.1992 12.8926 81.0625 13.459C80.9258 14.0254 80.8574 14.6829 80.8574 15.4316V16.3398C80.8574 17.082 80.929 17.7396 81.0723 18.3125C81.2155 18.8789 81.4271 19.3574 81.707 19.748C81.9935 20.1322 82.3451 20.4219 82.7617 20.6172C83.1784 20.8125 83.6634 20.9102 84.2168 20.9102C84.679 20.9102 85.0632 20.8711 85.3691 20.793C85.6816 20.7148 85.9323 20.6204 86.1211 20.5098C86.3164 20.3926 86.4661 20.2819 86.5703 20.1777V17.6582H83.8945V15.5684H89.5ZM97.6445 11.2129L93.7773 23H90.6621L95.9453 8.78125H97.9277L97.6445 11.2129ZM100.857 23L96.9805 11.2129L96.668 8.78125H98.6699L103.982 23H100.857ZM100.682 17.707V20.002H93.1719V17.707H100.682ZM116.873 8.78125V23H113.943L108.23 13.4688V23H105.301V8.78125H108.23L113.953 18.3223V8.78125H116.873Z" fill="white"/>
<g filter="url(#filter1_d_1_8)">
<path d="M8.17187 45V40.8H9.91787C10.3619 40.8 10.7099 40.892 10.9619 41.076C11.2179 41.256 11.3459 41.522 11.3459 41.874C11.3459 42.222 11.2239 42.486 10.9799 42.666C10.7359 42.842 10.4159 42.93 10.0199 42.93L10.1219 42.78C10.5899 42.78 10.9459 42.872 11.1899 43.056C11.4339 43.24 11.5559 43.51 11.5559 43.866C11.5559 44.226 11.4279 44.506 11.1719 44.706C10.9199 44.902 10.5399 45 10.0319 45H8.17187ZM8.60987 44.646H10.0319C10.3879 44.646 10.6579 44.58 10.8419 44.448C11.0259 44.316 11.1179 44.112 11.1179 43.836C11.1179 43.564 11.0259 43.364 10.8419 43.236C10.6579 43.108 10.3879 43.044 10.0319 43.044H8.60987V44.646ZM8.60987 42.702H9.89387C10.2179 42.702 10.4659 42.638 10.6379 42.51C10.8139 42.378 10.9019 42.184 10.9019 41.928C10.9019 41.672 10.8139 41.48 10.6379 41.352C10.4659 41.22 10.2179 41.154 9.89387 41.154H8.60987V42.702ZM13.914 45.03C13.586 45.03 13.298 44.962 13.05 44.826C12.802 44.686 12.608 44.496 12.468 44.256C12.328 44.012 12.258 43.734 12.258 43.422C12.258 43.11 12.324 42.834 12.456 42.594C12.592 42.354 12.776 42.166 13.008 42.03C13.244 41.89 13.508 41.82 13.8 41.82C14.096 41.82 14.358 41.888 14.586 42.024C14.818 42.156 15 42.344 15.132 42.588C15.264 42.828 15.33 43.106 15.33 43.422C15.33 43.442 15.328 43.464 15.324 43.488C15.324 43.508 15.324 43.53 15.324 43.554H12.582V43.236H15.096L14.928 43.362C14.928 43.134 14.878 42.932 14.778 42.756C14.682 42.576 14.55 42.436 14.382 42.336C14.214 42.236 14.02 42.186 13.8 42.186C13.584 42.186 13.39 42.236 13.218 42.336C13.046 42.436 12.912 42.576 12.816 42.756C12.72 42.936 12.672 43.142 12.672 43.374V43.44C12.672 43.68 12.724 43.892 12.828 44.076C12.936 44.256 13.084 44.398 13.272 44.502C13.464 44.602 13.682 44.652 13.926 44.652C14.118 44.652 14.296 44.618 14.46 44.55C14.628 44.482 14.772 44.378 14.892 44.238L15.132 44.514C14.992 44.682 14.816 44.81 14.604 44.898C14.396 44.986 14.166 45.03 13.914 45.03ZM17.689 45.036C17.433 45.036 17.205 44.994 17.005 44.91C16.809 44.826 16.641 44.698 16.501 44.526C16.361 44.354 16.255 44.142 16.183 43.89C16.111 43.634 16.075 43.338 16.075 43.002C16.075 42.702 16.103 42.44 16.159 42.216C16.215 41.988 16.293 41.792 16.393 41.628C16.493 41.464 16.609 41.326 16.741 41.214C16.877 41.098 17.023 41.006 17.179 40.938C17.339 40.866 17.503 40.812 17.671 40.776L19.087 40.446L19.159 40.842L17.827 41.142C17.743 41.162 17.641 41.19 17.521 41.226C17.405 41.262 17.285 41.316 17.161 41.388C17.041 41.46 16.929 41.56 16.825 41.688C16.721 41.816 16.637 41.982 16.573 42.186C16.513 42.386 16.483 42.636 16.483 42.936C16.483 43 16.485 43.052 16.489 43.092C16.493 43.128 16.497 43.168 16.501 43.212C16.509 43.252 16.515 43.312 16.519 43.392L16.333 43.236C16.377 42.992 16.467 42.78 16.603 42.6C16.739 42.416 16.909 42.274 17.113 42.174C17.321 42.07 17.551 42.018 17.803 42.018C18.095 42.018 18.355 42.082 18.583 42.21C18.811 42.334 18.989 42.508 19.117 42.732C19.249 42.956 19.315 43.216 19.315 43.512C19.315 43.804 19.247 44.066 19.111 44.298C18.979 44.53 18.791 44.712 18.547 44.844C18.303 44.972 18.017 45.036 17.689 45.036ZM17.737 44.682C17.961 44.682 18.159 44.632 18.331 44.532C18.503 44.428 18.637 44.288 18.733 44.112C18.833 43.936 18.883 43.738 18.883 43.518C18.883 43.302 18.833 43.11 18.733 42.942C18.637 42.774 18.503 42.642 18.331 42.546C18.159 42.446 17.959 42.396 17.731 42.396C17.507 42.396 17.309 42.444 17.137 42.54C16.965 42.632 16.829 42.762 16.729 42.93C16.633 43.098 16.585 43.292 16.585 43.512C16.585 43.732 16.633 43.93 16.729 44.106C16.829 44.282 16.965 44.422 17.137 44.526C17.313 44.63 17.513 44.682 17.737 44.682ZM20.0407 43.56V43.188H21.6127V43.56H20.0407ZM24.2037 45.03C23.9317 45.03 23.6857 44.968 23.4657 44.844C23.2457 44.716 23.0697 44.534 22.9377 44.298C22.8097 44.058 22.7457 43.766 22.7457 43.422C22.7457 43.078 22.8097 42.788 22.9377 42.552C23.0657 42.312 23.2397 42.13 23.4597 42.006C23.6797 41.882 23.9277 41.82 24.2037 41.82C24.5037 41.82 24.7717 41.888 25.0077 42.024C25.2477 42.156 25.4357 42.344 25.5717 42.588C25.7077 42.828 25.7757 43.106 25.7757 43.422C25.7757 43.742 25.7077 44.022 25.5717 44.262C25.4357 44.502 25.2477 44.69 25.0077 44.826C24.7717 44.962 24.5037 45.03 24.2037 45.03ZM22.5777 46.164V41.85H22.9857V42.798L22.9437 43.428L23.0037 44.064V46.164H22.5777ZM24.1737 44.652C24.3977 44.652 24.5977 44.602 24.7737 44.502C24.9497 44.398 25.0897 44.254 25.1937 44.07C25.2977 43.882 25.3497 43.666 25.3497 43.422C25.3497 43.178 25.2977 42.964 25.1937 42.78C25.0897 42.596 24.9497 42.452 24.7737 42.348C24.5977 42.244 24.3977 42.192 24.1737 42.192C23.9497 42.192 23.7477 42.244 23.5677 42.348C23.3917 42.452 23.2517 42.596 23.1477 42.78C23.0477 42.964 22.9977 43.178 22.9977 43.422C22.9977 43.666 23.0477 43.882 23.1477 44.07C23.2517 44.254 23.3917 44.398 23.5677 44.502C23.7477 44.602 23.9497 44.652 24.1737 44.652ZM28.6294 45V44.304L28.6114 44.19V43.026C28.6114 42.758 28.5354 42.552 28.3834 42.408C28.2354 42.264 28.0134 42.192 27.7174 42.192C27.5134 42.192 27.3194 42.226 27.1354 42.294C26.9514 42.362 26.7954 42.452 26.6674 42.564L26.4754 42.246C26.6354 42.11 26.8274 42.006 27.0514 41.934C27.2754 41.858 27.5114 41.82 27.7594 41.82C28.1674 41.82 28.4814 41.922 28.7014 42.126C28.9254 42.326 29.0374 42.632 29.0374 43.044V45H28.6294ZM27.5434 45.03C27.3074 45.03 27.1014 44.992 26.9254 44.916C26.7534 44.836 26.6214 44.728 26.5294 44.592C26.4374 44.452 26.3914 44.292 26.3914 44.112C26.3914 43.948 26.4294 43.8 26.5054 43.668C26.5854 43.532 26.7134 43.424 26.8894 43.344C27.0694 43.26 27.3094 43.218 27.6094 43.218H28.6954V43.536H27.6214C27.3174 43.536 27.1054 43.59 26.9854 43.698C26.8694 43.806 26.8114 43.94 26.8114 44.1C26.8114 44.28 26.8814 44.424 27.0214 44.532C27.1614 44.64 27.3574 44.694 27.6094 44.694C27.8494 44.694 28.0554 44.64 28.2274 44.532C28.4034 44.42 28.5314 44.26 28.6114 44.052L28.7074 44.346C28.6274 44.554 28.4874 44.72 28.2874 44.844C28.0914 44.968 27.8434 45.03 27.5434 45.03ZM30.953 45.036C31.213 45.036 31.447 44.996 31.655 44.916C31.867 44.836 32.035 44.726 32.159 44.586C32.283 44.442 32.345 44.276 32.345 44.088C32.345 43.848 32.243 43.658 32.039 43.518C31.839 43.378 31.559 43.308 31.199 43.308L31.181 43.422C31.385 43.422 31.567 43.39 31.727 43.326C31.887 43.262 32.015 43.172 32.111 43.056C32.207 42.94 32.255 42.804 32.255 42.648C32.255 42.472 32.195 42.322 32.075 42.198C31.955 42.07 31.793 41.972 31.589 41.904C31.389 41.836 31.163 41.806 30.911 41.814C30.727 41.814 30.543 41.84 30.359 41.892C30.179 41.94 29.997 42.012 29.813 42.108L29.933 42.438C30.097 42.354 30.263 42.292 30.431 42.252C30.599 42.208 30.761 42.184 30.917 42.18C31.089 42.18 31.243 42.2 31.379 42.24C31.515 42.28 31.621 42.34 31.697 42.42C31.777 42.5 31.817 42.596 31.817 42.708C31.817 42.812 31.783 42.902 31.715 42.978C31.651 43.054 31.559 43.112 31.439 43.152C31.319 43.192 31.181 43.212 31.025 43.212H30.515V43.524H31.055C31.319 43.524 31.527 43.572 31.679 43.668C31.831 43.76 31.907 43.89 31.907 44.058C31.907 44.174 31.867 44.278 31.787 44.37C31.707 44.462 31.595 44.534 31.451 44.586C31.307 44.638 31.137 44.666 30.941 44.67C30.745 44.67 30.547 44.642 30.347 44.586C30.147 44.526 29.971 44.44 29.819 44.328L29.681 44.646C29.853 44.778 30.051 44.876 30.275 44.94C30.499 45.004 30.725 45.036 30.953 45.036ZM34.9381 45.03C34.6661 45.03 34.4201 44.968 34.2001 44.844C33.9801 44.716 33.8041 44.534 33.6721 44.298C33.5441 44.058 33.4801 43.766 33.4801 43.422C33.4801 43.078 33.5441 42.788 33.6721 42.552C33.8001 42.312 33.9741 42.13 34.1941 42.006C34.4141 41.882 34.6621 41.82 34.9381 41.82C35.2381 41.82 35.5061 41.888 35.7421 42.024C35.9821 42.156 36.1701 42.344 36.3061 42.588C36.4421 42.828 36.5101 43.106 36.5101 43.422C36.5101 43.742 36.4421 44.022 36.3061 44.262C36.1701 44.502 35.9821 44.69 35.7421 44.826C35.5061 44.962 35.2381 45.03 34.9381 45.03ZM33.3121 46.164V41.85H33.7201V42.798L33.6781 43.428L33.7381 44.064V46.164H33.3121ZM34.9081 44.652C35.1321 44.652 35.3321 44.602 35.5081 44.502C35.6841 44.398 35.8241 44.254 35.9281 44.07C36.0321 43.882 36.0841 43.666 36.0841 43.422C36.0841 43.178 36.0321 42.964 35.9281 42.78C35.8241 42.596 35.6841 42.452 35.5081 42.348C35.3321 42.244 35.1321 42.192 34.9081 42.192C34.6841 42.192 34.4821 42.244 34.3021 42.348C34.1261 42.452 33.9861 42.596 33.8821 42.78C33.7821 42.964 33.7321 43.178 33.7321 43.422C33.7321 43.666 33.7821 43.882 33.8821 44.07C33.9861 44.254 34.1261 44.398 34.3021 44.502C34.4821 44.602 34.6841 44.652 34.9081 44.652ZM39.3638 45V44.304L39.3458 44.19V43.026C39.3458 42.758 39.2698 42.552 39.1178 42.408C38.9698 42.264 38.7478 42.192 38.4518 42.192C38.2478 42.192 38.0538 42.226 37.8698 42.294C37.6858 42.362 37.5298 42.452 37.4018 42.564L37.2098 42.246C37.3698 42.11 37.5618 42.006 37.7858 41.934C38.0098 41.858 38.2458 41.82 38.4938 41.82C38.9018 41.82 39.2158 41.922 39.4358 42.126C39.6598 42.326 39.7718 42.632 39.7718 43.044V45H39.3638ZM38.2778 45.03C38.0418 45.03 37.8358 44.992 37.6598 44.916C37.4878 44.836 37.3558 44.728 37.2638 44.592C37.1718 44.452 37.1258 44.292 37.1258 44.112C37.1258 43.948 37.1638 43.8 37.2398 43.668C37.3198 43.532 37.4478 43.424 37.6238 43.344C37.8038 43.26 38.0438 43.218 38.3438 43.218H39.4298V43.536H38.3558C38.0518 43.536 37.8398 43.59 37.7198 43.698C37.6038 43.806 37.5458 43.94 37.5458 44.1C37.5458 44.28 37.6158 44.424 37.7558 44.532C37.8958 44.64 38.0918 44.694 38.3438 44.694C38.5838 44.694 38.7898 44.64 38.9618 44.532C39.1378 44.42 39.2658 44.26 39.3458 44.052L39.4418 44.346C39.3618 44.554 39.2218 44.72 39.0218 44.844C38.8258 44.968 38.5778 45.03 38.2778 45.03ZM42.3218 45.036C42.0658 45.036 41.8378 44.994 41.6378 44.91C41.4418 44.826 41.2738 44.698 41.1338 44.526C40.9938 44.354 40.8878 44.142 40.8158 43.89C40.7438 43.634 40.7078 43.338 40.7078 43.002C40.7078 42.702 40.7358 42.44 40.7918 42.216C40.8478 41.988 40.9258 41.792 41.0258 41.628C41.1258 41.464 41.2418 41.326 41.3738 41.214C41.5098 41.098 41.6558 41.006 41.8118 40.938C41.9718 40.866 42.1358 40.812 42.3038 40.776L43.7198 40.446L43.7918 40.842L42.4598 41.142C42.3758 41.162 42.2738 41.19 42.1538 41.226C42.0378 41.262 41.9178 41.316 41.7938 41.388C41.6738 41.46 41.5618 41.56 41.4578 41.688C41.3538 41.816 41.2698 41.982 41.2058 42.186C41.1458 42.386 41.1158 42.636 41.1158 42.936C41.1158 43 41.1178 43.052 41.1218 43.092C41.1258 43.128 41.1298 43.168 41.1338 43.212C41.1418 43.252 41.1478 43.312 41.1518 43.392L40.9658 43.236C41.0098 42.992 41.0998 42.78 41.2358 42.6C41.3718 42.416 41.5418 42.274 41.7458 42.174C41.9538 42.07 42.1838 42.018 42.4358 42.018C42.7278 42.018 42.9878 42.082 43.2158 42.21C43.4438 42.334 43.6218 42.508 43.7498 42.732C43.8818 42.956 43.9478 43.216 43.9478 43.512C43.9478 43.804 43.8798 44.066 43.7438 44.298C43.6118 44.53 43.4238 44.712 43.1798 44.844C42.9358 44.972 42.6498 45.036 42.3218 45.036ZM42.3698 44.682C42.5938 44.682 42.7918 44.632 42.9638 44.532C43.1358 44.428 43.2698 44.288 43.3658 44.112C43.4658 43.936 43.5158 43.738 43.5158 43.518C43.5158 43.302 43.4658 43.11 43.3658 42.942C43.2698 42.774 43.1358 42.642 42.9638 42.546C42.7918 42.446 42.5918 42.396 42.3638 42.396C42.1398 42.396 41.9418 42.444 41.7698 42.54C41.5978 42.632 41.4618 42.762 41.3618 42.93C41.2658 43.098 41.2178 43.292 41.2178 43.512C41.2178 43.732 41.2658 43.93 41.3618 44.106C41.4618 44.282 41.5978 44.422 41.7698 44.526C41.9458 44.63 42.1458 44.682 42.3698 44.682ZM46.1569 45.03C45.8529 45.03 45.5789 44.962 45.3349 44.826C45.0949 44.686 44.9049 44.496 44.7649 44.256C44.6249 44.012 44.5549 43.734 44.5549 43.422C44.5549 43.106 44.6249 42.828 44.7649 42.588C44.9049 42.348 45.0949 42.16 45.3349 42.024C45.5749 41.888 45.8489 41.82 46.1569 41.82C46.4689 41.82 46.7449 41.888 46.9849 42.024C47.2289 42.16 47.4189 42.348 47.5549 42.588C47.6949 42.828 47.7649 43.106 47.7649 43.422C47.7649 43.734 47.6949 44.012 47.5549 44.256C47.4189 44.496 47.2289 44.686 46.9849 44.826C46.7409 44.962 46.4649 45.03 46.1569 45.03ZM46.1569 44.652C46.3849 44.652 46.5869 44.602 46.7629 44.502C46.9389 44.398 47.0769 44.254 47.1769 44.07C47.2809 43.882 47.3329 43.666 47.3329 43.422C47.3329 43.174 47.2809 42.958 47.1769 42.774C47.0769 42.59 46.9389 42.448 46.7629 42.348C46.5869 42.244 46.3869 42.192 46.1629 42.192C45.9389 42.192 45.7389 42.244 45.5629 42.348C45.3869 42.448 45.2469 42.59 45.1429 42.774C45.0389 42.958 44.9869 43.174 44.9869 43.422C44.9869 43.666 45.0389 43.882 45.1429 44.07C45.2469 44.254 45.3869 44.398 45.5629 44.502C45.7389 44.602 45.9369 44.652 46.1569 44.652ZM49.1581 45V42.108L49.2661 42.222H47.9641V41.85H50.7781V42.222H49.4761L49.5841 42.108V45H49.1581ZM53.3861 43.668C53.2021 43.748 53.0161 43.812 52.8281 43.86C52.6441 43.904 52.4601 43.926 52.2761 43.926C51.9041 43.926 51.6101 43.842 51.3941 43.674C51.1781 43.502 51.0701 43.238 51.0701 42.882V41.85H51.4901V42.858C51.4901 43.098 51.5681 43.278 51.7241 43.398C51.8801 43.518 52.0901 43.578 52.3541 43.578C52.5141 43.578 52.6821 43.558 52.8581 43.518C53.0341 43.474 53.2121 43.412 53.3921 43.332L53.3861 43.668ZM53.3501 45V41.85H53.7761V45H53.3501ZM54.9859 45V41.85H55.4119V44.352L57.5179 41.85H57.8959V45H57.4699V42.492L55.3699 45H54.9859ZM61.4267 45L60.1307 43.44L60.4847 43.23L61.9307 45H61.4267ZM59.1167 45V41.85H59.5427V45H59.1167ZM59.4107 43.596V43.23H60.4247V43.596H59.4107ZM60.5207 43.47L60.1247 43.41L61.3787 41.85H61.8407L60.5207 43.47ZM66.3334 44.796V42.222H64.8154L64.7794 42.924C64.7714 43.136 64.7574 43.344 64.7374 43.548C64.7214 43.752 64.6914 43.94 64.6474 44.112C64.6074 44.28 64.5494 44.418 64.4734 44.526C64.3974 44.63 64.2994 44.69 64.1794 44.706L63.7534 44.628C63.8774 44.632 63.9794 44.588 64.0594 44.496C64.1394 44.4 64.2014 44.27 64.2454 44.106C64.2894 43.942 64.3214 43.756 64.3414 43.548C64.3614 43.336 64.3774 43.12 64.3894 42.9L64.4314 41.85H66.7594V44.796H66.3334ZM63.6214 45.762V44.628H67.2514V45.762H66.8494V45H64.0234V45.762H63.6214ZM67.5056 44.994L67.5356 44.628C67.5636 44.632 67.5896 44.638 67.6136 44.646C67.6416 44.65 67.6656 44.652 67.6856 44.652C67.8136 44.652 67.9156 44.604 67.9916 44.508C68.0716 44.412 68.1316 44.284 68.1716 44.124C68.2116 43.964 68.2396 43.784 68.2556 43.584C68.2716 43.38 68.2856 43.176 68.2976 42.972L68.3516 41.85H70.6616V45H70.2356V42.096L70.3436 42.222H68.6276L68.7296 42.09L68.6816 43.002C68.6696 43.274 68.6476 43.534 68.6156 43.782C68.5876 44.03 68.5416 44.248 68.4776 44.436C68.4176 44.624 68.3336 44.772 68.2256 44.88C68.1176 44.984 67.9796 45.036 67.8116 45.036C67.7636 45.036 67.7136 45.032 67.6616 45.024C67.6136 45.016 67.5616 45.006 67.5056 44.994ZM73.9066 45V43.866L73.9846 43.956H72.9166C72.5126 43.956 72.1966 43.868 71.9686 43.692C71.7406 43.516 71.6266 43.26 71.6266 42.924C71.6266 42.564 71.7486 42.296 71.9926 42.12C72.2366 41.94 72.5626 41.85 72.9706 41.85H74.2966V45H73.9066ZM71.6026 45L72.4666 43.788H72.9106L72.0646 45H71.6026ZM73.9066 43.74V42.096L73.9846 42.222H72.9826C72.6906 42.222 72.4626 42.278 72.2986 42.39C72.1386 42.502 72.0586 42.684 72.0586 42.936C72.0586 43.404 72.3566 43.638 72.9526 43.638H73.9846L73.9066 43.74ZM77.1836 45V40.8H78.9296C79.3736 40.8 79.7216 40.892 79.9736 41.076C80.2296 41.256 80.3576 41.522 80.3576 41.874C80.3576 42.222 80.2356 42.486 79.9916 42.666C79.7476 42.842 79.4276 42.93 79.0316 42.93L79.1336 42.78C79.6016 42.78 79.9576 42.872 80.2016 43.056C80.4456 43.24 80.5676 43.51 80.5676 43.866C80.5676 44.226 80.4396 44.506 80.1836 44.706C79.9316 44.902 79.5516 45 79.0436 45H77.1836ZM77.6216 44.646H79.0436C79.3996 44.646 79.6696 44.58 79.8536 44.448C80.0376 44.316 80.1296 44.112 80.1296 43.836C80.1296 43.564 80.0376 43.364 79.8536 43.236C79.6696 43.108 79.3996 43.044 79.0436 43.044H77.6216V44.646ZM77.6216 42.702H78.9056C79.2296 42.702 79.4776 42.638 79.6496 42.51C79.8256 42.378 79.9136 42.184 79.9136 41.928C79.9136 41.672 79.8256 41.48 79.6496 41.352C79.4776 41.22 79.2296 41.154 78.9056 41.154H77.6216V42.702ZM83.5317 45V44.304L83.5137 44.19V43.026C83.5137 42.758 83.4377 42.552 83.2857 42.408C83.1377 42.264 82.9157 42.192 82.6197 42.192C82.4157 42.192 82.2217 42.226 82.0377 42.294C81.8537 42.362 81.6977 42.452 81.5697 42.564L81.3777 42.246C81.5377 42.11 81.7297 42.006 81.9537 41.934C82.1777 41.858 82.4137 41.82 82.6617 41.82C83.0697 41.82 83.3837 41.922 83.6037 42.126C83.8277 42.326 83.9397 42.632 83.9397 43.044V45H83.5317ZM82.4457 45.03C82.2097 45.03 82.0037 44.992 81.8277 44.916C81.6557 44.836 81.5237 44.728 81.4317 44.592C81.3397 44.452 81.2937 44.292 81.2937 44.112C81.2937 43.948 81.3317 43.8 81.4077 43.668C81.4877 43.532 81.6157 43.424 81.7917 43.344C81.9717 43.26 82.2117 43.218 82.5117 43.218H83.5977V43.536H82.5237C82.2197 43.536 82.0077 43.59 81.8877 43.698C81.7717 43.806 81.7137 43.94 81.7137 44.1C81.7137 44.28 81.7837 44.424 81.9237 44.532C82.0637 44.64 82.2597 44.694 82.5117 44.694C82.7517 44.694 82.9577 44.64 83.1297 44.532C83.3057 44.42 83.4337 44.26 83.5137 44.052L83.6097 44.346C83.5297 44.554 83.3897 44.72 83.1897 44.844C82.9937 44.968 82.7457 45.03 82.4457 45.03ZM87.1438 44.628L87.0478 44.742V41.85H87.4738V44.742L87.3598 44.628H89.1178L89.0038 44.742V41.85H89.4298V45H85.0738V41.85H85.4998V44.742L85.3918 44.628H87.1438ZM91.9902 45.03C91.6622 45.03 91.3742 44.962 91.1262 44.826C90.8782 44.686 90.6842 44.496 90.5442 44.256C90.4042 44.012 90.3342 43.734 90.3342 43.422C90.3342 43.11 90.4002 42.834 90.5322 42.594C90.6682 42.354 90.8522 42.166 91.0842 42.03C91.3202 41.89 91.5842 41.82 91.8762 41.82C92.1722 41.82 92.4342 41.888 92.6622 42.024C92.8942 42.156 93.0762 42.344 93.2082 42.588C93.3402 42.828 93.4062 43.106 93.4062 43.422C93.4062 43.442 93.4042 43.464 93.4002 43.488C93.4002 43.508 93.4002 43.53 93.4002 43.554H90.6582V43.236H93.1722L93.0042 43.362C93.0042 43.134 92.9542 42.932 92.8542 42.756C92.7582 42.576 92.6262 42.436 92.4582 42.336C92.2902 42.236 92.0962 42.186 91.8762 42.186C91.6602 42.186 91.4662 42.236 91.2942 42.336C91.1222 42.436 90.9882 42.576 90.8922 42.756C90.7962 42.936 90.7482 43.142 90.7482 43.374V43.44C90.7482 43.68 90.8002 43.892 90.9042 44.076C91.0122 44.256 91.1602 44.398 91.3482 44.502C91.5402 44.602 91.7582 44.652 92.0022 44.652C92.1942 44.652 92.3722 44.618 92.5362 44.55C92.7042 44.482 92.8482 44.378 92.9682 44.238L93.2082 44.514C93.0682 44.682 92.8922 44.81 92.6802 44.898C92.4722 44.986 92.2422 45.03 91.9902 45.03ZM94.3492 45V41.85H96.5812V42.222H94.6672L94.7752 42.114V45H94.3492ZM98.3463 45.03C98.0423 45.03 97.7683 44.962 97.5243 44.826C97.2843 44.686 97.0943 44.496 96.9543 44.256C96.8143 44.012 96.7443 43.734 96.7443 43.422C96.7443 43.106 96.8143 42.828 96.9543 42.588C97.0943 42.348 97.2843 42.16 97.5243 42.024C97.7643 41.888 98.0383 41.82 98.3463 41.82C98.6583 41.82 98.9343 41.888 99.1743 42.024C99.4183 42.16 99.6083 42.348 99.7443 42.588C99.8843 42.828 99.9543 43.106 99.9543 43.422C99.9543 43.734 99.8843 44.012 99.7443 44.256C99.6083 44.496 99.4183 44.686 99.1743 44.826C98.9303 44.962 98.6543 45.03 98.3463 45.03ZM98.3463 44.652C98.5743 44.652 98.7763 44.602 98.9523 44.502C99.1283 44.398 99.2663 44.254 99.3663 44.07C99.4703 43.882 99.5223 43.666 99.5223 43.422C99.5223 43.174 99.4703 42.958 99.3663 42.774C99.2663 42.59 99.1283 42.448 98.9523 42.348C98.7763 42.244 98.5763 42.192 98.3523 42.192C98.1283 42.192 97.9283 42.244 97.7523 42.348C97.5763 42.448 97.4363 42.59 97.3323 42.774C97.2283 42.958 97.1763 43.174 97.1763 43.422C97.1763 43.666 97.2283 43.882 97.3323 44.07C97.4363 44.254 97.5763 44.398 97.7523 44.502C97.9283 44.602 98.1263 44.652 98.3463 44.652ZM102.435 45V41.85H105.267V45H104.841V42.108L104.949 42.222H102.753L102.861 42.108V45H102.435ZM108.104 45.03C107.832 45.03 107.586 44.968 107.366 44.844C107.146 44.716 106.97 44.534 106.838 44.298C106.71 44.058 106.646 43.766 106.646 43.422C106.646 43.078 106.71 42.788 106.838 42.552C106.966 42.312 107.14 42.13 107.36 42.006C107.58 41.882 107.828 41.82 108.104 41.82C108.404 41.82 108.672 41.888 108.908 42.024C109.148 42.156 109.336 42.344 109.472 42.588C109.608 42.828 109.676 43.106 109.676 43.422C109.676 43.742 109.608 44.022 109.472 44.262C109.336 44.502 109.148 44.69 108.908 44.826C108.672 44.962 108.404 45.03 108.104 45.03ZM106.478 46.164V41.85H106.886V42.798L106.844 43.428L106.904 44.064V46.164H106.478ZM108.074 44.652C108.298 44.652 108.498 44.602 108.674 44.502C108.85 44.398 108.99 44.254 109.094 44.07C109.198 43.882 109.25 43.666 109.25 43.422C109.25 43.178 109.198 42.964 109.094 42.78C108.99 42.596 108.85 42.452 108.674 42.348C108.498 42.244 108.298 42.192 108.074 42.192C107.85 42.192 107.648 42.244 107.468 42.348C107.292 42.452 107.152 42.596 107.048 42.78C106.948 42.964 106.898 43.178 106.898 43.422C106.898 43.666 106.948 43.882 107.048 44.07C107.152 44.254 107.292 44.398 107.468 44.502C107.648 44.602 107.85 44.652 108.074 44.652ZM111.887 45.03C111.583 45.03 111.309 44.962 111.065 44.826C110.825 44.686 110.635 44.496 110.495 44.256C110.355 44.012 110.285 43.734 110.285 43.422C110.285 43.106 110.355 42.828 110.495 42.588C110.635 42.348 110.825 42.16 111.065 42.024C111.305 41.888 111.579 41.82 111.887 41.82C112.199 41.82 112.475 41.888 112.715 42.024C112.959 42.16 113.149 42.348 113.285 42.588C113.425 42.828 113.495 43.106 113.495 43.422C113.495 43.734 113.425 44.012 113.285 44.256C113.149 44.496 112.959 44.686 112.715 44.826C112.471 44.962 112.195 45.03 111.887 45.03ZM111.887 44.652C112.115 44.652 112.317 44.602 112.493 44.502C112.669 44.398 112.807 44.254 112.907 44.07C113.011 43.882 113.063 43.666 113.063 43.422C113.063 43.174 113.011 42.958 112.907 42.774C112.807 42.59 112.669 42.448 112.493 42.348C112.317 42.244 112.117 42.192 111.893 42.192C111.669 42.192 111.469 42.244 111.293 42.348C111.117 42.448 110.977 42.59 110.873 42.774C110.769 42.958 110.717 43.174 110.717 43.422C110.717 43.666 110.769 43.882 110.873 44.07C110.977 44.254 111.117 44.398 111.293 44.502C111.469 44.602 111.667 44.652 111.887 44.652ZM115.756 45.03C115.428 45.03 115.14 44.962 114.892 44.826C114.644 44.686 114.45 44.496 114.31 44.256C114.17 44.012 114.1 43.734 114.1 43.422C114.1 43.11 114.166 42.834 114.298 42.594C114.434 42.354 114.618 42.166 114.85 42.03C115.086 41.89 115.35 41.82 115.642 41.82C115.938 41.82 116.2 41.888 116.428 42.024C116.66 42.156 116.842 42.344 116.974 42.588C117.106 42.828 117.172 43.106 117.172 43.422C117.172 43.442 117.17 43.464 117.166 43.488C117.166 43.508 117.166 43.53 117.166 43.554H114.424V43.236H116.938L116.77 43.362C116.77 43.134 116.72 42.932 116.62 42.756C116.524 42.576 116.392 42.436 116.224 42.336C116.056 42.236 115.862 42.186 115.642 42.186C115.426 42.186 115.232 42.236 115.06 42.336C114.888 42.436 114.754 42.576 114.658 42.756C114.562 42.936 114.514 43.142 114.514 43.374V43.44C114.514 43.68 114.566 43.892 114.67 44.076C114.778 44.256 114.926 44.398 115.114 44.502C115.306 44.602 115.524 44.652 115.768 44.652C115.96 44.652 116.138 44.618 116.302 44.55C116.47 44.482 116.614 44.378 116.734 44.238L116.974 44.514C116.834 44.682 116.658 44.81 116.446 44.898C116.238 44.986 116.008 45.03 115.756 45.03ZM120.425 45L119.129 43.44L119.483 43.23L120.929 45H120.425ZM118.115 45V41.85H118.541V45H118.115ZM118.409 43.596V43.23H119.423V43.596H118.409ZM119.519 43.47L119.123 43.41L120.377 41.85H120.839L119.519 43.47ZM122.137 45V42.108L122.245 42.222H120.943V41.85H123.757V42.222H122.455L122.563 42.108V45H122.137ZM126.329 45V44.304L126.311 44.19V43.026C126.311 42.758 126.235 42.552 126.083 42.408C125.935 42.264 125.713 42.192 125.417 42.192C125.213 42.192 125.019 42.226 124.835 42.294C124.651 42.362 124.495 42.452 124.367 42.564L124.175 42.246C124.335 42.11 124.527 42.006 124.751 41.934C124.975 41.858 125.211 41.82 125.459 41.82C125.867 41.82 126.181 41.922 126.401 42.126C126.625 42.326 126.737 42.632 126.737 43.044V45H126.329ZM125.243 45.03C125.007 45.03 124.801 44.992 124.625 44.916C124.453 44.836 124.321 44.728 124.229 44.592C124.137 44.452 124.091 44.292 124.091 44.112C124.091 43.948 124.129 43.8 124.205 43.668C124.285 43.532 124.413 43.424 124.589 43.344C124.769 43.26 125.009 43.218 125.309 43.218H126.395V43.536H125.321C125.017 43.536 124.805 43.59 124.685 43.698C124.569 43.806 124.511 43.94 124.511 44.1C124.511 44.28 124.581 44.424 124.721 44.532C124.861 44.64 125.057 44.694 125.309 44.694C125.549 44.694 125.755 44.64 125.927 44.532C126.103 44.42 126.231 44.26 126.311 44.052L126.407 44.346C126.327 44.554 126.187 44.72 125.987 44.844C125.791 44.968 125.543 45.03 125.243 45.03ZM127.901 45.03C127.813 45.03 127.737 44.998 127.673 44.934C127.613 44.87 127.583 44.792 127.583 44.7C127.583 44.604 127.613 44.526 127.673 44.466C127.737 44.406 127.813 44.376 127.901 44.376C127.989 44.376 128.063 44.406 128.123 44.466C128.187 44.526 128.219 44.604 128.219 44.7C128.219 44.792 128.187 44.87 128.123 44.934C128.063 44.998 127.989 45.03 127.901 45.03Z" fill="white"/>
</g>
<defs>
<filter id="filter0_d_1_8" x="0" y="0" width="136" height="34" filterUnits="userSpaceOnUse" color-interpolation-filters="sRGB">
<feFlood flood-opacity="0" result="BackgroundImageFix"/>
<feColorMatrix in="SourceAlpha" type="matrix" values="0 0 0 0 0 0 0 0 0 0 0 0 0 0 0 0 0 0 127 0" result="hardAlpha"/>
<feOffset dx="9" dy="4"/>
<feComposite in2="hardAlpha" operator="out"/>
<feColorMatrix type="matrix" values="0 0 0 0 0.131771 0 0 0 0 0.387406 0 0 0 0 0.6875 0 0 0 1 0"/>
<feBlend mode="normal" in2="BackgroundImageFix" result="effect1_dropShadow_1_8"/>
<feBlend mode="normal" in="SourceGraphic" in2="effect1_dropShadow_1_8" result="shape"/>
</filter>
<filter id="filter1_d_1_8" x="4.17188" y="40.446" width="128.047" height="13.718" filterUnits="userSpaceOnUse" color-interpolation-filters="sRGB">
<feFlood flood-opacity="0" result="BackgroundImageFix"/>
<feColorMatrix in="SourceAlpha" type="matrix" values="0 0 0 0 0 0 0 0 0 0 0 0 0 0 0 0 0 0 127 0" result="hardAlpha"/>
<feOffset dy="4"/>
<feGaussianBlur stdDeviation="2"/>
<feComposite in2="hardAlpha" operator="out"/>
<feColorMatrix type="matrix" values="0 0 0 0 0 0 0 0 0 0 0 0 0 0 0 0 0 0 0.6 0"/>
<feBlend mode="normal" in2="BackgroundImageFix" result="effect1_dropShadow_1_8"/>
<feBlend mode="normal" in="SourceGraphic" in2="effect1_dropShadow_1_8" result="shape"/>
</filter>
</defs>
</svg>
