<svg width="308" height="260" viewBox="0 0 308 260" fill="none" xmlns="http://www.w3.org/2000/svg">
<path d="M81.8125 4.875H283.938C289.043 4.875 293.939 6.90312 297.549 10.5132C301.159 14.1233 303.188 19.0196 303.188 24.125V62.625H81.8125V4.875Z" fill="#0074FF"/>
<path d="M24.0625 4.875H79.5506C83.1269 4.87244 86.6331 5.86616 89.6762 7.74473C92.7194 9.6233 95.179 12.3124 96.7794 15.5106L100.533 23.1144C102.133 26.3126 104.593 29.0017 107.636 30.8803C110.679 32.7588 114.186 33.7526 117.762 33.75H303.188V235.875C303.188 240.98 301.159 245.877 297.549 249.487C293.939 253.097 289.043 255.125 283.938 255.125H24.0625C18.9571 255.125 14.0608 253.097 10.4507 249.487C6.84062 245.877 4.8125 240.98 4.8125 235.875V24.125C4.8125 19.0196 6.84062 14.1233 10.4507 10.5132C14.0608 6.90312 18.9571 4.875 24.0625 4.875Z" fill="#F5F7FF"/>
<path d="M283.938 240.688H24.0625C18.9571 240.688 14.0608 238.659 10.4507 235.049C6.84062 231.439 4.8125 226.543 4.8125 221.438V235.875C4.8125 240.98 6.84062 245.877 10.4507 249.487C14.0608 253.097 18.9571 255.125 24.0625 255.125H283.938C289.043 255.125 293.939 253.097 297.549 249.487C301.159 245.877 303.188 240.98 303.188 235.875V221.438C303.188 226.543 301.159 231.439 297.549 235.049C293.939 238.659 289.043 240.688 283.938 240.688Z" fill="#CCD3EB"/>
<path d="M283.938 0.0625H24.0625C17.6807 0.0625 11.5603 2.59765 7.04774 7.11024C2.53515 11.6228 0 17.7432 0 24.125L0 125.188C0 126.464 0.50703 127.688 1.40955 128.59C2.31207 129.493 3.53615 130 4.8125 130C6.08885 130 7.31293 129.493 8.21545 128.59C9.11797 127.688 9.625 126.464 9.625 125.188V24.125C9.625 20.2959 11.1461 16.6237 13.8536 13.9161C16.5612 11.2086 20.2334 9.6875 24.0625 9.6875H79.5506C82.23 9.69116 84.8555 10.4404 87.1333 11.8512C89.4111 13.2621 91.2513 15.279 92.4481 17.6762L96.25 25.28C98.2503 29.2718 101.322 32.6284 105.121 34.9741C108.92 37.3199 113.297 38.5624 117.762 38.5625H303.188C304.464 38.5625 305.688 38.0555 306.59 37.153C307.493 36.2504 308 35.0264 308 33.75V24.125C308 17.7432 305.465 11.6228 300.952 7.11024C296.44 2.59765 290.319 0.0625 283.938 0.0625ZM104.864 20.9488C103.182 17.0131 101.136 13.243 98.7525 9.6875H283.938C287.767 9.6875 291.439 11.2086 294.146 13.9161C296.854 16.6237 298.375 20.2959 298.375 24.125V28.9375H117.762C115.083 28.9338 112.457 28.1846 110.179 26.7738C107.901 25.3629 106.061 23.346 104.864 20.9488ZM4.8125 158.875C6.08885 158.875 7.31293 158.368 8.21545 157.465C9.11797 156.563 9.625 155.339 9.625 154.062V144.438C9.625 143.161 9.11797 141.937 8.21545 141.035C7.31293 140.132 6.08885 139.625 4.8125 139.625C3.53615 139.625 2.31207 140.132 1.40955 141.035C0.50703 141.937 0 143.161 0 144.438L0 154.062C0 155.339 0.50703 156.563 1.40955 157.465C2.31207 158.368 3.53615 158.875 4.8125 158.875ZM303.188 48.1875C301.911 48.1875 300.687 48.6945 299.785 49.597C298.882 50.4996 298.375 51.7236 298.375 53V235.875C298.375 239.704 296.854 243.376 294.146 246.084C291.439 248.791 287.767 250.312 283.938 250.312H24.0625C20.2334 250.312 16.5612 248.791 13.8536 246.084C11.1461 243.376 9.625 239.704 9.625 235.875V173.312C9.625 172.036 9.11797 170.812 8.21545 169.91C7.31293 169.007 6.08885 168.5 4.8125 168.5C3.53615 168.5 2.31207 169.007 1.40955 169.91C0.50703 170.812 0 172.036 0 173.312L0 235.875C0 242.257 2.53515 248.377 7.04774 252.89C11.5603 257.402 17.6807 259.938 24.0625 259.938H283.938C290.319 259.938 296.44 257.402 300.952 252.89C305.465 248.377 308 242.257 308 235.875V53C308 51.7236 307.493 50.4996 306.59 49.597C305.688 48.6945 304.464 48.1875 303.188 48.1875Z" fill="#033C59"/>
<path d="M77 28.9375C76.0482 28.9375 75.1177 28.6553 74.3263 28.1265C73.5349 27.5976 72.9181 26.846 72.5538 25.9667C72.1896 25.0873 72.0943 24.1197 72.28 23.1861C72.4657 22.2526 72.924 21.3951 73.597 20.7221C74.2701 20.049 75.1276 19.5907 76.0611 19.405C76.9947 19.2193 77.9623 19.3146 78.8417 19.6788C79.721 20.0431 80.4726 20.6599 81.0014 21.4513C81.5303 22.2427 81.8125 23.1732 81.8125 24.125C81.8125 25.4014 81.3055 26.6254 80.403 27.528C79.5004 28.4305 78.2763 28.9375 77 28.9375Z" fill="#96A1C3"/>
<path d="M86.625 72.25H38.5C34.6709 72.25 30.9987 73.7711 28.2911 76.4786C25.5836 79.1862 24.0625 82.8584 24.0625 86.6875V125.188C24.0625 129.017 25.5836 132.689 28.2911 135.396C30.9987 138.104 34.6709 139.625 38.5 139.625H86.625C90.4541 139.625 94.1263 138.104 96.8339 135.396C99.5414 132.689 101.062 129.017 101.062 125.188V86.6875C101.062 82.8584 99.5414 79.1862 96.8339 76.4786C94.1263 73.7711 90.4541 72.25 86.625 72.25ZM52.9375 130H38.5C37.2236 130 35.9996 129.493 35.097 128.59C34.1945 127.688 33.6875 126.464 33.6875 125.188V86.6875C33.6875 85.4111 34.1945 84.1871 35.097 83.2845C35.9996 82.382 37.2236 81.875 38.5 81.875H52.9375V130ZM91.4375 125.188C91.4375 126.464 90.9305 127.688 90.028 128.59C89.1254 129.493 87.9014 130 86.625 130H62.5625V110.75H91.4375V125.188ZM91.4375 101.125H62.5625V81.875H86.625C87.9014 81.875 89.1254 82.382 90.028 83.2845C90.9305 84.1871 91.4375 85.4111 91.4375 86.6875V101.125ZM178.062 72.25H129.938C126.108 72.25 122.436 73.7711 119.729 76.4786C117.021 79.1862 115.5 82.8584 115.5 86.6875V125.188C115.5 129.017 117.021 132.689 119.729 135.396C122.436 138.104 126.108 139.625 129.938 139.625H178.062C181.892 139.625 185.564 138.104 188.271 135.396C190.979 132.689 192.5 129.017 192.5 125.188V86.6875C192.5 82.8584 190.979 79.1862 188.271 76.4786C185.564 73.7711 181.892 72.25 178.062 72.25ZM139.562 130H129.938C128.661 130 127.437 129.493 126.535 128.59C125.632 127.688 125.125 126.464 125.125 125.188V101.125H139.562V130ZM182.875 125.188C182.875 126.464 182.368 127.688 181.465 128.59C180.563 129.493 179.339 130 178.062 130H149.188V101.125H182.875V125.188ZM182.875 91.5H125.125V86.6875C125.125 85.4111 125.632 84.1871 126.535 83.2845C127.437 82.382 128.661 81.875 129.938 81.875H178.062C179.339 81.875 180.563 82.382 181.465 83.2845C182.368 84.1871 182.875 85.4111 182.875 86.6875V91.5ZM269.5 72.25H221.375C217.546 72.25 213.874 73.7711 211.166 76.4786C208.459 79.1862 206.938 82.8584 206.938 86.6875V125.188C206.938 129.017 208.459 132.689 211.166 135.396C213.874 138.104 217.546 139.625 221.375 139.625H269.5C273.329 139.625 277.001 138.104 279.709 135.396C282.416 132.689 283.938 129.017 283.938 125.188V86.6875C283.937 82.8584 282.416 79.1862 279.709 76.4786C277.001 73.7711 273.329 72.25 269.5 72.25ZM216.562 86.6875C216.562 85.4111 217.07 84.1871 217.972 83.2845C218.875 82.382 220.099 81.875 221.375 81.875H231V101.125H216.562V86.6875ZM250.25 130H221.375C220.099 130 218.875 129.493 217.972 128.59C217.07 127.688 216.562 126.464 216.562 125.188V110.75H250.25V130ZM274.312 125.188C274.312 126.464 273.805 127.688 272.903 128.59C272 129.493 270.776 130 269.5 130H259.875V110.75H274.312V125.188ZM274.312 101.125H240.625V81.875H269.5C270.776 81.875 272 82.382 272.903 83.2845C273.805 84.1871 274.312 85.4111 274.312 86.6875V101.125Z" fill="#0074FF"/>
<path d="M48.125 53H28.875C27.5986 53 26.3746 53.507 25.472 54.4095C24.5695 55.3121 24.0625 56.5361 24.0625 57.8125C24.0625 59.0889 24.5695 60.3129 25.472 61.2155C26.3746 62.118 27.5986 62.625 28.875 62.625H48.125C49.4014 62.625 50.6254 62.118 51.528 61.2155C52.4305 60.3129 52.9375 59.0889 52.9375 57.8125C52.9375 56.5361 52.4305 55.3121 51.528 54.4095C50.6254 53.507 49.4014 53 48.125 53ZM139.562 53H120.312C119.036 53 117.812 53.507 116.91 54.4095C116.007 55.3121 115.5 56.5361 115.5 57.8125C115.5 59.0889 116.007 60.3129 116.91 61.2155C117.812 62.118 119.036 62.625 120.312 62.625H139.562C140.839 62.625 142.063 62.118 142.965 61.2155C143.868 60.3129 144.375 59.0889 144.375 57.8125C144.375 56.5361 143.868 55.3121 142.965 54.4095C142.063 53.507 140.839 53 139.562 53ZM231 53H211.75C210.474 53 209.25 53.507 208.347 54.4095C207.445 55.3121 206.938 56.5361 206.938 57.8125C206.938 59.0889 207.445 60.3129 208.347 61.2155C209.25 62.118 210.474 62.625 211.75 62.625H231C232.276 62.625 233.5 62.118 234.403 61.2155C235.305 60.3129 235.812 59.0889 235.812 57.8125C235.812 56.5361 235.305 55.3121 234.403 54.4095C233.5 53.507 232.276 53 231 53ZM96.25 149.25H28.875C27.5986 149.25 26.3746 149.757 25.472 150.66C24.5695 151.562 24.0625 152.786 24.0625 154.062C24.0625 155.339 24.5695 156.563 25.472 157.465C26.3746 158.368 27.5986 158.875 28.875 158.875H96.25C97.5264 158.875 98.7504 158.368 99.653 157.465C100.555 156.563 101.062 155.339 101.062 154.062C101.062 152.786 100.555 151.562 99.653 150.66C98.7504 149.757 97.5264 149.25 96.25 149.25ZM57.75 168.5H28.875C27.5986 168.5 26.3746 169.007 25.472 169.91C24.5695 170.812 24.0625 172.036 24.0625 173.312C24.0625 174.589 24.5695 175.813 25.472 176.715C26.3746 177.618 27.5986 178.125 28.875 178.125H57.75C59.0264 178.125 60.2504 177.618 61.153 176.715C62.0555 175.813 62.5625 174.589 62.5625 173.312C62.5625 172.036 62.0555 170.812 61.153 169.91C60.2504 169.007 59.0264 168.5 57.75 168.5ZM187.688 149.25H120.312C119.036 149.25 117.812 149.757 116.91 150.66C116.007 151.562 115.5 152.786 115.5 154.062C115.5 155.339 116.007 156.563 116.91 157.465C117.812 158.368 119.036 158.875 120.312 158.875H187.688C188.964 158.875 190.188 158.368 191.09 157.465C191.993 156.563 192.5 155.339 192.5 154.062C192.5 152.786 191.993 151.562 191.09 150.66C190.188 149.757 188.964 149.25 187.688 149.25ZM149.188 168.5H120.312C119.036 168.5 117.812 169.007 116.91 169.91C116.007 170.812 115.5 172.036 115.5 173.312C115.5 174.589 116.007 175.813 116.91 176.715C117.812 177.618 119.036 178.125 120.312 178.125H149.188C150.464 178.125 151.688 177.618 152.59 176.715C153.493 175.813 154 174.589 154 173.312C154 172.036 153.493 170.812 152.59 169.91C151.688 169.007 150.464 168.5 149.188 168.5ZM279.125 149.25H211.75C210.474 149.25 209.25 149.757 208.347 150.66C207.445 151.562 206.938 152.786 206.938 154.062C206.938 155.339 207.445 156.563 208.347 157.465C209.25 158.368 210.474 158.875 211.75 158.875H279.125C280.401 158.875 281.625 158.368 282.528 157.465C283.43 156.563 283.938 155.339 283.938 154.062C283.938 152.786 283.43 151.562 282.528 150.66C281.625 149.757 280.401 149.25 279.125 149.25ZM240.625 168.5H211.75C210.474 168.5 209.25 169.007 208.347 169.91C207.445 170.812 206.938 172.036 206.938 173.312C206.938 174.589 207.445 175.813 208.347 176.715C209.25 177.618 210.474 178.125 211.75 178.125H240.625C241.901 178.125 243.125 177.618 244.028 176.715C244.93 175.813 245.438 174.589 245.438 173.312C245.438 172.036 244.93 170.812 244.028 169.91C243.125 169.007 241.901 168.5 240.625 168.5Z" fill="#CCD3EB"/>
<path d="M274.312 197.375H33.6875C28.3718 197.375 24.0625 201.684 24.0625 207V226.25C24.0625 231.566 28.3718 235.875 33.6875 235.875H274.312C279.628 235.875 283.938 231.566 283.938 226.25V207C283.938 201.684 279.628 197.375 274.312 197.375Z" fill="#96A1C3"/>
</svg>
