<svg width="308" height="309" viewBox="0 0 308 309" fill="none" xmlns="http://www.w3.org/2000/svg">
<path d="M307.99 33.0233V275.928C307.99 294.178 293.168 308.999 274.967 308.999H33.0716C14.8219 308.999 0 294.178 0 275.928V33.0233C0 14.7687 14.8219 0 33.0716 0H274.977C293.178 0 308 14.7687 308 33.0233H307.99Z" fill="#DAEEEF"/>
<path d="M307.99 62.4449V33.0233C307.99 14.7687 293.168 0 274.967 0H33.0716C14.8219 0 0 14.7687 0 33.0233V62.4449H307.99Z" fill="#0071BC"/>
<mask id="mask0_56_154" style="mask-type:alpha" maskUnits="userSpaceOnUse" x="16" y="78" width="141" height="147">
<path d="M76.1562 82.9202H42.7563C42.1161 82.9202 41.5021 82.6659 41.0494 82.2132C40.5967 81.7605 40.3424 81.1465 40.3424 80.5063C40.3424 79.866 40.5967 79.252 41.0494 78.7993C41.5021 78.3466 42.1161 78.0923 42.7563 78.0923H76.1514C76.7916 78.0923 77.4056 78.3466 77.8583 78.7993C78.311 79.252 78.5654 79.866 78.5654 80.5063C78.5654 81.1465 78.311 81.7605 77.8583 82.2132C77.4056 82.6659 76.7964 82.9202 76.1562 82.9202ZM29.8126 82.9202H19.3166C18.6763 82.9202 18.0623 82.6659 17.6096 82.2132C17.1569 81.7605 16.9026 81.1465 16.9026 80.5063C16.9026 79.866 17.1569 79.252 17.6096 78.7993C18.0623 78.3466 18.6763 78.0923 19.3166 78.0923H29.8174C30.4576 78.0923 31.0716 78.3466 31.5243 78.7993C31.977 79.252 32.2314 79.866 32.2314 80.5063C32.2314 81.1465 31.977 81.7605 31.5243 82.2132C31.0716 82.6659 30.4528 82.9202 29.8126 82.9202ZM76.1562 101.431H62.6765C62.0363 101.431 61.4223 101.176 60.9696 100.724C60.5169 100.271 60.2625 99.6569 60.2625 99.0167C60.2625 98.3765 60.5169 97.7624 60.9696 97.3097C61.4223 96.857 62.0363 96.6027 62.6765 96.6027H76.1562C76.7964 96.6027 77.4104 96.857 77.8631 97.3097C78.3159 97.7624 78.5702 98.3765 78.5702 99.0167C78.5702 99.6569 78.3159 100.271 77.8631 100.724C77.4104 101.176 76.7964 101.431 76.1562 101.431ZM49.2017 101.426H19.3166C18.6763 101.426 18.0623 101.172 17.6096 100.719C17.1569 100.266 16.9026 99.6521 16.9026 99.0119C16.9026 98.3716 17.1569 97.7576 17.6096 97.3049C18.0623 96.8522 18.6763 96.5979 19.3166 96.5979H49.2017C49.8419 96.5979 50.4559 96.8522 50.9086 97.3049C51.3613 97.7576 51.6157 98.3716 51.6157 99.0119C51.6157 99.6521 51.3613 100.266 50.9086 100.719C50.4559 101.172 49.8419 101.426 49.2017 101.426ZM49.2017 119.936H19.3166C18.6763 119.936 18.0623 119.682 17.6096 119.229C17.1569 118.777 16.9026 118.162 16.9026 117.522C16.9026 116.882 17.1569 116.268 17.6096 115.815C18.0623 115.363 18.6763 115.108 19.3166 115.108H49.2017C49.8419 115.108 50.4559 115.363 50.9086 115.815C51.3613 116.268 51.6157 116.882 51.6157 117.522C51.6157 118.162 51.3613 118.777 50.9086 119.229C50.4559 119.682 49.8419 119.936 49.2017 119.936ZM62.3772 224.771C61.737 224.771 61.123 224.516 60.6702 224.064C60.2175 223.611 59.9632 222.997 59.9632 222.357V205.666C59.967 202.564 61.2013 199.589 63.3952 197.395C65.5891 195.201 68.5635 193.967 71.6662 193.963H151.579V154.504C151.579 153.864 151.833 153.25 152.286 152.798C152.738 152.345 153.352 152.09 153.993 152.09C154.633 152.09 155.247 152.345 155.7 152.798C156.152 153.25 156.407 153.864 156.407 154.504V196.377C156.407 197.018 156.152 197.632 155.7 198.084C155.247 198.537 154.633 198.791 153.993 198.791H71.6662C67.8762 198.791 64.7912 201.881 64.7912 205.666V222.357C64.7912 222.997 64.5368 223.611 64.0841 224.064C63.6314 224.516 63.0174 224.771 62.3772 224.771Z" fill="black"/>
</mask>
<g mask="url(#mask0_56_154)">
<rect x="15" y="74" width="74" height="52" fill="#B39DDD"/>
<rect x="51" y="179" width="101" height="44" fill="black"/>
</g>
<path d="M245.608 224.771C244.968 224.771 244.354 224.516 243.901 224.064C243.448 223.611 243.194 222.997 243.194 222.357V205.667C243.194 201.877 240.109 198.791 236.319 198.791H153.993C153.352 198.791 152.738 198.537 152.286 198.084C151.833 197.632 151.579 197.018 151.579 196.377V154.505C151.579 153.864 151.833 153.25 152.286 152.798C152.738 152.345 153.352 152.091 153.993 152.091C154.633 152.091 155.247 152.345 155.7 152.798C156.152 153.25 156.407 153.864 156.407 154.505V193.964H236.319C239.422 193.967 242.396 195.202 244.59 197.395C246.784 199.589 248.018 202.564 248.022 205.667V222.357C248.022 222.997 247.768 223.611 247.315 224.064C246.862 224.516 246.248 224.771 245.608 224.771Z" fill="black"/>
<path d="M153.993 232.186C153.352 232.186 152.738 231.932 152.286 231.479C151.833 231.027 151.579 230.413 151.579 229.772V196.377C151.579 195.737 151.833 195.123 152.286 194.67C152.738 194.218 153.352 193.963 153.993 193.963C154.633 193.963 155.247 194.218 155.7 194.67C156.152 195.123 156.407 195.737 156.407 196.377V229.772C156.407 230.413 156.152 231.027 155.7 231.479C155.247 231.932 154.633 232.186 153.993 232.186Z" fill="black"/>
<path d="M94.9419 228.739V274.895C94.9419 278.419 92.0789 281.282 88.5594 281.282H36.1904C32.666 281.282 29.8079 278.419 29.8079 274.899V228.739C29.8079 225.215 32.666 222.357 36.1904 222.357H88.5545C92.0789 222.357 94.9419 225.22 94.9419 228.739ZM186.557 228.739V274.895C186.557 278.419 183.694 281.282 180.175 281.282H127.811C124.286 281.282 121.428 278.419 121.428 274.899V228.739C121.428 225.215 124.286 222.357 127.811 222.357H180.175C183.699 222.357 186.557 225.22 186.557 228.739ZM278.173 228.739V274.895C278.173 278.419 275.315 281.282 271.79 281.282H219.426C215.902 281.282 213.044 278.419 213.044 274.899V228.739C213.044 225.215 215.907 222.357 219.426 222.357H271.79C275.315 222.357 278.173 225.22 278.173 228.739ZM195.996 102.589V159.849C195.995 163.142 194.686 166.3 192.358 168.628C190.029 170.957 186.871 172.265 183.579 172.267H124.402C121.109 172.267 117.95 170.958 115.622 168.63C113.293 166.301 111.985 163.142 111.985 159.849V102.589C111.984 100.958 112.305 99.343 112.928 97.8359C113.552 96.3288 114.467 94.9593 115.62 93.8057C116.773 92.6521 118.142 91.737 119.649 91.1127C121.156 90.4883 122.771 90.167 124.402 90.167H183.579C186.873 90.167 190.033 91.4758 192.362 93.8054C194.692 96.1351 195.996 99.2947 195.996 102.589Z" fill="#2074EF"/>
<path d="M177.529 112.709H130.456C129.816 112.709 129.202 112.454 128.749 112.002C128.297 111.549 128.042 110.935 128.042 110.295C128.042 109.655 128.297 109.041 128.749 108.588C129.202 108.135 129.816 107.881 130.456 107.881H177.529C178.169 107.881 178.783 108.135 179.236 108.588C179.689 109.041 179.943 109.655 179.943 110.295C179.943 110.935 179.689 111.549 179.236 112.002C178.783 112.454 178.169 112.709 177.529 112.709ZM177.529 133.628H130.456C129.816 133.628 129.202 133.374 128.749 132.921C128.297 132.469 128.042 131.855 128.042 131.214C128.042 130.574 128.297 129.96 128.749 129.507C129.202 129.055 129.816 128.8 130.456 128.8H177.529C178.169 128.8 178.783 129.055 179.236 129.507C179.689 129.96 179.943 130.574 179.943 131.214C179.943 131.855 179.689 132.469 179.236 132.921C178.783 133.374 178.169 133.628 177.529 133.628ZM177.529 154.553H130.456C129.816 154.553 129.202 154.298 128.749 153.846C128.297 153.393 128.042 152.779 128.042 152.139C128.042 151.499 128.297 150.885 128.749 150.432C129.202 149.979 129.816 149.725 130.456 149.725H177.529C178.169 149.725 178.783 149.979 179.236 150.432C179.689 150.885 179.943 151.499 179.943 152.139C179.943 152.779 179.689 153.393 179.236 153.846C178.783 154.298 178.169 154.553 177.529 154.553ZM79.4828 239.023H45.267C44.6268 239.023 44.0128 238.769 43.5601 238.316C43.1074 237.863 42.853 237.249 42.853 236.609C42.853 235.969 43.1074 235.355 43.5601 234.902C44.0128 234.449 44.6268 234.195 45.267 234.195H79.4828C80.123 234.195 80.737 234.449 81.1897 234.902C81.6424 235.355 81.8968 235.969 81.8968 236.609C81.8968 237.249 81.6424 237.863 81.1897 238.316C80.737 238.769 80.123 239.023 79.4828 239.023ZM79.4828 254.231H45.267C44.6268 254.231 44.0128 253.977 43.5601 253.524C43.1074 253.071 42.853 252.457 42.853 251.817C42.853 251.177 43.1074 250.563 43.5601 250.11C44.0128 249.657 44.6268 249.403 45.267 249.403H79.4828C80.123 249.403 80.737 249.657 81.1897 250.11C81.6424 250.563 81.8968 251.177 81.8968 251.817C81.8968 252.457 81.6424 253.071 81.1897 253.524C80.737 253.977 80.123 254.231 79.4828 254.231ZM79.4828 269.439H45.267C44.6268 269.439 44.0128 269.185 43.5601 268.732C43.1074 268.279 42.853 267.665 42.853 267.025C42.853 266.385 43.1074 265.771 43.5601 265.318C44.0128 264.865 44.6268 264.611 45.267 264.611H79.4828C80.123 264.611 80.737 264.865 81.1897 265.318C81.6424 265.771 81.8968 266.385 81.8968 267.025C81.8968 267.665 81.6424 268.279 81.1897 268.732C80.737 269.185 80.123 269.439 79.4828 269.439ZM171.098 239.023H136.882C136.242 239.023 135.628 238.769 135.176 238.316C134.723 237.863 134.468 237.249 134.468 236.609C134.468 235.969 134.723 235.355 135.176 234.902C135.628 234.449 136.242 234.195 136.882 234.195H171.098C171.738 234.195 172.352 234.449 172.805 234.902C173.258 235.355 173.512 235.969 173.512 236.609C173.512 237.249 173.258 237.863 172.805 238.316C172.352 238.769 171.738 239.023 171.098 239.023ZM171.098 254.231H136.882C136.242 254.231 135.628 253.977 135.176 253.524C134.723 253.071 134.468 252.457 134.468 251.817C134.468 251.177 134.723 250.563 135.176 250.11C135.628 249.657 136.242 249.403 136.882 249.403H171.098C171.738 249.403 172.352 249.657 172.805 250.11C173.258 250.563 173.512 251.177 173.512 251.817C173.512 252.457 173.258 253.071 172.805 253.524C172.352 253.977 171.738 254.231 171.098 254.231ZM171.098 269.439H136.882C136.242 269.439 135.628 269.185 135.176 268.732C134.723 268.279 134.468 267.665 134.468 267.025C134.468 266.385 134.723 265.771 135.176 265.318C135.628 264.865 136.242 264.611 136.882 264.611H171.098C171.738 264.611 172.352 264.865 172.805 265.318C173.258 265.771 173.512 266.385 173.512 267.025C173.512 267.665 173.258 268.279 172.805 268.732C172.352 269.185 171.738 269.439 171.098 269.439ZM262.719 239.023H228.503C227.863 239.023 227.248 238.769 226.796 238.316C226.343 237.863 226.089 237.249 226.089 236.609C226.089 235.969 226.343 235.355 226.796 234.902C227.248 234.449 227.863 234.195 228.503 234.195H262.719C263.359 234.195 263.973 234.449 264.425 234.902C264.878 235.355 265.133 235.969 265.133 236.609C265.133 237.249 264.878 237.863 264.425 238.316C263.973 238.769 263.359 239.023 262.719 239.023ZM262.719 254.231H228.503C227.863 254.231 227.248 253.977 226.796 253.524C226.343 253.071 226.089 252.457 226.089 251.817C226.089 251.177 226.343 250.563 226.796 250.11C227.248 249.657 227.863 249.403 228.503 249.403H262.719C263.359 249.403 263.973 249.657 264.425 250.11C264.878 250.563 265.133 251.177 265.133 251.817C265.133 252.457 264.878 253.071 264.425 253.524C263.973 253.977 263.359 254.231 262.719 254.231ZM262.719 269.439H228.503C227.863 269.439 227.248 269.185 226.796 268.732C226.343 268.279 226.089 267.665 226.089 267.025C226.089 266.385 226.343 265.771 226.796 265.318C227.248 264.865 227.863 264.611 228.503 264.611H262.719C263.359 264.611 263.973 264.865 264.425 265.318C264.878 265.771 265.133 266.385 265.133 267.025C265.133 267.665 264.878 268.279 264.425 268.732C263.973 269.185 263.359 269.439 262.719 269.439Z" fill="white"/>
<path d="M53.6207 26.5517H48.3103C46.902 26.5517 45.5512 25.9922 44.5554 24.9964C43.5595 24.0005 43 22.6498 43 21.2414C43 19.833 43.5595 18.4823 44.5554 17.4864C45.5512 16.4905 46.902 15.931 48.3103 15.931H53.6207C55.0291 15.931 56.3798 16.4905 57.3757 17.4864C58.3716 18.4823 58.931 19.833 58.931 21.2414C58.931 22.6498 58.3716 24.0005 57.3757 24.9964C56.3798 25.9922 55.0291 26.5517 53.6207 26.5517Z" fill="#FF4D4D"/>
<path d="M80.1724 26.5517H74.8621C73.4537 26.5517 72.103 25.9922 71.1071 24.9964C70.1112 24.0005 69.5518 22.6498 69.5518 21.2414C69.5518 19.833 70.1112 18.4823 71.1071 17.4864C72.103 16.4905 73.4537 15.931 74.8621 15.931H80.1724C81.5808 15.931 82.9315 16.4905 83.9274 17.4864C84.9233 18.4823 85.4828 19.833 85.4828 21.2414C85.4828 22.6498 84.9233 24.0005 83.9274 24.9964C82.9315 25.9922 81.5808 26.5517 80.1724 26.5517Z" fill="#F7BB26"/>
<path d="M106.724 26.5517H101.414C100.005 26.5517 98.6548 25.9922 97.6589 24.9964C96.663 24.0005 96.1035 22.6498 96.1035 21.2414C96.1035 19.833 96.663 18.4823 97.6589 17.4864C98.6548 16.4905 100.005 15.931 101.414 15.931H106.724C108.133 15.931 109.483 16.4905 110.479 17.4864C111.475 18.4823 112.035 19.833 112.035 21.2414C112.035 22.6498 111.475 24.0005 110.479 24.9964C109.483 25.9922 108.133 26.5517 106.724 26.5517Z" fill="#25E572"/>
<path d="M255.414 26.5517H159.827C158.419 26.5517 157.068 25.9922 156.072 24.9964C155.077 24.0005 154.517 22.6498 154.517 21.2414C154.517 19.833 155.077 18.4823 156.072 17.4864C157.068 16.4905 158.419 15.931 159.827 15.931H255.414C256.822 15.931 258.173 16.4905 259.169 17.4864C260.164 18.4823 260.724 19.833 260.724 21.2414C260.724 22.6498 260.164 24.0005 259.169 24.9964C258.173 25.9922 256.822 26.5517 255.414 26.5517Z" fill="#419DDB"/>
<path d="M24.0001 48H289.998C293.864 48 296.998 51.1342 296.998 55.0001C296.998 58.866 293.864 62.0003 289.998 62.0003H24.0001C20.1342 62.0003 17 58.866 17 55.0001C17 51.1342 20.1342 48 24.0001 48Z" fill="#00439D"/>
</svg>
