<svg width="308" height="303" viewBox="0 0 308 303" fill="none" xmlns="http://www.w3.org/2000/svg">
<path d="M306.947 138.409L233.871 265.043C233.184 266.236 232.193 267.227 231 267.916C229.807 268.605 228.453 268.966 227.076 268.965H80.9197C79.5428 268.966 78.1901 268.604 76.9977 267.915C75.8054 267.226 74.8156 266.236 74.1281 265.043L68.3152 254.964C79.1853 253.631 89.9134 251.322 100.369 248.065H217.77C218.865 248.065 219.878 247.48 220.426 246.528L284.2 136.017C284.469 135.55 284.611 135.022 284.611 134.483C284.611 133.945 284.469 133.417 284.2 132.95L224.804 30.0314C222.399 19.755 219.106 9.70682 214.962 0.000244141L227.077 0.000244141C229.882 0.000244141 232.469 1.49934 233.872 3.92905L306.947 130.563C307.636 131.756 307.999 133.109 307.999 134.486C307.999 135.864 307.636 137.216 306.947 138.409Z" fill="#5B5C6C"/>
<path d="M229.656 72.2118C229.656 154.827 175.275 224.74 100.369 248.065C89.9131 251.321 79.1848 253.631 68.3146 254.964L1.05266 138.409C0.363399 137.217 0.000488281 135.864 0.000488281 134.487C0.000488281 133.11 0.363399 131.757 1.05266 130.565L74.1287 3.92905C74.8162 2.73571 75.8057 1.74439 76.9978 1.05473C78.1899 0.365078 79.5425 0.00139478 80.9197 0.000244141L214.962 0.000244141C219.106 9.70694 222.399 19.7551 224.804 30.0314C227.976 43.5786 229.656 57.6991 229.656 72.2118Z" fill="#707384"/>
<path d="M284.201 136.016L220.425 246.528C220.156 246.995 219.77 247.383 219.303 247.653C218.837 247.923 218.308 248.065 217.77 248.065H100.369C175.275 224.74 229.655 154.827 229.655 72.2111C229.655 57.6984 227.975 43.578 224.802 30.0314L284.2 132.95C284.468 133.416 284.61 133.945 284.61 134.483C284.61 135.022 284.468 135.55 284.2 136.016H284.201Z" fill="#464655"/>
<path d="M229.656 72.2119C229.656 154.827 175.275 224.74 100.369 248.065H90.2247C89.6861 248.065 89.157 247.922 88.6908 247.653C88.2246 247.383 87.8378 246.995 87.5694 246.528L23.8014 136.017C23.5324 135.551 23.3909 135.022 23.3909 134.484C23.3909 133.946 23.5324 133.417 23.8014 132.951L87.5694 22.444C87.8382 21.9774 88.2251 21.5898 88.6912 21.3201C89.1573 21.0504 89.6862 20.9081 90.2247 20.9076H217.77C218.865 20.9076 219.878 21.4929 220.426 22.4446L224.803 30.0321C227.976 43.5793 229.656 57.6992 229.656 72.2119Z" fill="#5B5C6C"/>
<path d="M240.639 302.988H67.3585C61.1991 302.988 56.2056 297.995 56.2056 291.835V224.834C56.2056 218.675 61.1991 213.681 67.3585 213.681H240.639C246.8 213.681 251.793 218.675 251.793 224.834V291.833C251.793 297.994 246.8 302.988 240.639 302.988Z" fill="#C3B4FA"/>
<path d="M240.641 213.681H222.803C228.962 213.681 233.953 218.675 233.953 224.836V291.83C233.953 297.991 228.962 302.987 222.803 302.987H240.641C246.8 302.987 251.794 297.991 251.794 291.83V224.839C251.794 218.675 246.8 213.682 240.641 213.682V213.681Z" fill="#A09BFF"/>
<path d="M77.3523 281.837V235.984C77.3523 235.232 77.6344 234.572 78.1981 234.008C78.7648 233.444 79.4692 233.162 80.3156 233.162H94.2761C105.417 233.162 110.988 238.075 110.988 247.905C110.988 251.763 110.154 254.867 108.486 257.217C106.817 259.569 104.571 261.167 101.751 262.016L110.988 279.158C111.223 279.439 111.341 279.815 111.341 280.286C111.341 281.463 110.729 282.556 109.508 283.566C108.283 284.577 106.991 285.082 105.628 285.082C104.264 285.082 103.207 284.353 102.455 282.897L92.4431 263.425H86.5189V281.837C86.5189 282.732 86.0726 283.437 85.1798 283.954C84.2865 284.473 83.2055 284.729 81.9368 284.729C80.7126 284.729 79.6455 284.473 78.7269 283.954C77.8125 283.437 77.3523 282.732 77.3523 281.836V281.837ZM86.5189 256.23H94.2761C99.3069 256.23 101.821 253.737 101.821 248.751C101.821 243.72 99.3069 241.203 94.2761 241.203H86.5189V256.23ZM114.724 270.903V264.906C114.724 261.052 116.228 257.734 119.238 254.959C122.246 252.186 125.889 250.797 130.168 250.797C134.162 250.797 137.581 252.062 140.427 254.59C143.27 257.117 144.692 260.293 144.692 264.121C144.692 265.519 144.516 266.671 144.163 267.578C143.811 268.487 143.27 269.126 142.542 269.5C141.813 269.873 141.141 270.106 140.533 270.2C139.922 270.292 139.123 270.338 138.136 270.338H123.821V271.398C123.821 273.42 124.573 275.055 126.076 276.301C127.58 277.546 129.58 278.168 132.071 278.168C133.857 278.168 135.619 277.722 137.358 276.829C139.097 275.936 140.225 275.49 140.744 275.49C141.731 275.49 142.554 275.948 143.211 276.864C143.869 277.781 144.199 278.662 144.199 279.51C144.199 280.826 143.012 282.133 140.638 283.425C138.262 284.72 135.314 285.364 131.789 285.364C126.758 285.364 122.658 284.036 119.485 281.378C116.311 278.723 114.724 275.231 114.724 270.903ZM123.821 264.976H134.115C134.867 264.976 135.396 264.856 135.703 264.615C136.007 264.373 136.162 263.9 136.162 263.197C136.162 261.661 135.563 260.408 134.364 259.442C133.165 258.476 131.695 257.993 129.956 257.993C128.311 257.993 126.878 258.468 125.656 259.41C124.432 260.354 123.821 261.595 123.821 263.132V264.976ZM148.148 275.692C148.148 271.989 149.558 269.385 152.379 267.874C155.198 266.368 159.263 265.613 164.576 265.613H167.469V264.669C167.469 262.88 166.962 261.32 165.951 259.99C164.94 258.658 163.378 257.993 161.263 257.993C159.148 257.993 157.337 258.394 155.833 259.193C154.329 259.992 153.46 260.392 153.224 260.392C152.284 260.392 151.532 259.922 150.969 258.98C150.404 258.039 150.123 257.005 150.123 255.877C150.123 254.512 151.33 253.326 153.753 252.313C156.173 251.303 158.723 250.797 161.404 250.797C166.527 250.797 170.333 252.104 172.827 254.712C175.317 257.323 176.563 260.603 176.563 264.554V281.837C176.563 282.638 176.14 283.32 175.294 283.883C174.447 284.447 173.391 284.729 172.119 284.729C170.945 284.729 169.969 284.428 169.194 283.825C168.418 283.221 168.031 282.492 168.031 281.639V279.452C164.788 283.395 161.214 285.366 157.313 285.366C154.634 285.366 152.435 284.541 150.719 282.894C149.004 281.244 148.148 278.845 148.148 275.692ZM157.243 274.555C157.243 275.762 157.583 276.664 158.265 277.266C158.946 277.87 159.853 278.168 160.981 278.168C162.485 278.168 163.942 277.501 165.352 276.162C166.762 274.825 167.469 273.351 167.469 271.744V270.339H166.409C163.542 270.339 161.299 270.618 159.677 271.175C158.053 271.735 157.243 272.86 157.243 274.554V274.555ZM182.205 270.903V265.261C182.205 260.932 183.475 257.44 186.012 254.783C188.55 252.127 192.358 250.797 197.434 250.797C200.631 250.797 203.312 251.362 205.473 252.492C207.635 253.62 208.716 254.888 208.716 256.301C208.716 257.288 208.364 258.274 207.659 259.261C206.954 260.251 206.108 260.744 205.121 260.744C204.839 260.744 204.005 260.427 202.618 259.792C201.232 259.156 199.737 258.841 198.139 258.841C193.581 258.841 191.301 260.987 191.301 265.279V270.882C191.301 275.177 193.604 277.323 198.21 277.323C199.808 277.323 201.288 276.982 202.654 276.3C204.017 275.619 204.885 275.276 205.262 275.276C206.39 275.276 207.318 275.748 208.049 276.688C208.777 277.628 209.141 278.591 209.141 279.581C209.141 281.038 208 282.368 205.72 283.566C203.44 284.764 200.703 285.364 197.505 285.364C192.382 285.364 188.552 284.048 186.012 281.414C183.474 278.782 182.205 275.278 182.205 270.903ZM213.865 273.436V239.619C213.865 238.83 214.332 238.167 215.274 237.631C216.212 237.098 217.249 236.83 218.377 236.83C219.598 236.83 220.667 237.091 221.584 237.61C222.5 238.131 222.959 238.776 222.959 239.544V251.22H231.28C231.985 251.22 232.549 251.58 232.971 252.294C233.393 253.008 233.606 253.85 233.606 254.818C233.606 255.788 233.394 256.629 232.971 257.344C232.548 258.059 231.985 258.415 231.28 258.415H222.959V273.128C222.959 274.425 223.252 275.344 223.842 275.882C224.427 276.42 225.452 276.688 226.909 276.688H229.658C230.88 276.688 231.832 277.081 232.515 277.868C233.195 278.655 233.535 279.59 233.535 280.673C233.535 281.804 233.194 282.763 232.516 283.549C231.832 284.337 230.879 284.729 229.658 284.729H226.909C218.212 284.729 213.865 280.965 213.865 273.436Z" fill="#8080E5"/>
<path d="M164.167 120.263C164.167 114.647 159.613 110.091 154 110.091C148.383 110.091 143.832 114.647 143.832 120.263C143.832 125.882 148.383 130.436 154 130.436C159.613 130.436 164.167 125.882 164.167 120.263Z" fill="#A0DCF0"/>
<path d="M183.263 190.277C175.903 190.277 167.297 186.729 158.145 179.787C145.695 170.351 133.286 155.53 123.203 138.054C113.117 120.579 106.493 102.414 104.547 86.9091C102.428 70.0112 106.152 57.877 115.037 52.7451C123.919 47.6126 136.284 50.4538 149.852 60.7393C162.302 70.1784 174.712 84.9991 184.794 102.475C194.88 119.95 201.505 138.113 203.45 153.617C205.572 170.517 201.845 182.652 192.963 187.781C190.072 189.453 186.811 190.277 183.263 190.277ZM124.822 59.6841C122.9 59.6841 121.196 60.0932 119.755 60.9246C114.447 63.9889 112.318 73.031 113.911 85.7348C115.704 100.017 121.906 116.922 131.376 133.33C140.845 149.742 152.379 163.566 163.846 172.261C174.044 179.992 182.936 182.668 188.242 179.604C193.55 176.538 195.679 167.496 194.086 154.794C192.293 140.509 186.091 123.607 176.622 107.196C167.152 90.7867 155.621 76.9604 144.152 68.2654C136.721 62.633 129.985 59.6841 124.822 59.6841Z" fill="#54A1FF"/>
<path d="M124.735 190.277C121.186 190.277 117.927 189.453 115.036 187.781C106.151 182.652 102.428 170.517 104.547 153.617C106.492 138.113 113.117 119.95 123.203 102.475C133.285 84.9991 145.695 70.1784 158.145 60.7387C171.713 50.4544 184.078 47.6132 192.963 52.7451C201.845 57.8764 205.572 70.0118 203.45 86.9096C201.504 102.414 194.88 120.578 184.794 138.054C174.711 155.527 162.302 170.351 149.852 179.787C140.7 186.726 132.094 190.277 124.735 190.277ZM183.175 59.6841C178.013 59.6841 171.278 62.633 163.845 68.2654C152.378 76.9604 140.845 90.7867 131.378 107.196C121.907 123.607 115.704 140.51 113.913 154.794C112.318 167.496 114.449 176.538 119.755 179.604C125.063 182.671 133.956 179.992 144.154 172.261C155.621 163.566 167.152 149.742 176.621 133.331C186.092 116.922 192.293 100.019 194.086 85.7348C195.679 73.031 193.551 63.9889 188.242 60.9245C186.804 60.0932 185.097 59.6841 183.175 59.6841Z" fill="#54A1FF"/>
<path d="M154 155.843C133.831 155.843 114.795 152.501 100.402 146.434C84.7118 139.821 76.0715 130.527 76.0715 120.263C76.0715 109.999 84.7118 100.708 100.402 94.0929C114.795 88.028 133.831 84.6863 154 84.6863C174.169 84.6863 193.202 88.028 207.598 94.0929C223.285 100.708 231.926 109.999 231.926 120.263C231.926 130.528 223.285 139.821 207.598 146.434C193.202 152.501 174.169 155.843 154 155.843ZM154 94.1308C113.639 94.1308 85.5106 107.903 85.5106 120.263C85.5106 132.625 113.639 146.398 154 146.398C194.359 146.398 222.486 132.626 222.486 120.263C222.486 107.903 194.359 94.1308 154 94.1308Z" fill="#54A1FF"/>
</svg>
