<svg width="308" height="308" viewBox="0 0 308 308" fill="none" xmlns="http://www.w3.org/2000/svg">
<path d="M308 196.483V281.448C308 288.49 305.203 295.244 300.223 300.223C295.244 305.203 288.49 308 281.448 308H26.5517C23.0649 308 19.6122 307.313 16.3908 305.979C13.1694 304.644 10.2424 302.689 7.77682 300.223C2.79741 295.244 0 288.49 0 281.448V42.4827L5.31034 37.1724H122.138L308 196.483Z" fill="#DAEEEF"/>
<path d="M308 42.4827V196.483H175.188C173.647 196.485 172.141 196.019 170.871 195.146C169.6 194.274 168.624 193.036 168.072 191.597L123.943 73.8668C122.762 70.6703 122.151 67.2912 122.138 63.8834V37.1724H302.69L308 42.4827Z" fill="#2074EF"/>
<path d="M308 26.5517V42.4828H0V26.5517C0 19.5098 2.79741 12.7562 7.77682 7.77682C12.7562 2.79741 19.5098 0 26.5517 0H281.448C284.935 0 288.388 0.686781 291.609 2.02113C294.831 3.35548 297.758 5.31126 300.223 7.77682C302.689 10.2424 304.644 13.1694 305.979 16.3908C307.313 19.6122 308 23.0649 308 26.5517Z" fill="#0071BC"/>
<path d="M265.517 63.7241H212.414C203.615 63.7241 196.483 70.8567 196.483 79.6552V196.483C196.483 205.281 203.615 212.414 212.414 212.414H265.517C274.316 212.414 281.448 205.281 281.448 196.483V79.6552C281.448 70.8567 274.316 63.7241 265.517 63.7241Z" fill="#2A2A49"/>
<path d="M260.207 63.7241V74.3448C260.207 77.1616 259.088 79.863 257.096 81.8548C255.104 83.8465 252.403 84.9655 249.586 84.9655H228.345C225.528 84.9655 222.827 83.8465 220.835 81.8548C218.843 79.863 217.724 77.1616 217.724 74.3448V63.7241H260.207Z" fill="#B39DDD"/>
<path d="M63.7242 265.517C72.5227 265.517 79.6553 258.385 79.6553 249.586C79.6553 240.788 72.5227 233.655 63.7242 233.655C54.9258 233.655 47.7932 240.788 47.7932 249.586C47.7932 258.385 54.9258 265.517 63.7242 265.517Z" fill="#2074EF"/>
<path d="M154 265.517C162.798 265.517 169.931 258.385 169.931 249.586C169.931 240.788 162.798 233.655 154 233.655C145.201 233.655 138.069 240.788 138.069 249.586C138.069 258.385 145.201 265.517 154 265.517Z" fill="#2074EF"/>
<path d="M244.276 265.517C253.074 265.517 260.207 258.385 260.207 249.586C260.207 240.788 253.074 233.655 244.276 233.655C235.477 233.655 228.345 240.788 228.345 249.586C228.345 258.385 235.477 265.517 244.276 265.517Z" fill="#2074EF"/>
<path d="M95.5863 148.69H31.8621C25.9965 148.69 21.2415 153.445 21.2415 159.31C21.2415 165.176 25.9965 169.931 31.8621 169.931H95.5863C101.452 169.931 106.207 165.176 106.207 159.31C106.207 153.445 101.452 148.69 95.5863 148.69Z" fill="#2074EF"/>
<path d="M31.8621 26.5517H26.5518C25.1434 26.5517 23.7927 25.9922 22.7968 24.9964C21.8009 24.0005 21.2415 22.6498 21.2415 21.2414C21.2415 19.833 21.8009 18.4823 22.7968 17.4864C23.7927 16.4905 25.1434 15.931 26.5518 15.931H31.8621C33.2705 15.931 34.6212 16.4905 35.6171 17.4864C36.613 18.4823 37.1725 19.833 37.1725 21.2414C37.1725 22.6498 36.613 24.0005 35.6171 24.9964C34.6212 25.9922 33.2705 26.5517 31.8621 26.5517Z" fill="#FF4D4D"/>
<path d="M58.4139 26.5517H53.1036C51.6952 26.5517 50.3445 25.9922 49.3486 24.9964C48.3527 24.0005 47.7932 22.6498 47.7932 21.2414C47.7932 19.833 48.3527 18.4823 49.3486 17.4864C50.3445 16.4905 51.6952 15.931 53.1036 15.931H58.4139C59.8223 15.931 61.173 16.4905 62.1689 17.4864C63.1648 18.4823 63.7242 19.833 63.7242 21.2414C63.7242 22.6498 63.1648 24.0005 62.1689 24.9964C61.173 25.9922 59.8223 26.5517 58.4139 26.5517Z" fill="#F7BB26"/>
<path d="M84.9657 26.5517H79.6553C78.2469 26.5517 76.8962 25.9922 75.9003 24.9964C74.9045 24.0005 74.345 22.6498 74.345 21.2414C74.345 19.833 74.9045 18.4823 75.9003 17.4864C76.8962 16.4905 78.2469 15.931 79.6553 15.931H84.9657C86.3741 15.931 87.7248 16.4905 88.7206 17.4864C89.7165 18.4823 90.276 19.833 90.276 21.2414C90.276 22.6498 89.7165 24.0005 88.7206 24.9964C87.7248 25.9922 86.3741 26.5517 84.9657 26.5517Z" fill="#25E572"/>
<path d="M233.655 26.5517H138.069C136.66 26.5517 135.31 25.9922 134.314 24.9964C133.318 24.0005 132.759 22.6498 132.759 21.2414C132.759 19.833 133.318 18.4823 134.314 17.4864C135.31 16.4905 136.66 15.931 138.069 15.931H233.655C235.063 15.931 236.414 16.4905 237.41 17.4864C238.406 18.4823 238.965 19.833 238.965 21.2414C238.965 22.6498 238.406 24.0005 237.41 24.9964C236.414 25.9922 235.063 26.5517 233.655 26.5517Z" fill="#419DDB"/>
<path d="M260.207 196.483H217.724C216.316 196.483 214.965 195.923 213.969 194.927C212.973 193.932 212.414 192.581 212.414 191.172C212.414 189.764 212.973 188.413 213.969 187.417C214.965 186.422 216.316 185.862 217.724 185.862H260.207C261.615 185.862 262.966 186.422 263.962 187.417C264.958 188.413 265.517 189.764 265.517 191.172C265.517 192.581 264.958 193.932 263.962 194.927C262.966 195.923 261.615 196.483 260.207 196.483Z" fill="#17172B"/>
<path d="M79.6552 292.069H47.7932C46.3848 292.069 45.0341 291.509 44.0382 290.514C43.0423 289.518 42.4828 288.167 42.4828 286.759C42.4828 285.35 43.0423 283.999 44.0382 283.004C45.0341 282.008 46.3848 281.448 47.7932 281.448H79.6552C81.0636 281.448 82.4143 282.008 83.4102 283.004C84.4061 283.999 84.9656 285.35 84.9656 286.759C84.9656 288.167 84.4061 289.518 83.4102 290.514C82.4143 291.509 81.0636 292.069 79.6552 292.069ZM169.931 292.069H138.069C136.661 292.069 135.31 291.509 134.314 290.514C133.318 289.518 132.759 288.167 132.759 286.759C132.759 285.35 133.318 283.999 134.314 283.004C135.31 282.008 136.661 281.448 138.069 281.448H169.931C171.339 281.448 172.69 282.008 173.686 283.004C174.682 283.999 175.241 285.35 175.241 286.759C175.241 288.167 174.682 289.518 173.686 290.514C172.69 291.509 171.339 292.069 169.931 292.069ZM260.207 292.069H228.345C226.937 292.069 225.586 291.509 224.59 290.514C223.594 289.518 223.035 288.167 223.035 286.759C223.035 285.35 223.594 283.999 224.59 283.004C225.586 282.008 226.937 281.448 228.345 281.448H260.207C261.615 281.448 262.966 282.008 263.962 283.004C264.958 283.999 265.517 285.35 265.517 286.759C265.517 288.167 264.958 289.518 263.962 290.514C262.966 291.509 261.615 292.069 260.207 292.069ZM53.1035 79.6551H26.5518C25.1434 79.6551 23.7927 79.0956 22.7968 78.0997C21.8009 77.1039 21.2415 75.7532 21.2415 74.3448C21.2415 72.9364 21.8009 71.5857 22.7968 70.5898C23.7927 69.5939 25.1434 69.0344 26.5518 69.0344H53.1035C54.5119 69.0344 55.8626 69.5939 56.8585 70.5898C57.8544 71.5857 58.4139 72.9364 58.4139 74.3448C58.4139 75.7532 57.8544 77.1039 56.8585 78.0997C55.8626 79.0956 54.5119 79.6551 53.1035 79.6551ZM111.517 106.207H26.5518C25.1434 106.207 23.7927 105.647 22.7968 104.651C21.8009 103.656 21.2415 102.305 21.2415 100.896C21.2415 99.4881 21.8009 98.1374 22.7968 97.1415C23.7927 96.1456 25.1434 95.5861 26.5518 95.5861H111.517C112.926 95.5861 114.276 96.1456 115.272 97.1415C116.268 98.1374 116.828 99.4881 116.828 100.896C116.828 102.305 116.268 103.656 115.272 104.651C114.276 105.647 112.926 106.207 111.517 106.207ZM79.6552 127.448H26.5518C25.1434 127.448 23.7927 126.889 22.7968 125.893C21.8009 124.897 21.2415 123.546 21.2415 122.138C21.2415 120.729 21.8009 119.379 22.7968 118.383C23.7927 117.387 25.1434 116.828 26.5518 116.828H79.6552C81.0636 116.828 82.4143 117.387 83.4102 118.383C84.4061 119.379 84.9656 120.729 84.9656 122.138C84.9656 123.546 84.4061 124.897 83.4102 125.893C82.4143 126.889 81.0636 127.448 79.6552 127.448Z" fill="#B39DDD"/>
<path d="M265.517 217.724H212.414C206.78 217.724 201.377 215.486 197.394 211.503C193.41 207.519 191.172 202.116 191.172 196.483V79.6552C191.172 74.0216 193.41 68.6188 197.394 64.6353C201.377 60.6517 206.78 58.4138 212.414 58.4138H265.517C271.151 58.4138 276.554 60.6517 280.537 64.6353C284.521 68.6188 286.759 74.0216 286.759 79.6552V196.483C286.759 202.116 284.521 207.519 280.537 211.503C276.554 215.486 271.151 217.724 265.517 217.724ZM212.414 69.0345C209.597 69.0345 206.896 70.1535 204.904 72.1452C202.912 74.137 201.793 76.8384 201.793 79.6552V196.483C201.793 199.3 202.912 202.001 204.904 203.993C206.896 205.985 209.597 207.103 212.414 207.103H265.517C268.334 207.103 271.035 205.985 273.027 203.993C275.019 202.001 276.138 199.3 276.138 196.483V79.6552C276.138 76.8384 275.019 74.137 273.027 72.1452C271.035 70.1535 268.334 69.0345 265.517 69.0345H212.414Z" fill="#B39DDD"/>
<path d="M21.0002 33H287C290.866 33 294 35.0148 294 37.5C294 39.9852 290.866 42 287 42H21.0002C17.1342 42 14 39.9852 14 37.5C14 35.0148 17.1342 33 21.0002 33Z" fill="#00439D"/>
</svg>
