<svg width="308" height="308" viewBox="0 0 308 308" fill="none" xmlns="http://www.w3.org/2000/svg">
<path d="M27.9998 0H279.994C295.458 0 307.994 12.5362 307.994 27.9998V251.999C307.994 267.462 295.458 279.998 279.994 279.998H27.9998C12.5362 279.998 0 267.462 0 251.999V27.9998C0 12.5362 12.5362 0 27.9998 0Z" fill="#F0EAF9"/>
<path d="M13.9996 56.0017H293.994C301.726 56.0017 307.994 62.2695 307.994 70.0013V70.002C307.994 77.7338 301.726 84.0016 293.994 84.0016H13.9996C6.26776 84.0016 0 77.7338 0 70.002V70.0013C0 62.2695 6.26776 56.0017 13.9996 56.0017Z" fill="#E1D5F3"/>
<path d="M27.9998 0H279.996C295.46 0 307.996 12.5362 307.996 27.9998V69.9993H0V27.9998C0 12.5362 12.5362 0 27.9998 0Z" fill="#0071BC"/>
<path d="M27.9998 0H279.999C287.731 0 293.999 6.26776 293.999 13.9996C293.999 21.7314 287.731 27.9998 279.999 27.9998H27.9998C20.268 27.9998 14.0002 21.7321 14.0002 14.0003C14.0002 6.26842 20.268 0 27.9998 0Z" fill="#419DDB"/>
<path d="M21.0004 56.0017H286.999C290.864 56.0017 293.999 59.1359 293.999 63.0018C293.999 66.8678 290.864 70.002 286.999 70.002H21.0004C17.1345 70.002 14.0002 66.8678 14.0002 63.0018C14.0002 59.1359 17.1345 56.0017 21.0004 56.0017Z" fill="#00439D"/>
<path d="M300.996 97.9993C297.13 97.9993 293.996 101.133 293.996 104.999V251.997C293.996 259.729 287.728 265.997 279.996 265.997H202.998C199.132 265.997 195.998 269.131 195.998 272.997C195.998 276.863 199.132 279.997 202.998 279.997H279.996C295.46 279.997 307.996 267.461 307.996 251.997V104.999C307.996 101.133 304.862 97.9993 300.996 97.9993Z" fill="#D9C9EF"/>
<path d="M7.00013 125.996C10.866 125.996 14.0003 129.131 14.0003 132.996V244.995C14.0003 248.86 10.866 251.995 7.00013 251.995C3.13421 251.995 0 248.86 0 244.995V132.996C0 129.131 3.13421 125.996 7.00013 125.996Z" fill="#DFD2F2"/>
<path d="M35.0018 42.0021C38.8679 42.0021 42.002 38.868 42.002 35.002C42.002 31.1359 38.8679 28.0018 35.0018 28.0018C31.1358 28.0018 28.0017 31.1359 28.0017 35.002C28.0017 38.868 31.1358 42.0021 35.0018 42.0021Z" fill="#F7B236"/>
<path d="M62.9972 42.0021C66.8633 42.0021 69.9973 38.868 69.9973 35.002C69.9973 31.1359 66.8633 28.0018 62.9972 28.0018C59.1311 28.0018 55.9971 31.1359 55.9971 35.002C55.9971 38.868 59.1311 42.0021 62.9972 42.0021Z" fill="#B39DDD"/>
<path d="M90.9989 42.0021C94.865 42.0021 97.999 38.868 97.999 35.002C97.999 31.1359 94.865 28.0018 90.9989 28.0018C87.1328 28.0018 83.9988 31.1359 83.9988 35.002C83.9988 38.868 87.1328 42.0021 90.9989 42.0021Z" fill="#D80E70"/>
<path d="M265.997 195.997H125.998C118.267 195.997 111.999 189.73 111.999 181.998V112.001C111.999 104.269 118.267 98.001 125.998 98.001H265.997C273.729 98.001 279.997 104.269 279.997 112.001V181.998C279.997 189.73 273.729 195.997 265.997 195.997ZM69.9973 153.998H41.9995C34.2676 153.998 27.9999 147.73 27.9999 139.998V112.001C27.9999 104.269 34.2676 98.001 41.9995 98.001H69.9973C77.7292 98.001 83.9969 104.269 83.9969 112.001V139.998C83.9969 147.73 77.7292 153.998 69.9973 153.998ZM69.9973 251.995H41.9995C34.2676 251.995 27.9999 245.727 27.9999 237.995V209.997C27.9999 202.265 34.2676 195.997 41.9995 195.997H69.9973C77.7292 195.997 83.9969 202.265 83.9969 209.997V237.995C83.9969 245.727 77.7292 251.995 69.9973 251.995ZM118.999 209.995H160.996C164.862 209.995 167.996 213.129 167.996 216.995C167.996 220.861 164.862 223.995 160.996 223.995H118.999C115.133 223.995 111.999 220.861 111.999 216.995C111.999 213.129 115.133 209.995 118.999 209.995ZM258.995 209.995H272.994C276.86 209.995 279.995 213.129 279.995 216.995C279.995 220.861 276.86 223.995 272.994 223.995H258.995C255.129 223.995 251.995 220.861 251.995 216.995C251.995 213.129 255.129 209.995 258.995 209.995ZM189 209.995H230.997C234.863 209.995 237.997 213.129 237.997 216.995C237.997 220.861 234.863 223.995 230.997 223.995H189C185.134 223.995 182 220.861 182 216.995C182 213.129 185.134 209.995 189 209.995ZM118.999 237.997H175C178.866 237.997 182 241.131 182 244.997C182 248.863 178.866 251.997 175 251.997H118.999C115.133 251.997 111.999 248.863 111.999 244.997C111.999 241.131 115.133 237.997 118.999 237.997ZM202.998 237.997H216.997C220.863 237.997 223.997 241.131 223.997 244.997C223.997 248.863 220.863 251.997 216.997 251.997H202.998C199.132 251.997 195.998 248.863 195.998 244.997C195.998 241.131 199.132 237.997 202.998 237.997ZM76.9968 182H35C31.1341 182 27.9999 178.866 27.9999 175C27.9999 171.134 31.1341 168 35 168H76.9968C80.8627 168 83.9969 171.134 83.9969 175C83.9969 178.866 80.8627 182 76.9968 182Z" fill="#B39DDD"/>
<path d="M153.998 209.997H140C101.341 209.997 70.0005 241.337 70.0005 279.997V280.369C70.0504 288.016 63.301 293.997 55.6538 293.997H48.9995C45.1336 293.997 41.9994 297.131 41.9994 300.997C41.9994 304.863 45.1336 307.997 48.9995 307.997H97.9991C136.658 307.996 167.998 276.656 167.998 237.997V209.997H153.998Z" fill="#F7B236"/>
<path d="M167.998 237.997V209.997H153.998C153.998 248.656 122.659 279.997 83.9988 279.997H70.0012V280.368C70.0511 288.015 63.301 293.996 55.6545 293.996H48.9995C45.1336 293.996 41.9994 297.13 41.9994 300.996C41.9994 304.862 45.1336 307.996 48.9995 307.996H97.9991C136.658 307.996 167.998 276.656 167.998 237.997Z" fill="#F58B04"/>
<path d="M303.304 74.6915C301.201 72.5881 298.553 71.1121 295.658 70.4287C292.763 69.7453 289.735 69.8816 286.913 70.8223C237.572 88.2566 196.92 124.156 173.516 170.963L167.998 181.998V209.998H195.998L207.033 204.48C253.839 181.077 289.739 140.425 307.173 91.0831C308.114 88.2611 308.251 85.2328 307.567 82.3377C306.884 79.4425 305.408 76.7949 303.304 74.6915Z" fill="#0071BC"/>
<path d="M250.333 113.671C244.866 108.204 228.642 115.563 214.097 130.108C199.551 144.654 192.191 160.877 197.658 166.345C203.125 171.812 219.349 164.453 233.895 149.907C248.441 135.362 255.8 119.139 250.333 113.671Z" fill="#419DDB"/>
<path d="M286.913 70.8216C284.489 71.678 282.189 72.7811 279.808 73.7248C277.985 136.495 230.375 188.417 167.998 195.663V209.998H195.998L207.033 204.48C253.839 181.076 289.739 140.424 307.174 91.0824C309.971 82.6897 305.434 73.6185 297.042 70.8216C293.754 69.7257 290.2 69.7257 286.913 70.8216Z" fill="#00439D"/>
<path d="M153.998 209.997L167.998 223.997L195.998 209.997L167.998 181.998L153.998 209.997Z" fill="#5628B4"/>
<path d="M161.566 217.565L167.998 223.997L195.998 209.997L182.566 196.565C176.766 190.766 167.365 190.766 161.566 196.565C158.781 199.35 157.217 203.127 157.217 207.065C157.217 211.003 158.781 214.78 161.566 217.565Z" fill="#420F9B"/>
<path d="M125.116 225.52C120.858 221.261 108.588 226.626 97.7117 237.502C86.8351 248.379 81.47 260.648 85.7285 264.906C89.987 269.165 102.256 263.8 113.133 252.924C124.01 242.048 129.375 229.779 125.116 225.52Z" fill="#FBDA9E"/>
</svg>
