<svg width="308" height="310" viewBox="0 0 308 310" fill="none" xmlns="http://www.w3.org/2000/svg">
<path d="M168.855 137.195V195.239L158.301 200.515L147.748 195.239V137.195H168.855Z" fill="#FFC477"/>
<path d="M184.685 97.8818V126.641C184.667 132.461 179.952 137.177 174.132 137.195H142.471C136.648 137.177 131.934 132.461 131.918 126.641V97.8818C131.911 96.9268 132.186 95.991 132.709 95.192C133.119 94.4491 133.72 93.8299 134.451 93.3992C141.62 88.643 149.775 85.5754 158.301 84.4275C166.828 85.5763 174.983 88.6438 182.152 93.3992C182.882 93.8307 183.482 94.4498 183.892 95.192C184.414 95.9913 184.69 96.9268 184.685 97.8818Z" fill="#57565C"/>
<path d="M308 229.748L279.138 309.057L249.377 298.241L252.965 288.321L274.652 228.798L278.241 218.878L308 229.748Z" fill="#787680"/>
<path d="M42.2137 68.5973V84.4275H0V0H42.2137V68.5973Z" fill="#0071BC"/>
<path d="M150.755 239.88C150.834 238.991 151.049 238.12 151.388 237.295C152.338 234.681 153.959 232.363 156.09 230.575C158.221 228.786 160.785 227.591 163.525 227.11L222.941 216.608L235.236 214.447L274.652 228.798L252.965 288.321L243.098 284.732L211.068 295.496L196.186 290.114L102.684 256.078C95.3746 253.591 90.7984 246.334 91.7086 238.666C92.0442 236.334 92.896 234.106 94.202 232.146C95.5079 230.185 97.2351 228.54 99.2575 227.332C101.28 226.123 103.547 225.381 105.892 225.16C108.238 224.939 110.603 225.245 112.816 226.054L150.755 239.88Z" fill="#FFC477"/>
<path d="M210.486 52.1874L167.588 9.28573C164.645 6.33749 161.15 3.9995 157.301 2.40599C153.452 0.812481 149.327 -0.00515504 145.162 2.44545e-05H89.7048L52.7678 15.8302H42.2144V68.5974H52.7678C52.7678 80.2589 68.5979 89.7042 84.4281 89.7042C100.258 89.7042 116.088 80.2589 116.088 68.5974H153.025C161.768 68.5974 168.856 61.5094 168.856 52.7672L189.962 73.8741C191.206 75.1218 192.674 76.1243 194.289 76.829C196.234 77.7518 198.363 78.2207 200.516 78.2003C203.026 78.2134 205.498 77.5914 207.703 76.3921C209.907 75.1929 211.773 73.4553 213.125 71.3412C214.907 68.3181 215.616 64.7819 215.137 61.3054C214.659 57.829 213.019 54.6161 210.486 52.1874Z" fill="#FFDAAA"/>
<path d="M163.578 105.534C163.578 106.934 163.022 108.276 162.033 109.265C161.043 110.255 159.701 110.811 158.301 110.811C156.902 110.811 155.56 110.255 154.57 109.265C153.581 108.276 153.025 106.934 153.025 105.534C153.025 104.135 153.581 102.793 154.57 101.803C155.56 100.814 156.902 100.258 158.301 100.258C159.701 100.258 161.043 100.814 162.033 101.803C163.022 102.793 163.578 104.135 163.578 105.534Z" fill="#C6C5CA"/>
<path d="M147.748 137.195H168.855V147.748H147.748V137.195ZM168.855 105.534C168.855 111.363 164.13 116.088 158.301 116.088C152.473 116.088 147.748 111.363 147.748 105.534C147.748 99.7063 152.473 94.981 158.301 94.981C164.13 94.981 168.855 99.7063 168.855 105.534Z" fill="#FFB655"/>
<circle cx="158.5" cy="105.5" r="11.5" fill="#787680"/>
<path d="M158.302 105.122C158.308 105.876 158.153 106.623 157.846 107.312C157.539 108.002 157.088 108.617 156.523 109.117C155.958 109.617 155.293 109.99 154.572 110.211C153.85 110.432 153.09 110.496 152.342 110.399C131.56 107.392 116.127 89.5953 116.088 68.5973H126.641C126.678 84.3192 138.213 97.6476 153.767 99.9357C155.019 100.114 156.165 100.735 156.997 101.687C157.829 102.639 158.292 103.858 158.302 105.122ZM183.629 94.8905C182.763 93.9742 182.256 92.7764 182.202 91.5166C182.147 90.2569 182.549 89.0198 183.332 88.0321C186.171 84.411 188.155 80.1959 189.137 75.701L189.207 75.4148C190.132 71.0334 190.124 66.5064 189.184 62.1283C188.245 57.7501 186.394 53.6187 183.753 50.0028C181.112 46.3861 177.739 43.3658 173.854 41.1383C169.969 38.9107 165.659 37.5258 161.203 37.0735C154.516 36.4447 147.804 37.9782 142.054 41.4486L136.556 32.4306C151.059 23.6548 169.409 24.4232 183.129 34.3811C196.849 44.3389 203.267 61.5482 199.418 78.0584C198.083 84.1037 195.391 89.7662 191.544 94.6174C191.069 95.1964 190.475 95.6675 189.804 95.9994C189.132 96.3312 188.397 96.5162 187.648 96.5421C186.9 96.5679 186.154 96.434 185.461 96.1492C184.768 95.8644 184.143 95.4353 183.629 94.8905Z" fill="#898890"/>
<path d="M84.4275 89.3257C84.4352 88.0474 84.9064 86.8154 85.7538 85.8583C86.6011 84.9012 87.7669 84.2841 89.0348 84.1215C100.5 82.619 110.631 75.7836 110.811 68.7828C110.791 67.36 111.335 65.987 112.323 64.9637C113.312 63.9403 114.665 63.3497 116.088 63.3207H153.025C158.647 63.3154 163.282 58.9094 163.578 53.2949C163.572 51.8211 163.273 50.3632 162.698 49.0059C162.124 47.6486 161.285 46.419 160.232 45.3884C159.179 44.3571 157.931 43.5454 156.562 43.0004C155.192 42.4554 153.728 42.1881 152.254 42.2138H100.258C98.8582 42.2138 97.5161 41.6579 96.5265 40.6683C95.5369 39.6787 94.981 38.3366 94.981 36.9371C94.981 35.5376 95.5369 34.1955 96.5265 33.2059C97.5161 32.2163 98.8582 31.6604 100.258 31.6604H151.969C163.205 31.733 172.65 40.1117 174.062 51.2568C174.31 54.6566 173.728 58.0656 172.367 61.1908C171.006 64.3159 168.906 67.0637 166.248 69.1977C162.2 72.3326 157.198 73.9834 152.08 73.8741H120.594C117.291 84.9552 103.909 92.7912 90.2946 94.5892C89.5547 94.6731 88.8054 94.5994 88.0961 94.3729C87.3868 94.1463 86.7335 93.7721 86.1792 93.2749C85.6249 92.7776 85.1822 92.1686 84.8803 91.4879C84.5784 90.8072 84.4241 90.0703 84.4275 89.3257Z" fill="#FFC477"/>
<path d="M166.279 263.836C156.042 263.808 147.287 256.467 145.473 246.39C145.046 243.955 145.063 241.463 145.525 239.034C145.696 237.826 146.001 236.64 146.435 235.499C147.706 232.019 149.869 228.933 152.707 226.551C155.545 224.168 158.959 222.573 162.607 221.924L234.317 209.26C235.227 209.091 236.167 209.173 237.035 209.497L250.554 214.418C251.871 214.896 252.945 215.876 253.54 217.144C254.133 218.414 254.197 219.867 253.72 221.184C253.244 222.501 252.263 223.574 250.996 224.167C249.728 224.761 248.276 224.827 246.96 224.35L234.765 219.911L164.712 232.265C162.862 232.569 161.122 233.348 159.664 234.526C158.206 235.705 157.079 237.242 156.395 238.988C156.207 239.45 156.073 239.929 155.99 240.418C155.97 240.596 155.939 240.771 155.901 240.946C155.664 242.147 155.655 243.382 155.874 244.587C156.941 250.289 162.383 254.081 168.1 253.107L222.307 243.564C223.684 243.321 225.101 243.635 226.247 244.436C227.393 245.236 228.174 246.459 228.419 247.836C228.661 249.213 228.346 250.631 227.544 251.777C226.741 252.923 225.517 253.703 224.14 253.947L169.908 263.514C168.711 263.725 167.497 263.831 166.279 263.836Z" fill="#FFB655"/>
<rect x="29" width="13" height="84" fill="#005A96"/>
<rect x="278.242" y="218.897" width="13" height="84.4027" transform="rotate(19.9629 278.242 218.897)" fill="#67656F"/>
</svg>
