<svg width="20" height="20" viewBox="0 0 20 20" fill="none" xmlns="http://www.w3.org/2000/svg">
<path d="M11.378 18.2732C11.3796 18.4554 11.3444 18.6361 11.2745 18.8044C11.2046 18.9727 11.1014 19.1251 10.9711 19.2525C10.7776 19.4443 10.5318 19.5746 10.2645 19.6269C9.99714 19.6793 9.7203 19.6513 9.46884 19.5466C9.21737 19.4419 9.00252 19.2651 8.85135 19.0385C8.70018 18.8119 8.61945 18.5456 8.61934 18.2732H11.378Z" fill="#F2F2F2"/>
<path d="M7.92981 15.5149H12.0677V18.2735H7.92981V15.5149Z" fill="#E7A54A"/>
<path d="M11.3786 7.2408C11.3781 7.42354 11.3052 7.59864 11.176 7.72786C11.0468 7.85707 10.8717 7.92991 10.689 7.93045H9.9993V9.99942H7.93033V9.30976C7.93033 9.12686 7.85767 8.95144 7.72834 8.8221C7.599 8.69277 7.42358 8.62011 7.24068 8.62011C7.05777 8.62011 6.88235 8.69277 6.75302 8.8221C6.62368 8.95144 6.55102 9.12686 6.55102 9.30976V9.99942H4.48206C4.48187 9.27483 4.62446 8.55731 4.90166 7.88785C5.17887 7.21838 5.58526 6.6101 6.09761 6.09774C6.60997 5.58538 7.21826 5.17899 7.88773 4.90178C8.55719 4.62458 9.27471 4.482 9.9993 4.48218V6.55114H10.689C10.8717 6.55169 11.0468 6.62452 11.176 6.75374C11.3052 6.88296 11.3781 7.05806 11.3786 7.2408Z" fill="#F2F2F2"/>
<path d="M15.5159 9.99829C15.5163 10.9661 15.2615 11.9169 14.7772 12.7548C14.2928 13.5927 13.5961 14.288 12.7573 14.7707V15.5155H9.99865V13.4466H9.30899C9.12609 13.4466 8.95067 13.3739 8.82133 13.2446C8.692 13.1152 8.61934 12.9398 8.61934 12.7569C8.61934 12.574 8.692 12.3986 8.82133 12.2693C8.95067 12.1399 9.12609 12.0673 9.30899 12.0673H9.99865V9.99829H12.0676V10.6879C12.0676 10.8709 12.1403 11.0463 12.2696 11.1756C12.3989 11.3049 12.5744 11.3776 12.7573 11.3776C12.9402 11.3776 13.1156 11.3049 13.2449 11.1756C13.3743 11.0463 13.4469 10.8709 13.4469 10.6879V9.99829H15.5159Z" fill="#434BFF"/>
<path d="M8.61999 12.7573C8.62053 12.9401 8.69337 13.1152 8.82259 13.2444C8.9518 13.3736 9.1269 13.4464 9.30964 13.447H9.9993V15.5159H7.24068V14.7711C6.40184 14.2884 5.70512 13.5931 5.22079 12.7552C4.73646 11.9173 4.48165 10.9665 4.48206 9.9987H6.55102V9.30904C6.55102 9.12613 6.62368 8.95072 6.75302 8.82138C6.88235 8.69204 7.05777 8.61938 7.24068 8.61938C7.42358 8.61938 7.599 8.69204 7.72834 8.82138C7.85767 8.95072 7.93033 9.12613 7.93033 9.30904V9.9987H9.9993V12.0677H9.30964C9.1269 12.0682 8.9518 12.141 8.82259 12.2703C8.69337 12.3995 8.62053 12.5746 8.61999 12.7573Z" fill="#059571"/>
<path d="M15.5157 9.99942H13.4467V10.6891C13.4467 10.872 13.3741 11.0474 13.2447 11.1767C13.1154 11.3061 12.94 11.3787 12.7571 11.3787C12.5742 11.3787 12.3988 11.3061 12.2694 11.1767C12.1401 11.0474 12.0674 10.872 12.0674 10.6891V9.99942H9.99846V7.93045H10.6881C10.871 7.93045 11.0464 7.85779 11.1758 7.72846C11.3051 7.59912 11.3778 7.42371 11.3778 7.2408C11.3778 7.05789 11.3051 6.88247 11.1758 6.75314C11.0464 6.6238 10.871 6.55114 10.6881 6.55114H9.99846V4.48218C10.723 4.482 11.4406 4.62458 12.11 4.90178C12.7795 5.17899 13.3878 5.58538 13.9001 6.09774C14.4125 6.6101 14.8189 7.21838 15.0961 7.88785C15.3733 8.55731 15.5159 9.27483 15.5157 9.99942Z" fill="#4C10AD"/>
<path d="M9.99845 4.13729C8.94606 4.13618 7.91296 4.41971 7.00857 4.95785C6.92993 5.00467 6.87311 5.08081 6.85061 5.16952C6.82811 5.25823 6.84177 5.35224 6.88858 5.43088C6.9354 5.50952 7.01154 5.56634 7.10025 5.58884C7.18896 5.61134 7.28298 5.59768 7.36161 5.55086C8.05953 5.13937 8.84499 4.89906 9.65367 4.84959V6.55071C9.65367 6.64215 9.69 6.72984 9.75465 6.7945C9.81931 6.85916 9.90701 6.89548 9.99845 6.89548H10.688C10.7794 6.89548 10.8671 6.9318 10.9318 6.99646C10.9964 7.06112 11.0328 7.14881 11.0328 7.24025C11.0328 7.33169 10.9964 7.41939 10.9318 7.48405C10.8671 7.5487 10.7794 7.58503 10.688 7.58503H9.99845C9.90701 7.58503 9.81931 7.62135 9.75465 7.68601C9.69 7.75067 9.65367 7.83836 9.65367 7.9298V9.65367H8.27458V9.3089C8.27458 9.03458 8.1656 8.77149 7.97163 8.57752C7.77766 8.38355 7.51457 8.27458 7.24025 8.27458C6.96593 8.27458 6.70285 8.38355 6.50888 8.57752C6.3149 8.77149 6.20593 9.03458 6.20593 9.3089V9.65367L4.84959 9.65505C4.89861 8.84595 5.13869 8.05999 5.55017 7.36161C5.59259 7.28339 5.60312 7.1918 5.57956 7.10599C5.556 7.02018 5.50018 6.9468 5.42376 6.9012C5.34735 6.8556 5.25627 6.84131 5.16956 6.86132C5.08285 6.88133 5.00724 6.93409 4.95854 7.00857C4.17656 8.32463 3.94141 9.89472 4.3035 11.3821C4.66559 12.8696 5.59609 14.1559 6.89548 14.9653V15.5148C6.89548 15.6063 6.9318 15.694 6.99646 15.7586C7.06112 15.8233 7.14881 15.8596 7.24025 15.8596H7.58503V16.5505H7.24025C7.14881 16.5505 7.06112 16.5869 6.99646 16.6515C6.9318 16.7162 6.89548 16.8039 6.89548 16.8953C6.89548 16.9867 6.9318 17.0744 6.99646 17.1391C7.06112 17.2038 7.14881 17.2401 7.24025 17.2401H7.58503V18.2744C7.58503 18.3658 7.62135 18.4535 7.68601 18.5182C7.75067 18.5829 7.83836 18.6192 7.9298 18.6192H8.30905C8.38818 19.0089 8.5996 19.3592 8.90749 19.6109C9.21538 19.8625 9.6008 20 9.99845 20C10.3961 20 10.7815 19.8625 11.0894 19.6109C11.3973 19.3592 11.6087 19.0089 11.6878 18.6192H12.0671C12.1585 18.6192 12.2462 18.5829 12.3109 18.5182C12.3755 18.4535 12.4119 18.3658 12.4119 18.2744V17.2401H12.7566C12.8481 17.2401 12.9358 17.2038 13.0004 17.1391C13.0651 17.0744 13.1014 16.9867 13.1014 16.8953C13.1014 16.8039 13.0651 16.7162 13.0004 16.6515C12.9358 16.5869 12.8481 16.5505 12.7566 16.5505H12.4119V15.8596H12.7566C12.8481 15.8596 12.9358 15.8233 13.0004 15.7586C13.0651 15.694 13.1014 15.6063 13.1014 15.5148V14.9653C14.1813 14.2918 15.0124 13.2849 15.4691 12.097C15.9258 10.9091 15.9832 9.60474 15.6326 8.38131C15.282 7.15788 14.5425 6.08191 13.5259 5.31618C12.5094 4.55045 11.2711 4.13662 9.99845 4.13729ZM9.99845 19.3087C9.78453 19.3085 9.57592 19.2422 9.40123 19.1187C9.22654 18.9952 9.09432 18.8208 9.02274 18.6192H10.9742C10.9026 18.8208 10.7704 18.9952 10.5957 19.1187C10.421 19.2422 10.2124 19.3085 9.99845 19.3087ZM11.7223 17.9296H8.27458V17.2401H11.7223V17.9296ZM8.27458 16.5505V15.861H11.7223V16.5505H8.27458ZM10.3432 8.27458H10.688C10.9623 8.27458 11.2254 8.1656 11.4194 7.97163C11.6133 7.77766 11.7223 7.51457 11.7223 7.24025C11.7223 6.96593 11.6133 6.70285 11.4194 6.50888C11.2254 6.3149 10.9623 6.20593 10.688 6.20593H10.3432V4.84407C11.5912 4.92864 12.7662 5.4627 13.6505 6.3473C14.5349 7.23189 15.0686 8.40706 15.1528 9.65505L13.4462 9.65367C13.3547 9.65367 13.2671 9.69 13.2024 9.75465C13.1377 9.81931 13.1014 9.90701 13.1014 9.99845V10.688C13.1014 10.7794 13.0651 10.8671 13.0004 10.9318C12.9358 10.9964 12.8481 11.0328 12.7566 11.0328C12.6652 11.0328 12.5775 10.9964 12.5128 10.9318C12.4482 10.8671 12.4119 10.7794 12.4119 10.688V9.99845C12.4119 9.90701 12.3755 9.81931 12.3109 9.75465C12.2462 9.69 12.1585 9.65367 12.0671 9.65367H10.3432V8.27458ZM4.85028 10.3446L6.55071 10.3432C6.64215 10.3432 6.72984 10.3069 6.7945 10.2422C6.85916 10.1776 6.89548 10.0899 6.89548 9.99845V9.3089C6.89548 9.21746 6.9318 9.12976 6.99646 9.06511C7.06112 9.00045 7.14881 8.96412 7.24025 8.96412C7.33169 8.96412 7.41939 9.00045 7.48405 9.06511C7.5487 9.12976 7.58503 9.21746 7.58503 9.3089V9.99845C7.58503 10.0899 7.62135 10.1776 7.68601 10.2422C7.75067 10.3069 7.83836 10.3432 7.9298 10.3432H9.65367V11.7223H9.3089C9.03458 11.7223 8.77149 11.8313 8.57752 12.0253C8.38355 12.2192 8.27458 12.4823 8.27458 12.7566C8.27458 13.031 8.38355 13.294 8.57752 13.488C8.77149 13.682 9.03458 13.791 9.3089 13.791H9.65367V15.1701H7.58503V14.7701C7.58503 14.7096 7.56909 14.6501 7.53883 14.5977C7.50857 14.5453 7.46505 14.5018 7.41264 14.4715C6.68043 14.0459 6.0639 13.447 5.61714 12.7274C5.17039 12.0079 4.90706 11.1897 4.85028 10.3446ZM12.5843 14.4715C12.5318 14.5018 12.4883 14.5453 12.4581 14.5977C12.4278 14.6501 12.4119 14.7096 12.4119 14.7701V15.1701H10.3432V13.4462C10.3432 13.3547 10.3069 13.2671 10.2422 13.2024C10.1776 13.1377 10.0899 13.1014 9.99845 13.1014H9.3089C9.21746 13.1014 9.12976 13.0651 9.06511 13.0004C9.00045 12.9358 8.96412 12.8481 8.96412 12.7566C8.96412 12.6652 9.00045 12.5775 9.06511 12.5128C9.12976 12.4482 9.21746 12.4119 9.3089 12.4119H9.99845C10.0899 12.4119 10.1776 12.3755 10.2422 12.3109C10.3069 12.2462 10.3432 12.1585 10.3432 12.0671V10.3432H11.7223V10.688C11.7223 10.9623 11.8313 11.2254 12.0253 11.4194C12.2192 11.6133 12.4823 11.7223 12.7566 11.7223C13.031 11.7223 13.294 11.6133 13.488 11.4194C13.682 11.2254 13.791 10.9623 13.791 10.688V10.3432L15.1466 10.3446C15.0898 11.1897 14.8265 12.0079 14.3797 12.7274C13.933 13.447 13.3165 14.0459 12.5843 14.4715ZM2.75819 9.99845C2.75819 9.90701 2.72187 9.81931 2.65721 9.75465C2.59255 9.69 2.50486 9.65367 2.41342 9.65367H0.344774C0.253334 9.65367 0.16564 9.69 0.100982 9.75465C0.0363243 9.81931 0 9.90701 0 9.99845C0 10.0899 0.0363243 10.1776 0.100982 10.2422C0.16564 10.3069 0.253334 10.3432 0.344774 10.3432H2.41342C2.50486 10.3432 2.59255 10.3069 2.65721 10.2422C2.72187 10.1776 2.75819 10.0899 2.75819 9.99845ZM3.6022 5.90736L1.81006 4.87304C1.77084 4.85004 1.72745 4.83503 1.6824 4.82887C1.63735 4.82271 1.59153 4.82552 1.54757 4.83715C1.50361 4.84877 1.46239 4.86897 1.42627 4.89659C1.39015 4.92421 1.35985 4.9587 1.33712 4.99808C1.31438 5.03745 1.29966 5.08094 1.2938 5.12603C1.28794 5.17112 1.29105 5.21692 1.30297 5.2608C1.31488 5.30468 1.33535 5.34577 1.36321 5.38171C1.39107 5.41764 1.42576 5.44771 1.46529 5.47018L3.25742 6.50451C3.33657 6.5495 3.4303 6.56137 3.51817 6.53752C3.60603 6.51366 3.68089 6.45602 3.72641 6.37718C3.77193 6.29833 3.78442 6.20468 3.76115 6.11666C3.73788 6.02864 3.68074 5.9534 3.6022 5.90736ZM5.90736 3.6022C5.92983 3.64173 5.9599 3.67642 5.99584 3.70428C6.03177 3.73213 6.07286 3.75261 6.11674 3.76452C6.16062 3.77644 6.20643 3.77955 6.25152 3.77369C6.2966 3.76783 6.34009 3.75311 6.37947 3.73037C6.41884 3.70764 6.45333 3.67734 6.48095 3.64122C6.50857 3.6051 6.52877 3.56388 6.5404 3.51992C6.55202 3.47596 6.55483 3.43014 6.54867 3.38509C6.54251 3.34004 6.5275 3.29665 6.50451 3.25742L5.47018 1.46529C5.42414 1.38675 5.3489 1.32961 5.26088 1.30634C5.17286 1.28306 5.07921 1.29555 5.00036 1.34108C4.92152 1.3866 4.86388 1.46146 4.84002 1.54932C4.81617 1.63719 4.82804 1.73092 4.87304 1.81006L5.90736 3.6022ZM9.99845 2.75819C10.0899 2.75819 10.1776 2.72187 10.2422 2.65721C10.3069 2.59255 10.3432 2.50486 10.3432 2.41342V0.344774C10.3432 0.253334 10.3069 0.16564 10.2422 0.100982C10.1776 0.0363243 10.0899 0 9.99845 0C9.90701 0 9.81931 0.0363243 9.75465 0.100982C9.69 0.16564 9.65367 0.253334 9.65367 0.344774V2.41342C9.65367 2.50486 9.69 2.59255 9.75465 2.65721C9.81931 2.72187 9.90701 2.75819 9.99845 2.75819ZM13.6186 3.72839C13.6978 3.7741 13.7919 3.78649 13.8802 3.76283C13.9685 3.73916 14.0438 3.68138 14.0895 3.6022L15.1239 1.81006C15.1689 1.73092 15.1807 1.63719 15.1569 1.54932C15.133 1.46146 15.0754 1.3866 14.9965 1.34108C14.9177 1.29555 14.824 1.28306 14.736 1.30634C14.648 1.32961 14.5728 1.38675 14.5267 1.46529L13.4924 3.25742C13.4467 3.33661 13.4343 3.43072 13.4579 3.51904C13.4816 3.60736 13.5394 3.68266 13.6186 3.72839ZM16.5678 6.55071C16.6283 6.5508 16.6878 6.53486 16.7402 6.50451L18.5316 5.47018C18.6101 5.42414 18.6673 5.3489 18.6906 5.26088C18.7138 5.17286 18.7013 5.07921 18.6558 5.00036C18.6103 4.92152 18.5354 4.86388 18.4476 4.84002C18.3597 4.81617 18.266 4.82804 18.1868 4.87304L16.3947 5.90736C16.329 5.94531 16.2776 6.00388 16.2486 6.074C16.2195 6.14412 16.2144 6.22186 16.2341 6.29517C16.2537 6.36847 16.297 6.43325 16.3572 6.47946C16.4174 6.52566 16.4912 6.5507 16.5671 6.55071H16.5678ZM19.6521 9.65367H17.5835C17.492 9.65367 17.4043 9.69 17.3397 9.75465C17.275 9.81931 17.2387 9.90701 17.2387 9.99845C17.2387 10.0899 17.275 10.1776 17.3397 10.2422C17.4043 10.3069 17.492 10.3432 17.5835 10.3432H19.6521C19.7436 10.3432 19.8313 10.3069 19.8959 10.2422C19.9606 10.1776 19.9969 10.0899 19.9969 9.99845C19.9969 9.90701 19.9606 9.81931 19.8959 9.75465C19.8313 9.69 19.7436 9.65367 19.6521 9.65367ZM18.5316 14.5267L16.7395 13.4924C16.7002 13.4694 16.6569 13.4544 16.6118 13.4482C16.5668 13.4421 16.5209 13.4449 16.477 13.4565C16.433 13.4681 16.3918 13.4883 16.3557 13.5159C16.3196 13.5436 16.2893 13.578 16.2665 13.6174C16.2438 13.6568 16.2291 13.7003 16.2232 13.7454C16.2173 13.7905 16.2205 13.8363 16.2324 13.8802C16.2443 13.924 16.2648 13.9651 16.2926 14.0011C16.3205 14.037 16.3552 14.0671 16.3947 14.0895L18.1868 15.1239C18.266 15.1689 18.3597 15.1807 18.4476 15.1569C18.5354 15.133 18.6103 15.0754 18.6558 14.9965C18.7013 14.9177 18.7138 14.824 18.6906 14.736C18.6673 14.648 18.6101 14.5728 18.5316 14.5267ZM3.25742 13.4924L1.46529 14.5267C1.38675 14.5728 1.32961 14.648 1.30634 14.736C1.28306 14.824 1.29555 14.9177 1.34108 14.9965C1.3866 15.0754 1.46146 15.133 1.54932 15.1569C1.63719 15.1807 1.73092 15.1689 1.81006 15.1239L3.6022 14.0895C3.64173 14.0671 3.67642 14.037 3.70428 14.0011C3.73213 13.9651 3.75261 13.924 3.76452 13.8802C3.77644 13.8363 3.77955 13.7905 3.77369 13.7454C3.76783 13.7003 3.75311 13.6568 3.73037 13.6174C3.70764 13.578 3.67734 13.5436 3.64122 13.5159C3.6051 13.4883 3.56388 13.4681 3.51992 13.4565C3.47596 13.4449 3.43014 13.4421 3.38509 13.4482C3.34004 13.4544 3.29665 13.4694 3.25742 13.4924Z" fill="black"/>
<path d="M5.85427 5.85413C5.80603 5.90236 5.77318 5.9638 5.75987 6.03069C5.74655 6.09758 5.75338 6.16692 5.77947 6.22994C5.80557 6.29295 5.84977 6.34681 5.90648 6.38471C5.96319 6.4226 6.02986 6.44283 6.09806 6.44283C6.16627 6.44283 6.23294 6.4226 6.28965 6.38471C6.34636 6.34681 6.39056 6.29295 6.41665 6.22994C6.44275 6.16692 6.44957 6.09758 6.43626 6.03069C6.42294 5.9638 6.39009 5.90236 6.34186 5.85413C6.27719 5.78949 6.1895 5.75317 6.09806 5.75317C6.00663 5.75317 5.91893 5.78949 5.85427 5.85413Z" fill="black"/>
</svg>
