<svg width="308" height="308" viewBox="0 0 308 308" fill="none" xmlns="http://www.w3.org/2000/svg">
<circle cx="155.5" cy="156.5" r="76.5" fill="white"/>
<path d="M154 66.7734C105.903 66.7734 66.7734 105.903 66.7734 154C66.7734 202.097 105.903 241.227 154 241.227C202.097 241.227 241.227 202.097 241.227 154C241.227 105.903 202.097 66.7734 154 66.7734ZM215.025 158.278H196.978V141.562L154 184.541L134.75 165.291L102.63 197.411L89.8692 184.65L134.75 139.769L154 159.019L184.217 128.802H167.501V110.755H215.025V158.278Z" fill="#00439D"/>
<path d="M308 173.25V134.75H287.375C285.869 124.2 283.108 113.867 279.151 103.972L296.993 93.6711L277.743 60.3289L259.878 70.6433C253.282 62.2771 245.723 54.7178 237.357 48.122L247.671 30.2568L214.329 11.0068L204.028 28.8491C194.133 24.8918 183.8 22.1307 173.25 20.6246V0H134.75V20.6246C124.2 22.1307 113.867 24.8918 103.972 28.8491L93.6711 11.0068L60.3289 30.2568L70.6433 48.122C62.2771 54.7178 54.7178 62.2771 48.122 70.6433L30.2568 60.3289L11.0068 93.6711L28.8491 103.972C24.8918 113.867 22.1307 124.2 20.6246 134.75H0V173.25H20.6246C22.1307 183.8 24.8918 194.133 28.8491 204.028L11.0068 214.329L30.2568 247.671L48.122 237.357C54.7178 245.723 62.2771 253.282 70.6433 259.878L60.3289 277.743L93.6711 296.993L103.972 279.151C113.867 283.108 124.2 285.869 134.75 287.375V308H173.25V287.375C183.8 285.869 194.133 283.108 204.028 279.151L214.329 296.993L247.671 277.743L237.357 259.878C245.723 253.282 253.282 245.723 259.878 237.357L277.743 247.671L296.993 214.329L279.151 204.028C283.108 194.133 285.869 183.8 287.375 173.25H308ZM154 259.273C95.9522 259.273 48.7266 212.048 48.7266 154C48.7266 95.9522 95.9522 48.7266 154 48.7266C212.048 48.7266 259.273 95.9522 259.273 154C259.273 212.048 212.048 259.273 154 259.273Z" fill="#2074EF"/>
</svg>
