<svg width="316" height="259" viewBox="0 0 316 259" fill="none" xmlns="http://www.w3.org/2000/svg">
<path fill-rule="evenodd" clip-rule="evenodd" d="M158 87.1113C134.436 87.1113 115.333 106.214 115.333 129.779C115.333 153.343 134.436 172.447 158 172.447C181.565 172.447 200.668 153.343 200.668 129.779C200.668 106.214 181.565 87.1113 158 87.1113ZM144.667 129.779C144.667 122.416 150.636 116.446 158 116.446C165.364 116.446 171.334 122.416 171.334 129.779C171.334 137.143 165.364 143.113 158 143.113C150.636 143.113 144.667 137.143 144.667 129.779Z" fill="#0071BC"/>
<path fill-rule="evenodd" clip-rule="evenodd" d="M123.913 70.7386L107.911 43.0229C77.9774 60.3429 57.8372 92.7111 57.8372 129.779C57.8372 138.616 65.0007 145.78 73.8375 145.78C82.6743 145.78 89.8378 138.616 89.8378 129.779C89.8385 104.55 103.542 82.5239 123.913 70.7386Z" fill="#CBE558"/>
<path fill-rule="evenodd" clip-rule="evenodd" d="M107.911 43.0231L123.913 70.7387C133.94 64.938 145.582 61.6176 158 61.6176C170.418 61.6176 182.06 64.9374 192.087 70.7387L208.089 43.0231C193.354 34.4967 176.247 29.6169 158 29.6169C139.753 29.6169 122.645 34.4967 107.911 43.0231Z" fill="#FFC144"/>
<path fill-rule="evenodd" clip-rule="evenodd" d="M208.089 43.0229L192.087 70.7386C212.458 82.5239 226.162 104.55 226.162 129.779C226.162 138.616 233.325 145.78 242.162 145.78C250.999 145.78 258.162 138.616 258.162 129.779C258.162 92.7111 238.022 60.3429 208.089 43.0229Z" fill="#FF5A58"/>
<path fill-rule="evenodd" clip-rule="evenodd" d="M171.334 129.779C171.334 122.415 165.364 116.446 158 116.446C150.636 116.446 144.667 122.415 144.667 129.779C144.667 137.143 150.636 143.113 158 143.113C165.364 143.113 171.334 137.143 171.334 129.779Z" fill="#004B7C"/>
<path fill-rule="evenodd" clip-rule="evenodd" d="M16.521 198.063H299.479V16.5203C299.479 9.63412 293.845 4 286.959 4H29.0413C22.1551 4 16.521 9.63412 16.521 16.5203V198.063ZM158 61.6177C145.582 61.6177 133.94 64.938 123.913 70.7387C103.542 82.524 89.8385 104.55 89.8385 129.779C89.8385 138.615 82.675 145.779 73.8382 145.779C65.0014 145.779 57.8379 138.615 57.8373 129.779C57.8373 92.7099 77.9774 60.3431 107.911 43.0219C122.645 34.4963 139.753 29.6159 158 29.6159C176.246 29.6159 193.354 34.4956 208.089 43.0219C238.022 60.3425 258.162 92.7099 258.162 129.779C258.162 138.615 250.999 145.779 242.162 145.779C233.325 145.779 226.162 138.615 226.162 129.778C226.162 104.549 212.458 82.5234 192.087 70.7381C182.06 64.938 170.418 61.6177 158 61.6177ZM200.667 129.779C200.667 153.344 181.564 172.446 158 172.446C134.436 172.446 115.332 153.343 115.332 129.779C115.332 106.215 134.435 87.1114 158 87.1114C181.564 87.1114 200.667 106.215 200.667 129.779Z" fill="#2D2C2C"/>
<path fill-rule="evenodd" clip-rule="evenodd" d="M312 223.104H195.561C195.561 226.547 192.744 229.364 189.301 229.364H126.699C123.256 229.364 120.439 226.547 120.439 223.104H4V241.884C4 248.771 9.63412 254.405 16.5203 254.405H299.48C306.366 254.405 312 248.771 312 241.884V223.104Z" fill="#292C31"/>
<path fill-rule="evenodd" clip-rule="evenodd" d="M16.521 223.104H120.439C120.439 226.547 123.256 229.364 126.699 229.364H189.301C192.744 229.364 195.561 226.547 195.561 223.104H299.479V198.063H16.521V223.104Z" fill="#424C59"/>
<path d="M299.479 219.974V16.5203C299.479 9.63412 293.845 4 286.959 4H29.0412C22.155 4 16.5209 9.63412 16.5209 16.5203V219.974M20.4322 198.063H295.568M16.5203 254.405H299.48C306.366 254.405 312 248.771 312 241.885V223.104H195.561C195.561 226.547 192.744 229.364 189.301 229.364H126.699C123.256 229.364 120.439 226.547 120.439 223.104H4V241.885C4 248.771 9.63412 254.405 16.5203 254.405Z" stroke="black" stroke-width="8" stroke-miterlimit="22.9256" stroke-linecap="round" stroke-linejoin="round"/>
<path d="M181.828 32.4773C225.639 43.1709 258.162 82.6767 258.162 129.779C258.162 138.616 250.998 145.779 242.161 145.779C233.324 145.779 226.161 138.616 226.161 129.779C226.161 92.132 195.647 61.6176 157.999 61.6176C120.352 61.6176 89.8377 92.1314 89.8377 129.779C89.8377 138.616 82.6742 145.779 73.8374 145.779C65.0006 145.779 57.8372 138.616 57.8372 129.779C57.8372 82.678 90.3579 43.1734 134.167 32.4779" stroke="black" stroke-width="8" stroke-miterlimit="22.9256" stroke-linecap="round" stroke-linejoin="round"/>
<path d="M188.169 159.949C204.831 143.286 204.831 116.27 188.168 99.6081C171.505 82.9457 144.489 82.9462 127.827 99.6091C111.164 116.272 111.165 143.288 127.828 159.95C144.491 176.612 171.506 176.612 188.169 159.949Z" stroke="black" stroke-width="8" stroke-miterlimit="22.9256" stroke-linecap="round" stroke-linejoin="round"/>
<path d="M123.314 69.7014L108.524 44.0842M192.936 69.2695L207.227 44.5162" stroke="black" stroke-width="8" stroke-miterlimit="22.9256" stroke-linecap="round" stroke-linejoin="round"/>
<path d="M167.426 139.207C172.633 134 172.633 125.558 167.426 120.351C162.218 115.144 153.776 115.144 148.569 120.351C143.362 125.558 143.362 134 148.569 139.207C153.777 144.414 162.219 144.414 167.426 139.207Z" stroke="black" stroke-width="8" stroke-miterlimit="22.9256" stroke-linecap="round" stroke-linejoin="round"/>
<path d="M144.143 121.779L89.7327 90.3647" stroke="black" stroke-width="8" stroke-miterlimit="22.9256" stroke-linecap="round" stroke-linejoin="round"/>
<path d="M157.996 29.6169H158" stroke="black" stroke-width="8" stroke-miterlimit="2.6131" stroke-linecap="round" stroke-linejoin="round"/>
</svg>
