<svg width="309" height="309" viewBox="0 0 309 309" fill="none" xmlns="http://www.w3.org/2000/svg">
<path d="M154.8 306.6C238.637 306.6 306.6 238.637 306.6 154.8C306.6 70.9632 238.637 3 154.8 3C70.9632 3 3 70.9632 3 154.8C3 238.637 70.9632 306.6 154.8 306.6Z" fill="white"/>
<path d="M93.1909 95.8539H76.1822L122.553 226.933L148.512 152.749L128.386 95.8539H110.44V83.364H189.909V95.8539H171.3L217.67 226.933L234.338 179.299C256.203 118.272 216.417 99.2623 216.417 85.6426C216.417 72.023 227.458 60.9826 241.077 60.9826C241.814 60.9826 242.529 61.0225 243.23 61.0879C220.154 39.3037 189.038 25.9448 154.799 25.9448C110.06 25.9448 70.652 48.7493 47.5504 83.364H93.1896V95.8539H93.1909ZM25.9451 154.8C25.9451 204.132 53.6729 246.982 94.3894 268.635L36.2396 104.259C29.6156 119.777 25.9451 136.859 25.9451 154.8ZM266.941 91.3042C268.785 102.157 268.227 114.354 265.398 126.599H265.911L263.962 132.167C262.808 136.187 261.354 140.299 259.703 144.339L215.365 268.552C255.997 246.873 283.654 204.069 283.654 154.799C283.654 131.712 277.576 110.046 266.941 91.3042Z" fill="#00769D"/>
<path d="M115.06 277.399C127.578 281.454 140.931 283.653 154.8 283.653C168.029 283.653 180.791 281.657 192.805 277.953L155.113 171.408L115.06 277.399Z" fill="#00769D"/>
<path d="M263.694 45.9051C234.607 16.8185 195.934 0.799805 154.799 0.799805C113.664 0.799805 74.992 16.8185 45.9054 45.9051C16.8188 74.9917 0.800049 113.664 0.800049 154.8C0.800049 195.935 16.8188 234.607 45.9054 263.694C74.992 292.78 113.665 308.799 154.8 308.799C195.935 308.799 234.607 292.78 263.695 263.694C292.781 234.607 308.8 195.934 308.8 154.8C308.799 113.664 292.781 74.9917 263.694 45.9051ZM154.799 297.936C75.874 297.936 11.6636 233.725 11.6636 154.8C11.6636 75.8744 75.874 11.6633 154.799 11.6633C233.725 11.6633 297.935 75.8744 297.935 154.8C297.935 233.725 233.725 297.936 154.799 297.936Z" fill="#00769D"/>
</svg>
