<svg width="308" height="148" viewBox="0 0 308 148" fill="none" xmlns="http://www.w3.org/2000/svg">
<path d="M39.9133 47.2061L39.9133 47.2062L39.9253 47.2106C48.1554 50.2559 54.0429 53.8655 57.8701 58.2225C61.6619 62.5393 63.5188 67.6885 63.5188 74.0302C63.5188 81.559 60.6327 88.4646 54.6927 93.5109C48.734 98.5731 39.5644 101.877 26.8234 101.877C16.869 101.877 7.09411 99.4446 1.73826 96.8336L5.36069 82.0925C11.2423 84.8261 19.5241 87.3235 28.0827 87.3235C33.1763 87.3235 37.2789 86.2732 40.151 84.2393C43.084 82.1623 44.6128 79.1381 44.6128 75.5672C44.6128 72.1328 43.255 69.4059 40.3947 67.0594C37.6348 64.7954 33.4549 62.8639 27.7508 60.82L27.7508 60.8199L27.7381 60.8155C12.1957 55.4029 2.76408 47.0609 2.76408 34.2882C2.76408 26.6601 5.93551 19.9572 11.754 15.1346C17.5906 10.2969 26.1803 7.28413 37.0749 7.28413C46.7926 7.28413 54.091 9.18328 59.4378 11.4152L55.4772 25.7295C51.3913 23.9405 45.0148 21.8328 36.6536 21.8328C31.8101 21.8328 28.0263 22.9317 25.4114 24.8434C22.7626 26.78 21.3923 29.5035 21.3923 32.4639C21.3923 34.2102 21.7825 35.7776 22.6248 37.2053C23.4573 38.6162 24.682 39.8071 26.2273 40.8875C29.2684 43.0137 33.8405 44.9002 39.9133 47.2061ZM99.4733 84.4205V85.9205H100.973H138.368V100.474H80.9839V8.82593H136.405V23.3794H100.973H99.4733V24.8794V44.5397V46.0397H100.973H134.293V60.4544H100.973H99.4733V61.9544V84.4205ZM248.209 95.3566L247.24 94.4528L246.224 95.302C237.001 103.007 225.161 107.656 212.241 107.656C182.976 107.656 159.166 83.8507 159.17 54.576V54.5758C159.17 25.3155 182.99 1.5 212.256 1.5C241.521 1.5 265.327 25.3056 265.327 54.571V54.5715C265.331 67.0708 260.903 79.1667 252.83 88.7091L251.907 89.7999L252.952 90.7747L271.554 108.132L272.047 108.592L272.718 108.529C273.501 108.455 274.292 108.547 275.038 108.799C275.783 109.05 276.467 109.456 277.045 109.988C277.046 109.989 277.046 109.99 277.047 109.991L304.7 135.805C304.7 135.805 304.7 135.806 304.7 135.806C305.533 136.586 306.111 137.598 306.362 138.711C306.612 139.824 306.522 140.986 306.103 142.048C305.684 143.109 304.956 144.02 304.013 144.662C303.071 145.305 301.957 145.649 300.816 145.651C299.424 145.65 298.043 145.147 296.948 144.125L296.948 144.125L269.287 118.298C268.084 117.173 267.513 115.65 267.536 114.067L267.546 113.402L267.06 112.948L248.209 95.3566ZM253.952 54.5758C253.952 31.5779 235.244 12.8694 212.241 12.8694C189.239 12.8694 170.53 31.5779 170.53 54.5758C170.53 77.5736 189.248 96.2869 212.241 96.2869C235.234 96.2869 253.952 77.5736 253.952 54.5758Z" fill="#2074EF" stroke="white" stroke-width="3"/>
</svg>
