<svg width="308" height="320" viewBox="0 0 308 320" fill="none" xmlns="http://www.w3.org/2000/svg">
<path d="M246.938 20.8796V298.132C246.938 309.659 237.586 319.011 226.052 319.011H20.8784C9.34415 319.011 0 309.659 0 298.132V20.8796C0 9.346 9.34478 0.0012207 20.8784 0.0012207H226.052C237.586 0.0012207 246.938 9.34662 246.938 20.8796Z" fill="#32383F"/>
<path d="M246.938 20.8784V53.663H0.0012207V20.8784C0.0012207 9.3454 9.34537 0 20.8796 0H226.052C237.586 0 246.938 9.3454 246.938 20.8784Z" fill="#0071BC"/>
<path d="M18.4751 40H226.525C229.549 40 232 43.1342 232 47C232 50.8658 229.549 54 226.525 54H18.4751C15.4514 54 13 50.8658 13 47C13 43.1342 15.4514 40 18.4751 40Z" fill="#00439D"/>
<path d="M246.112 160.675C280.292 160.675 308 132.967 308 98.7868C308 64.6069 280.292 36.8987 246.112 36.8987C211.932 36.8987 184.224 64.6069 184.224 98.7868C184.224 132.967 211.932 160.675 246.112 160.675Z" fill="#2074EF"/>
<path d="M160.142 96.9027H51.6786C51.0369 96.9028 50.4015 96.7764 49.8087 96.5309C49.2158 96.2854 48.6771 95.9255 48.2234 95.4718C47.7697 95.018 47.4098 94.4794 47.1642 93.8865C46.9187 93.2937 46.7924 92.6583 46.7925 92.0166C46.7924 91.3749 46.9187 90.7395 47.1642 90.1467C47.4098 89.5538 47.7697 89.0151 48.2234 88.5614C48.6771 88.1077 49.2158 87.7478 49.8087 87.5023C50.4015 87.2567 51.0369 87.1304 51.6786 87.1305H160.141C161.437 87.1304 162.68 87.6451 163.596 88.5614C164.512 89.4776 165.027 90.7204 165.027 92.0163C165.028 93.3122 164.513 94.555 163.597 95.4714C162.68 96.3877 161.438 96.9026 160.142 96.9027Z" fill="#F7BB26"/>
<path d="M29.8593 96.8996C25.3825 96.8996 23.2647 91.0845 26.757 88.2408C30.2107 85.4283 35.5541 88.5405 34.6482 92.9712C34.1871 95.2267 32.1653 96.8996 29.8593 96.8996Z" fill="#DAEEEF"/>
<path d="M160.142 151.497H51.6786C51.0369 151.497 50.4015 151.371 49.8087 151.125C49.2158 150.88 48.6771 150.52 48.2234 150.066C47.7697 149.612 47.4098 149.074 47.1642 148.481C46.9187 147.888 46.7924 147.253 46.7925 146.611C46.7924 145.969 46.9187 145.334 47.1642 144.741C47.4098 144.148 47.7697 143.61 48.2234 143.156C48.6771 142.702 49.2158 142.342 49.8087 142.097C50.4015 141.851 51.0369 141.725 51.6786 141.725H160.141C161.437 141.725 162.68 142.239 163.596 143.156C164.512 144.072 165.027 145.315 165.027 146.611C165.028 147.907 164.513 149.149 163.597 150.066C162.68 150.982 161.438 151.497 160.142 151.497Z" fill="#F7BB26"/>
<path d="M29.8593 151.498C27.815 151.498 25.9508 150.177 25.2579 148.255C24.5763 146.364 25.157 144.179 26.6954 142.882C29.969 140.12 35.1504 142.808 34.7211 147.089C34.4744 149.553 32.3354 151.498 29.8593 151.498ZM204.112 178.794H173.498C172.856 178.794 172.221 178.668 171.628 178.423C171.035 178.177 170.496 177.817 170.043 177.363C169.589 176.91 169.229 176.371 168.983 175.778C168.738 175.185 168.611 174.55 168.612 173.908C168.611 173.267 168.738 172.631 168.983 172.038C169.229 171.445 169.589 170.907 170.043 170.453C170.496 169.999 171.035 169.639 171.628 169.394C172.221 169.148 172.856 169.022 173.498 169.022H204.112C204.754 169.022 205.389 169.148 205.982 169.394C206.575 169.639 207.114 169.999 207.567 170.453C208.021 170.907 208.381 171.445 208.626 172.038C208.872 172.631 208.998 173.267 208.998 173.908C208.998 175.204 208.483 176.447 207.567 177.363C206.651 178.279 205.408 178.794 204.112 178.794Z" fill="#DAEEEF"/>
<path d="M157.209 178.794H100.212C99.5701 178.794 98.9347 178.668 98.3419 178.423C97.749 178.177 97.2103 177.817 96.7566 177.363C96.3029 176.91 95.943 176.371 95.6974 175.778C95.4519 175.185 95.3256 174.55 95.3257 173.908C95.3256 173.267 95.4519 172.631 95.6974 172.038C95.943 171.445 96.3029 170.907 96.7566 170.453C97.2103 169.999 97.749 169.639 98.3419 169.394C98.9347 169.148 99.5701 169.022 100.212 169.022H157.209C158.505 169.022 159.748 169.537 160.664 170.453C161.581 171.37 162.096 172.612 162.096 173.908C162.096 175.204 161.581 176.447 160.664 177.363C159.748 178.28 158.505 178.794 157.209 178.794Z" fill="#FF4D4D"/>
<path d="M83.9241 178.794H51.6785C51.0368 178.794 50.4014 178.668 49.8086 178.423C49.2157 178.177 48.677 177.817 48.2233 177.363C47.7696 176.91 47.4097 176.371 47.1642 175.778C46.9186 175.185 46.7923 174.55 46.7924 173.908C46.7923 173.267 46.9186 172.631 47.1642 172.038C47.4097 171.445 47.7696 170.907 48.2233 170.453C48.677 169.999 49.2157 169.639 49.8086 169.394C50.4014 169.148 51.0368 169.022 51.6785 169.022H83.9241C84.5658 169.022 85.2012 169.148 85.7941 169.394C86.3869 169.639 86.9256 169.999 87.3793 170.453C87.8331 170.907 88.193 171.445 88.4385 172.038C88.684 172.631 88.8103 173.267 88.8102 173.908C88.8103 174.55 88.684 175.185 88.4385 175.778C88.193 176.371 87.8331 176.91 87.3793 177.363C86.9256 177.817 86.3869 178.177 85.7941 178.423C85.2012 178.668 84.5658 178.794 83.9241 178.794ZM29.8593 178.794C25.4536 178.794 23.3208 173.162 26.6237 170.248C29.9141 167.344 35.2663 170.14 34.7067 174.513C34.3977 176.922 32.2955 178.794 29.8593 178.794Z" fill="#DAEEEF"/>
<path d="M130.827 206.092H51.6786C51.0369 206.092 50.4015 205.965 49.8087 205.72C49.2158 205.474 48.6771 205.114 48.2234 204.661C47.7697 204.207 47.4098 203.668 47.1642 203.075C46.9187 202.483 46.7924 201.847 46.7925 201.205C46.7924 200.564 46.9187 199.928 47.1642 199.336C47.4098 198.743 47.7697 198.204 48.2234 197.75C48.6771 197.297 49.2158 196.937 49.8087 196.691C50.4015 196.446 51.0369 196.319 51.6786 196.319H130.826C131.468 196.319 132.103 196.446 132.696 196.691C133.289 196.937 133.828 197.297 134.281 197.75C134.735 198.204 135.095 198.743 135.341 199.336C135.586 199.928 135.712 200.564 135.712 201.205C135.712 201.847 135.586 202.482 135.341 203.075C135.095 203.668 134.735 204.207 134.282 204.66C133.828 205.114 133.289 205.474 132.697 205.72C132.104 205.965 131.469 206.092 130.827 206.092Z" fill="#F7BB26"/>
<path d="M29.8592 206.09C27.9034 206.09 26.094 204.879 25.3445 203.074C24.4977 201.035 25.1632 198.607 26.9377 197.289C30.4916 194.65 35.6394 197.951 34.6145 202.308C34.1017 204.493 32.1098 206.09 29.8592 206.09Z" fill="#DAEEEF"/>
<path d="M179.684 233.389H164.703C164.061 233.389 163.425 233.263 162.833 233.017C162.24 232.772 161.701 232.412 161.247 231.958C160.794 231.504 160.434 230.966 160.188 230.373C159.943 229.78 159.816 229.144 159.816 228.503C159.816 227.861 159.943 227.226 160.188 226.633C160.434 226.04 160.794 225.501 161.247 225.048C161.701 224.594 162.24 224.234 162.833 223.988C163.425 223.743 164.061 223.617 164.703 223.617H179.684C180.979 223.617 182.222 224.131 183.139 225.048C184.055 225.964 184.57 227.207 184.57 228.503C184.57 229.799 184.055 231.041 183.139 231.958C182.222 232.874 180.979 233.389 179.684 233.389Z" fill="#FF4D4D"/>
<path d="M148.415 233.389H105.097C104.456 233.389 103.82 233.263 103.227 233.017C102.635 232.772 102.096 232.412 101.642 231.958C101.188 231.504 100.828 230.966 100.583 230.373C100.337 229.78 100.211 229.144 100.211 228.503C100.211 227.861 100.337 227.226 100.583 226.633C100.828 226.04 101.188 225.501 101.642 225.048C102.096 224.594 102.635 224.234 103.227 223.988C103.82 223.743 104.456 223.617 105.097 223.617H148.415C149.711 223.617 150.954 224.131 151.87 225.048C152.787 225.964 153.302 227.207 153.302 228.503C153.302 229.799 152.787 231.041 151.87 231.958C150.954 232.874 149.711 233.389 148.415 233.389Z" fill="#F7BB26"/>
<path d="M88.8095 233.389H51.6784C51.0367 233.389 50.4013 233.263 49.8084 233.017C49.2156 232.772 48.6769 232.412 48.2232 231.958C47.7694 231.504 47.4095 230.966 47.164 230.373C46.9185 229.78 46.7922 229.144 46.7923 228.503C46.7922 227.861 46.9185 227.226 47.164 226.633C47.4095 226.04 47.7694 225.501 48.2232 225.048C48.6769 224.594 49.2156 224.234 49.8084 223.988C50.4013 223.743 51.0367 223.617 51.6784 223.617H88.8095C90.0918 223.637 91.3148 224.161 92.2144 225.075C93.114 225.989 93.6182 227.22 93.6182 228.503C93.6182 229.785 93.114 231.016 92.2144 231.931C91.3148 232.845 90.0918 233.368 88.8095 233.389ZM29.8591 233.386C25.4603 233.386 23.3213 227.773 26.6111 224.85C29.9015 221.928 35.2649 224.734 34.706 229.108C34.3982 231.518 32.2947 233.386 29.8591 233.386ZM202.158 260.686H132.457C129.758 260.686 127.571 258.498 127.571 255.799C127.571 253.101 129.758 250.913 132.457 250.913H202.158C203.454 250.913 204.697 251.428 205.613 252.344C206.529 253.261 207.044 254.504 207.044 255.799C207.044 257.095 206.529 258.338 205.613 259.254C204.697 260.171 203.454 260.686 202.158 260.686Z" fill="#25E572"/>
<path d="M116.169 260.686H51.6786C48.9795 260.686 46.7925 258.498 46.7925 255.799C46.7925 253.101 48.9795 250.913 51.6786 250.913H116.169C118.868 250.913 121.055 253.101 121.055 255.799C121.055 258.498 118.868 260.686 116.169 260.686Z" fill="#FF4D4D"/>
<path d="M29.8594 260.689C25.4948 260.689 23.3359 255.121 26.5746 252.18C29.7983 249.253 35.1642 251.911 34.7206 256.278C34.4707 258.738 32.3367 260.689 29.8594 260.689Z" fill="#DAEEEF"/>
<path d="M83.9242 287.983H51.6786C48.9795 287.983 46.7925 285.795 46.7925 283.097C46.7925 280.398 48.9795 278.211 51.6786 278.211H83.9242C86.6234 278.211 88.8103 280.398 88.8103 283.097C88.8103 285.795 86.6234 287.983 83.9242 287.983Z" fill="#FF4D4D"/>
<path d="M29.8594 287.985C27.8176 287.985 25.9453 286.663 25.258 284.742C24.5322 282.715 25.2568 280.366 27.0194 279.12C30.5261 276.641 35.5237 279.772 34.6483 284.049C34.186 286.304 32.166 287.985 29.8594 287.985Z" fill="#DAEEEF"/>
<path d="M76.1066 124.2H51.6786C51.0369 124.2 50.4015 124.074 49.8087 123.828C49.2158 123.583 48.6771 123.223 48.2234 122.769C47.7697 122.315 47.4098 121.777 47.1642 121.184C46.9187 120.591 46.7924 119.956 46.7925 119.314C46.7924 118.672 46.9187 118.037 47.1642 117.444C47.4098 116.851 47.7697 116.312 48.2234 115.859C48.6771 115.405 49.2158 115.045 49.8087 114.8C50.4015 114.554 51.0369 114.428 51.6786 114.428H76.1066C76.7483 114.428 77.3837 114.554 77.9765 114.8C78.5694 115.045 79.108 115.405 79.5618 115.859C80.0155 116.312 80.3754 116.851 80.6209 117.444C80.8664 118.037 80.9928 118.672 80.9927 119.314C80.9928 119.956 80.8664 120.591 80.6209 121.184C80.3754 121.777 80.0155 122.315 79.5618 122.769C79.108 123.223 78.5694 123.583 77.9765 123.828C77.3837 124.074 76.7483 124.2 76.1066 124.2Z" fill="#FF4D4D"/>
<mask id="mask0_56_167" style="mask-type:alpha" maskUnits="userSpaceOnUse" x="24" y="66" width="254" height="66">
<path d="M140.599 124.2H93.6965C93.0548 124.2 92.4194 124.074 91.8266 123.828C91.2337 123.583 90.6951 123.223 90.2413 122.769C89.7876 122.315 89.4277 121.777 89.1822 121.184C88.9367 120.591 88.8103 119.955 88.8104 119.314C88.8103 118.672 88.9367 118.037 89.1822 117.444C89.4277 116.851 89.7876 116.312 90.2413 115.859C90.6951 115.405 91.2337 115.045 91.8266 114.799C92.4194 114.554 93.0548 114.428 93.6965 114.428H140.599C141.24 114.428 141.876 114.554 142.469 114.799C143.061 115.045 143.6 115.405 144.054 115.859C144.508 116.312 144.867 116.851 145.113 117.444C145.358 118.037 145.485 118.672 145.485 119.314C145.485 120.61 144.97 121.852 144.053 122.769C143.137 123.685 141.894 124.2 140.599 124.2ZM29.8595 124.202C27.8544 124.202 26.0238 122.931 25.3017 121.068C24.5328 119.085 25.174 116.77 26.8513 115.463C30.3236 112.758 35.5425 115.904 34.6477 120.268C34.186 122.521 32.1661 124.202 29.8595 124.202ZM243.181 131.52C242.523 131.52 241.871 131.387 241.266 131.129C240.66 130.871 240.113 130.493 239.657 130.018L216.206 105.59C215.76 105.128 215.409 104.582 215.174 103.984C214.94 103.385 214.825 102.747 214.837 102.104C214.85 101.462 214.989 100.828 215.246 100.239C215.504 99.6507 215.875 99.1186 216.339 98.6736C216.802 98.2286 217.349 97.8794 217.948 97.646C218.547 97.4127 219.185 97.2997 219.828 97.3136C220.47 97.3276 221.104 97.4681 221.692 97.7272C222.28 97.9863 222.811 98.3589 223.255 98.8236L242.014 118.364L268.172 68.6633C268.471 68.0955 268.878 67.5922 269.372 67.1819C269.865 66.7717 270.435 66.4627 271.047 66.2725C271.66 66.0823 272.305 66.0147 272.943 66.0735C273.582 66.1324 274.204 66.3165 274.771 66.6153C275.339 66.9142 275.843 67.3219 276.253 67.8153C276.663 68.3087 276.972 68.8781 277.162 69.4909C277.352 70.1038 277.42 70.748 277.361 71.387C277.302 72.0259 277.118 72.647 276.819 73.2149L247.505 128.912C247.091 129.699 246.469 130.358 245.707 130.818C244.944 131.278 244.071 131.521 243.181 131.52Z" fill="#25E572"/>
</mask>
<g mask="url(#mask0_56_167)">
<rect x="209" y="61" width="76" height="71" fill="white"/>
<rect x="14" y="107" width="144" height="25" fill="#25E572"/>
</g>
<path d="M24.6207 27.5517H19.3103C17.902 27.5517 16.5512 26.9922 15.5554 25.9964C14.5595 25.0005 14 23.6498 14 22.2414C14 20.833 14.5595 19.4823 15.5554 18.4864C16.5512 17.4905 17.902 16.931 19.3103 16.931H24.6207C26.0291 16.931 27.3798 17.4905 28.3757 18.4864C29.3716 19.4823 29.931 20.833 29.931 22.2414C29.931 23.6498 29.3716 25.0005 28.3757 25.9964C27.3798 26.9922 26.0291 27.5517 24.6207 27.5517Z" fill="#FF4D4D"/>
<path d="M51.1724 27.5517H45.8621C44.4537 27.5517 43.103 26.9922 42.1071 25.9964C41.1112 25.0005 40.5518 23.6498 40.5518 22.2414C40.5518 20.833 41.1112 19.4823 42.1071 18.4864C43.103 17.4905 44.4537 16.931 45.8621 16.931H51.1724C52.5808 16.931 53.9315 17.4905 54.9274 18.4864C55.9233 19.4823 56.4828 20.833 56.4828 22.2414C56.4828 23.6498 55.9233 25.0005 54.9274 25.9964C53.9315 26.9922 52.5808 27.5517 51.1724 27.5517Z" fill="#F7BB26"/>
<path d="M77.7242 27.5517H72.4139C71.0055 27.5517 69.6548 26.9922 68.6589 25.9964C67.663 25.0005 67.1035 23.6498 67.1035 22.2414C67.1035 20.833 67.663 19.4823 68.6589 18.4864C69.6548 17.4905 71.0055 16.931 72.4139 16.931H77.7242C79.1326 16.931 80.4833 17.4905 81.4792 18.4864C82.4751 19.4823 83.0345 20.833 83.0345 22.2414C83.0345 23.6498 82.4751 25.0005 81.4792 25.9964C80.4833 26.9922 79.1326 27.5517 77.7242 27.5517Z" fill="#25E572"/>
<path d="M226.414 27.5517H130.827C129.419 27.5517 128.068 26.9922 127.072 25.9964C126.077 25.0005 125.517 23.6498 125.517 22.2414C125.517 20.833 126.077 19.4823 127.072 18.4864C128.068 17.4905 129.419 16.931 130.827 16.931H226.414C227.822 16.931 229.173 17.4905 230.169 18.4864C231.164 19.4823 231.724 20.833 231.724 22.2414C231.724 23.6498 231.164 25.0005 230.169 25.9964C229.173 26.9922 227.822 27.5517 226.414 27.5517Z" fill="#419DDB"/>
</svg>
