<svg width="36" height="36" viewBox="0 0 36 36" fill="none" xmlns="http://www.w3.org/2000/svg">
<path d="M31.0909 0H4.90909C3.60712 0 2.35847 0.517206 1.43784 1.43784C0.517206 2.35847 0 3.60712 0 4.90909L0 31.0909C0 32.3929 0.517206 33.6415 1.43784 34.5622C2.35847 35.4828 3.60712 36 4.90909 36H31.0909C32.3929 36 33.6415 35.4828 34.5622 34.5622C35.4828 33.6415 36 32.3929 36 31.0909V4.90909C36 3.60712 35.4828 2.35847 34.5622 1.43784C33.6415 0.517206 32.3929 0 31.0909 0ZM28.3745 24.4309C27.8509 24.5045 25.29 24.4309 25.157 24.4309C24.495 24.4396 23.8563 24.1867 23.3795 23.7273C22.8395 23.2057 22.3568 22.633 21.8291 22.0909C21.6736 21.9245 21.5046 21.7713 21.3239 21.6327C20.9025 21.3095 20.4852 21.3811 20.2868 21.8802C20.1319 22.4174 20.0238 22.9669 19.9636 23.5227C19.9289 24.0259 19.6098 24.3409 19.0452 24.3757C18.6955 24.3941 18.3457 24.4023 18 24.392C16.7401 24.3852 15.4998 24.0788 14.3816 23.4982C13.1713 22.8245 12.1168 21.9031 11.2868 20.7941C9.9225 19.0514 8.83227 17.1368 7.85864 15.163C7.8075 15.0627 6.80932 12.9395 6.78477 12.8393C6.69477 12.5059 6.78477 12.1848 7.06091 12.0723C7.23682 12.0048 10.5259 12.0723 10.5811 12.0723C10.8258 12.0706 11.0647 12.1468 11.2633 12.2898C11.4618 12.4329 11.6098 12.6353 11.6857 12.868C12.2942 14.4245 13.1266 15.884 14.1566 17.2002C14.3009 17.3755 14.4696 17.5292 14.6577 17.6564C14.9257 17.8405 15.1793 17.777 15.2898 17.4661C15.4208 17.0376 15.4978 16.5944 15.5189 16.1468C15.5373 15.2591 15.5189 14.6761 15.4698 13.7884C15.437 13.2198 15.2366 12.7227 14.398 12.5714C14.1402 12.5243 14.1177 12.3116 14.2834 12.0989C14.6291 11.6591 15.1016 11.5875 15.6314 11.5609C16.4209 11.5159 17.2105 11.5466 18 11.5609H18.1718C18.5154 11.5597 18.8582 11.5946 19.1945 11.6652C19.3935 11.7058 19.5741 11.8096 19.7093 11.9611C19.8446 12.1125 19.9273 12.3036 19.9452 12.5059C19.9858 12.7299 20.003 12.9575 19.9964 13.185C19.9759 14.1525 19.9289 15.122 19.9186 16.0895C19.9091 16.4734 19.9441 16.8571 20.023 17.233C20.1355 17.7484 20.4893 17.8773 20.8411 17.505C21.2975 17.0216 21.7154 16.5032 22.0909 15.9545C22.7573 14.961 23.3064 13.8937 23.7273 12.7739C23.9564 12.1991 24.1364 12.0723 24.75 12.0723H28.2395C28.447 12.0686 28.6539 12.0962 28.8532 12.1541C28.9237 12.1726 28.9897 12.2055 29.0469 12.2507C29.1041 12.2959 29.1514 12.3525 29.1858 12.4168C29.2202 12.4811 29.2409 12.5519 29.2467 12.6246C29.2524 12.6973 29.2431 12.7704 29.2193 12.8393C29.0475 13.6043 28.6343 14.2568 28.1966 14.8848C27.4868 15.8891 26.7382 16.8689 26.012 17.8609C25.9247 17.9892 25.8448 18.1223 25.7727 18.2598C25.4986 18.7548 25.5191 19.0309 25.9159 19.44C26.55 20.0925 27.227 20.702 27.8386 21.373C28.2872 21.8611 28.6924 22.3874 29.0495 22.9459C29.4852 23.6495 29.2091 24.3123 28.3745 24.4309Z" fill="white"/>
</svg>
